<svg xmlns="http://www.w3.org/2000/svg" viewBox="0 0 194.87 50.78"><g id="Layer_2" data-name="Layer 2"><g id="Vrstva_1" data-name="Vrstva 1"><rect x="2.49" y="5.54" width="21.26" height="13.47" transform="translate(-4.84 12.87) rotate(-45)"/><rect x="6.38" y="27.88" width="13.47" height="21.26" transform="translate(-23.39 20.55) rotate(-45)"/><polygon points="0 15.87 0 34.91 9.52 25.39 0 15.87"/><path d="M37,32.43a7.61,7.61,0,0,1-2.85-.51A5.55,5.55,0,0,1,32,30.43,6.73,6.73,0,0,1,30.65,28a11,11,0,0,1-.49-3.47A11.32,11.32,0,0,1,30.65,21,7.06,7.06,0,0,1,32,18.44a5.63,5.63,0,0,1,2.16-1.57A7.24,7.24,0,0,1,37,16.33a6.7,6.7,0,0,1,3.57.88A6,6,0,0,1,42.86,20L39.94,21.5a3.53,3.53,0,0,0-1-1.57A2.82,2.82,0,0,0,37,19.34a3.1,3.1,0,0,0-2.39,1,4,4,0,0,0-.91,2.82v2.5a4,4,0,0,0,.91,2.82,3.13,3.13,0,0,0,2.39,1,2.87,2.87,0,0,0,2-.68,4.17,4.17,0,0,0,1.1-1.64l2.77,1.6a7,7,0,0,1-2.29,2.76,6.24,6.24,0,0,1-3.58,1"/><polygon points="57.39 32.16 45.6 32.16 45.6 29.15 53.27 19.61 45.98 19.61 45.98 16.6 57.22 16.6 57.22 19.61 49.53 29.15 57.39 29.15 57.39 32.16"/><polygon points="61.45 32.16 61.45 16.6 72.04 16.6 72.04 19.61 64.84 19.61 64.84 22.77 71.01 22.77 71.01 25.78 64.84 25.78 64.84 29.15 72.04 29.15 72.04 32.16 61.45 32.16"/><path d="M82.56,32.43a7.54,7.54,0,0,1-2.85-.51,5.66,5.66,0,0,1-2.17-1.49A7,7,0,0,1,76.16,28a11,11,0,0,1-.49-3.47A11.32,11.32,0,0,1,76.16,21a7.37,7.37,0,0,1,1.38-2.56,5.75,5.75,0,0,1,2.17-1.57,7.17,7.17,0,0,1,2.85-.54,6.7,6.7,0,0,1,3.57.88A6.13,6.13,0,0,1,88.38,20L85.46,21.5a3.53,3.53,0,0,0-1-1.57,2.82,2.82,0,0,0-1.93-.59,3.11,3.11,0,0,0-2.4,1,4,4,0,0,0-.9,2.82v2.5a4,4,0,0,0,.9,2.82,3.14,3.14,0,0,0,2.4,1,2.84,2.84,0,0,0,2-.68,4.19,4.19,0,0,0,1.11-1.64l2.76,1.6a7,7,0,0,1-2.28,2.76,6.27,6.27,0,0,1-3.58,1"/><polygon points="101.13 25.78 95.2 25.78 95.2 32.16 91.81 32.16 91.81 16.6 95.2 16.6 95.2 22.77 101.13 22.77 101.13 16.6 104.51 16.6 104.51 32.16 101.13 32.16 101.13 25.78"/><rect x="110.56" y="16.6" width="3.39" height="15.56"/><polygon points="124.75 24.8 123.25 21.68 123.19 21.68 123.19 32.16 120 32.16 120 16.6 123.7 16.6 127.95 23.95 129.45 27.08 129.52 27.08 129.52 16.6 132.7 16.6 132.7 32.16 129 32.16 124.75 24.8"/><polygon points="141.31 32.16 136.29 16.6 139.72 16.6 142.04 24.07 143.27 28.95 143.34 28.95 144.52 24.07 146.84 16.6 150.16 16.6 145.1 32.16 141.31 32.16"/><polygon points="153.72 32.16 153.72 16.6 164.31 16.6 164.31 19.61 157.11 19.61 157.11 22.77 163.28 22.77 163.28 25.78 157.11 25.78 157.11 29.15 164.31 29.15 164.31 32.16 153.72 32.16"/><path d="M173.76,32.43a7.79,7.79,0,0,1-3.48-.71,7.91,7.91,0,0,1-2.43-1.82l2.23-2.25a5,5,0,0,0,3.9,1.77,2.8,2.8,0,0,0,1.85-.51,1.66,1.66,0,0,0,.61-1.35,1.61,1.61,0,0,0-.36-1.07,2.32,2.32,0,0,0-1.45-.59l-1.54-.19a6,6,0,0,1-3.62-1.5,4.32,4.32,0,0,1-1.15-3.15,4.64,4.64,0,0,1,.4-1.92,4.27,4.27,0,0,1,1.15-1.49,5.32,5.32,0,0,1,1.83-1,8.84,8.84,0,0,1,5.56.21,6.36,6.36,0,0,1,2.3,1.63L177.3,20.8A4.46,4.46,0,0,0,176,19.75a4.39,4.39,0,0,0-2-.41,2.87,2.87,0,0,0-1.69.4,1.27,1.27,0,0,0-.56,1.1,1.44,1.44,0,0,0,.43,1.15,3.21,3.21,0,0,0,1.42.51l1.54.24a6.49,6.49,0,0,1,3.56,1.49,4.08,4.08,0,0,1,1.16,3.13,5.1,5.1,0,0,1-.4,2.05A4.46,4.46,0,0,1,178.25,31a5.43,5.43,0,0,1-1.9,1,8.57,8.57,0,0,1-2.59.37"/><polygon points="190.66 19.61 190.66 32.16 187.27 32.16 187.27 19.61 183.06 19.61 183.06 16.6 194.87 16.6 194.87 19.61 190.66 19.61"/></g></g></svg>