<svg width="195" height="51" viewBox="0 0 195 51" fill="none" xmlns="http://www.w3.org/2000/svg">
<g clip-path="url(#clip0_2647_18)">
<path d="M15.871 -0.00574632L0.837891 15.0273L10.3626 24.5521L25.3957 9.51898L15.871 -0.00574632Z" fill="white"/>
<path d="M10.3607 26.2292L0.835938 35.7539L15.869 50.787L25.3938 41.2623L10.3607 26.2292Z" fill="white"/>
<path d="M0 15.8711V34.9111L9.52 25.3911L0 15.8711Z" fill="white"/>
<path d="M36.9995 32.4306C36.0256 32.4445 35.0581 32.2714 34.1495 31.9206C33.3244 31.6023 32.5872 31.0915 31.9995 30.4306C31.3853 29.7234 30.9255 28.8957 30.6495 28.0006C30.3018 26.8775 30.1364 25.706 30.1595 24.5306C30.1354 23.3354 30.3008 22.144 30.6495 21.0006C30.9179 20.0632 31.3776 19.1915 31.9995 18.4406C32.5832 17.7516 33.324 17.2131 34.1595 16.8706C35.0603 16.5015 36.0262 16.3178 36.9995 16.3306C38.2483 16.2853 39.4849 16.5901 40.5695 17.2106C41.6011 17.8835 42.4006 18.8576 42.8595 20.0006L39.9395 21.5006C39.7527 20.8972 39.4073 20.355 38.9395 19.9306C38.3884 19.5002 37.697 19.2899 36.9995 19.3406C36.5526 19.325 36.1076 19.4063 35.695 19.5789C35.2825 19.7515 34.9122 20.0114 34.6095 20.3406C33.9564 21.1294 33.6307 22.1387 33.6995 23.1606V25.6606C33.6307 26.6824 33.9564 27.6917 34.6095 28.4806C34.9134 28.8082 35.284 29.067 35.6962 29.2395C36.1084 29.412 36.5529 29.4942 36.9995 29.4806C37.7284 29.5164 38.4436 29.2733 38.9995 28.8006C39.4922 28.3499 39.8694 27.7874 40.0995 27.1606L42.8695 28.7606C42.3588 29.8638 41.5696 30.815 40.5795 31.5206C39.5155 32.2099 38.2667 32.5587 36.9995 32.5206" fill="white"/>
<path d="M57.3896 32.1596H45.5996V29.1496L53.2696 19.6096H45.9796V16.5996H57.2196V19.6096L49.5296 29.1496H57.3896V32.1596Z" fill="white"/>
<path d="M61.4502 32.1596V16.5996H72.0402V19.6096H64.8402V22.7696H71.0102V25.7796H64.8402V29.1496H72.0402V32.1596H61.4502Z" fill="white"/>
<path d="M82.5603 32.4306C81.5862 32.4463 80.6184 32.2731 79.7103 31.9206C78.8799 31.6014 78.1365 31.0909 77.5403 30.4306C76.9216 29.7216 76.4523 28.8951 76.1603 28.0006C75.8126 26.8775 75.6471 25.706 75.6703 24.5306C75.6462 23.3354 75.8116 22.144 76.1603 21.0006C76.4457 20.0641 76.9148 19.1938 77.5403 18.4406C78.1299 17.7537 78.8734 17.2158 79.7103 16.8706C80.6136 16.4983 81.5834 16.3145 82.5603 16.3306C83.809 16.2853 85.0456 16.5901 86.1303 17.2106C87.1415 17.8957 87.925 18.8672 88.3803 20.0006L85.4603 21.5006C85.2734 20.8972 84.9281 20.355 84.4603 19.9306C83.9117 19.5026 83.2244 19.2924 82.5303 19.3406C82.0818 19.3242 81.635 19.4051 81.2207 19.5777C80.8065 19.7504 80.4345 20.0106 80.1303 20.3406C79.4807 21.1309 79.1586 22.1401 79.2303 23.1606V25.6606C79.1586 26.6811 79.4807 27.6903 80.1303 28.4806C80.4357 28.809 80.8079 29.0682 81.2219 29.2407C81.6359 29.4132 82.082 29.495 82.5303 29.4806C83.2596 29.5195 83.9758 29.276 84.5303 28.8006C85.026 28.3505 85.4066 27.7881 85.6403 27.1606L88.4003 28.7606C87.8923 29.8627 87.1067 30.8138 86.1203 31.5206C85.0554 32.2081 83.8072 32.5568 82.5403 32.5206" fill="white"/>
<path d="M101.13 25.7796H95.1996V32.1596H91.8096V16.5996H95.1996V22.7696H101.13V16.5996H104.51V32.1596H101.13V25.7796Z" fill="white"/>
<path d="M113.95 16.5996H110.56V32.1596H113.95V16.5996Z" fill="white"/>
<path d="M124.75 24.7996L123.25 21.6796H123.19V32.1596H120V16.5996H123.7L127.95 23.9496L129.45 27.0796H129.52V16.5996H132.7V32.1596H129L124.75 24.7996Z" fill="white"/>
<path d="M141.31 32.1596L136.29 16.5996H139.72L142.04 24.0696L143.27 28.9496H143.34L144.52 24.0696L146.84 16.5996H150.16L145.1 32.1596H141.31Z" fill="white"/>
<path d="M153.72 32.1596V16.5996H164.31V19.6096H157.11V22.7696H163.28V25.7796H157.11V29.1496H164.31V32.1596H153.72Z" fill="white"/>
<path d="M173.76 32.4309C172.56 32.4654 171.369 32.2224 170.28 31.7209C169.36 31.2769 168.534 30.6588 167.85 29.9009L170.08 27.6509C170.558 28.2164 171.156 28.6685 171.83 28.9746C172.505 29.2807 173.239 29.4332 173.98 29.4209C174.637 29.4741 175.292 29.2935 175.83 28.9109C176.029 28.7485 176.188 28.542 176.294 28.3077C176.399 28.0735 176.449 27.8178 176.44 27.5609C176.453 27.1725 176.325 26.7924 176.08 26.4909C175.679 26.1322 175.167 25.9237 174.63 25.9009L173.09 25.7109C171.749 25.6301 170.474 25.102 169.47 24.2109C169.078 23.789 168.774 23.293 168.576 22.7521C168.379 22.2111 168.292 21.6361 168.32 21.0609C168.315 20.3997 168.451 19.7451 168.72 19.1409C168.987 18.5649 169.38 18.0559 169.87 17.6509C170.408 17.2001 171.03 16.8603 171.7 16.6509C173.527 16.1206 175.477 16.1943 177.26 16.8609C178.139 17.2254 178.925 17.7824 179.56 18.4909L177.3 20.8009C176.936 20.3721 176.495 20.0159 176 19.7509C175.374 19.459 174.689 19.3185 174 19.3409C173.408 19.2965 172.818 19.4363 172.31 19.7409C172.13 19.8615 171.985 20.0258 171.887 20.2183C171.789 20.4108 171.742 20.6251 171.75 20.8409C171.732 21.0525 171.762 21.2652 171.836 21.464C171.91 21.6629 172.028 21.8428 172.18 21.9909C172.606 22.2713 173.092 22.4462 173.6 22.5009L175.14 22.7409C176.45 22.8651 177.691 23.3848 178.7 24.2309C179.103 24.6414 179.414 25.1324 179.614 25.6719C179.814 26.2113 179.898 26.7869 179.86 27.3609C179.869 28.0645 179.733 28.7625 179.46 29.4109C179.182 30.0256 178.768 30.5693 178.25 31.0009C177.689 31.4574 177.043 31.7974 176.35 32.0009C175.51 32.2561 174.637 32.3809 173.76 32.3709" fill="white"/>
<path d="M190.66 19.6096V32.1596H187.27V19.6096H183.06V16.5996H194.87V19.6096H190.66Z" fill="white"/>
</g>
<defs>
<clipPath id="clip0_2647_18">
<rect width="194.87" height="50.78" fill="white"/>
</clipPath>
</defs>
</svg>
