<svg xmlns="http://www.w3.org/2000/svg" viewBox="0 0 72.21 28.75"><g id="Layer_2" data-name="Layer 2"><g id="Vrstva_1" data-name="Vrstva 1"><path d="M67.89,11.92H64.06c-.21,0-.37,0-.44-.28C62.94,8.67,62,7.76,59,7.4a11.58,11.58,0,0,0-4,.23,4,4,0,0,0-3.21,3.2,15.3,15.3,0,0,0,0,7.12A4,4,0,0,0,55,21.15a11,11,0,0,0,4.68.05,4.75,4.75,0,0,0,4-4.76c0-.35.11-.45.47-.45,2.54,0,5.07,0,7.61,0,.41,0,.48.12.45.5-.29,3.41-1.28,6.53-3.9,8.91a12.22,12.22,0,0,1-6.24,2.91,23.73,23.73,0,0,1-11-.46,10.39,10.39,0,0,1-7.53-7.73,22.27,22.27,0,0,1,0-11.32A10.3,10.3,0,0,1,50.92,1a22.34,22.34,0,0,1,13.7.14c4.19,1.43,6.49,4.52,7.26,8.83.08.5.12,1,.21,1.53s-.09.42-.41.42c-1.26,0-2.53,0-3.79,0Z"/><path d="M11.63.65h11c.39,0,.52.08.52.5,0,2.11,0,4.21,0,6.32,0,.41-.14.47-.5.47-2.05,0-4.11,0-6.16,0-.55,0-.63.17-.63.66,0,6.33,0,12.67,0,19,0,.48-.12.6-.59.59q-3.77,0-7.51,0c-.5,0-.59-.16-.58-.61,0-6.35,0-12.7,0-19.06,0-.48-.14-.59-.6-.58-2.05,0-4.11,0-6.16,0C.1,7.93,0,7.83,0,7.44,0,5.33,0,3.23,0,1.12,0,.73.11.63.49.64H11.63"/><path d="M37.26,14.4q0,6.63,0,13.25c0,.42-.11.51-.51.5H29.2c-.4,0-.53-.09-.53-.51q0-13.25,0-26.5c0-.44.14-.51.52-.5,2.52,0,5,0,7.56,0,.41,0,.52.1.51.51q0,6.62,0,13.25"/></g></g></svg>