<svg xmlns="http://www.w3.org/2000/svg" viewBox="0 0 155.56 48.55"><g id="Layer_2" data-name="Layer 2"><g id="Vrstva_1" data-name="Vrstva 1"><path d="M8.7.31,11.61,2c.66.4.79,1,.35,1.85-2.91,5-5.25,9.45-5.25,20.35C6.71,35.79,9.27,39.1,12,44.75c.44.84.35,1.46-.22,1.77l-3.4,1.76a1.74,1.74,0,0,1-.84.27,1.59,1.59,0,0,1-1.45-.84c-4-6.18-6-12-6-23.48,0-11,2-17,6-23.35A1.64,1.64,0,0,1,7.41,0,2.44,2.44,0,0,1,8.7.31"/><path d="M21.36,7.4A1.4,1.4,0,0,1,22.9,8.9V29.81a3.84,3.84,0,0,0,4.15,3.89,3.89,3.89,0,0,0,4.11-3.89V9.12c0-1.15.44-1.72,1.36-1.72h3.8a1.4,1.4,0,0,1,1.54,1.5V29.81C37.86,35.29,33.27,40,27.05,40S16.2,35.07,16.2,29.68V9.07c0-1.45.83-1.67,1.72-1.67Z"/><path d="M45.68,39.26c-.84,0-1.2-.62-1.2-1.55V9.12c0-1.15.45-1.72,1.37-1.72h9c6.53,0,10.68,4.45,10.68,9.57,0,5.3-5.16,9.45-10.11,9.45H53.49c-1.55,0-2.3.88-2.3,2.64V37.8c0,1-.44,1.46-1.28,1.46Zm9.26-19c2,0,3.75-1.24,3.75-3.22,0-2.26-1.59-3.4-4-3.4H53c-1.19,0-1.76.57-1.76,1.68v2.95c0,1.37.66,2,1.68,2Z"/><path d="M71.53,39.26c-.83,0-1.19-.62-1.19-1.55V9.12c0-1.15.44-1.72,1.37-1.72h9c6.53,0,10.68,4.45,10.68,9.57,0,5.3-5.16,9.45-10.11,9.45H79.35c-1.55,0-2.3.88-2.3,2.64V37.8c0,1-.44,1.46-1.28,1.46Zm9.27-19c2,0,3.75-1.24,3.75-3.22,0-2.26-1.59-3.4-4-3.4H78.81c-1.19,0-1.76.57-1.76,1.68v2.95c0,1.37.66,2,1.68,2Z"/><path d="M97.75,39.26c-1.28,0-1.55-.88-1.55-2.08V8.9c0-1,.4-1.5,1.15-1.5H113c.92,0,1.41.44,1.41,1.27v3.62c0,.93-.44,1.42-1.37,1.42h-8.21c-1.28,0-1.94.66-1.94,2v2.47c0,1.37.75,2,2.25,2h4.94c1.06,0,1.59.44,1.59,1.28v3.31q0,1.59-1.32,1.59h-6c-1,0-1.5.61-1.5,1.89v3c0,1.1.75,1.63,2.29,1.63h7.6c1.1,0,1.63.35,1.63,1v4.15c0,.75-.49,1.15-1.41,1.15Z"/><path d="M130.18,27.87c-.48-1-.88-1.23-1.54-1.23H127.4c-.66,0-1,.61-1,1.85V37.8c0,1-.35,1.46-1.37,1.46H121c-.84,0-1.28-.53-1.28-1.55V9.21c0-1.24.31-1.81,1.33-1.81H131.2A9.75,9.75,0,0,1,141,17.19a10.41,10.41,0,0,1-3.53,7.2c-1.06.84-1.1.84-.53,2.2L141,36.48c.31.84.13,1.28-.88,1.76l-3.49,1.55a1.24,1.24,0,0,1-1.59-.71Zm.31-7.54A3.45,3.45,0,0,0,134.2,17c0-1.72-1.46-3.26-3.93-3.26h-2.08a1.53,1.53,0,0,0-1.76,1.67v3c0,1.19.53,2,1.59,2Z"/><path d="M149.55.88c4,6.36,6,12.36,6,23.35,0,11.43-1.95,17.39-6.05,23.48a1.6,1.6,0,0,1-1.46.84,1.7,1.7,0,0,1-.83-.27l-3.4-1.76c-.58-.31-.66-.93-.22-1.77,2.69-5.65,5.25-9,5.25-20.52,0-10.9-2.34-15.31-5.25-20.35-.44-.84-.31-1.45.35-1.85L146.86.31A2.43,2.43,0,0,1,148.14,0a1.61,1.61,0,0,1,1.41.88"/></g></g></svg>