<svg xmlns="http://www.w3.org/2000/svg" viewBox="0 0 315.67 31.4"><g id="Layer_2" data-name="Layer 2"><g id="Vrstva_1" data-name="Vrstva 1"><path d="M17.21.07,0,5.86V0H17.21ZM.07,6.74c0,.84,1.37,1.61,3,1.61a5.35,5.35,0,0,0,1.67-.28C5.26,7.91,21.28,2.3,21.28,2.3v23S5.16,31,4.72,31.12a5.67,5.67,0,0,1-1.67.28c-1.65,0-3-.84-3-2.33V6.74Z"/><path d="M42.78,15.37c0,3.82-1.47,5.91-5.19,5.91s-5.26-2.09-5.26-5.91v-11h2.21V15.28c0,2.58.73,3.91,3.05,3.91s3-1.33,3-3.91V4.39h2.21Z"/><path d="M52.24,14a1.89,1.89,0,0,0-1.94-2.11A2,2,0,0,0,48.12,14v7.18H46V10.09h2.09V11a3.24,3.24,0,0,1,2.53-1c2.17,0,3.68,1.46,3.68,3.93v7.25H52.24Z"/><path d="M58.62,8a1.21,1.21,0,0,1-1.37-1.3A1.38,1.38,0,0,1,60,6.7c0,.88-.51,1.3-1.38,1.3m1.05,13.16H57.58V10.09h2.09Z"/><polygon points="61.3 10.09 63.62 10.09 66.37 18.37 69.09 10.09 71.41 10.09 67.37 21.16 65.34 21.16 61.3 10.09"/><path d="M74.13,16.47c.23,2,1.4,2.83,2.81,2.83a6.77,6.77,0,0,0,3.38-.81l.37,2a8.07,8.07,0,0,1-3.77.77c-2.79,0-5-1.72-5-5.56S74,10,76.6,10c3,0,4.65,2.14,4.65,5.37v1.12ZM79,14.79c0-1.93-1-2.95-2.44-2.95-1.15,0-2.24.65-2.47,2.95Z"/><path d="M88.66,12.4a3.14,3.14,0,0,0-1.3-.28c-.88,0-1.47.72-1.47,1.86v7.18H83.8V10.09h2.09v1.26a2.13,2.13,0,0,1,2-1.37,2.6,2.6,0,0,1,1,.21Z"/><polygon points="98.1 21.16 89.87 21.16 95.14 11.84 90.1 11.84 90.1 10.09 98.35 10.09 93.31 19.3 98.1 19.3 98.1 21.16"/><path d="M101.49,8a1.2,1.2,0,0,1-1.37-1.3,1.2,1.2,0,0,1,1.37-1.33,1.21,1.21,0,0,1,1.37,1.33A1.2,1.2,0,0,1,101.49,8m1,13.16h-2.09V10.09h2.09Z"/><path d="M111.11,20.91a3.77,3.77,0,0,1-1.81.37c-1.28,0-2.77-.49-2.77-2.91V11.84h-1.44V10.09h1.44V5.79l2.1-.23v4.53h1.81v1.75h-1.81v6.53c0,.79.41,1,.88,1a3.08,3.08,0,0,0,1.33-.35Z"/><path d="M118.9,20.19a3.29,3.29,0,0,1-2.65,1.09c-2.39,0-3.74-1.26-3.74-3.53s1.62-3.61,3.81-3.61a3.71,3.71,0,0,1,2.58.91V13.7c0-1.33-.88-1.82-2-1.82a8.31,8.31,0,0,0-3.1.68l-.23-1.91a9.29,9.29,0,0,1,3.56-.67c2.49,0,3.9,1.3,3.9,3.72v7.46H118.9Zm0-2.77c0-.86-1.05-1.44-2.16-1.44s-2,.46-2,1.77,1,1.62,2,1.62c1.21,0,2.16-.79,2.16-1.58Z"/><polygon points="132.73 21.16 132.73 6.49 128.66 6.49 128.66 4.4 139.01 4.4 139.01 6.49 134.94 6.49 134.94 21.16 132.73 21.16"/><path d="M143.24,21.28c-2.7,0-5.05-1.56-5.05-5.65S140.63,10,143.24,10s5,1.56,5,5.65-2.38,5.65-5,5.65m0-9.44c-1.65,0-2.84,1.3-2.84,3.79s1.23,3.67,2.84,3.67,2.84-1.28,2.84-3.67-1.19-3.79-2.84-3.79"/><path d="M163.26,14a1.88,1.88,0,0,0-1.93-2.11A2,2,0,0,0,159.14,14v7.18h-2.09V14a1.88,1.88,0,0,0-1.93-2.11A2,2,0,0,0,152.93,14v7.18h-2.09V10.09h2.09V11a3.27,3.27,0,0,1,2.54-1,3.43,3.43,0,0,1,3.09,1.63A3.69,3.69,0,0,1,161.67,10c2.17,0,3.68,1.46,3.68,3.93v7.25h-2.09Z"/><path d="M174.29,20.19a3.29,3.29,0,0,1-2.65,1.09c-2.39,0-3.74-1.26-3.74-3.53s1.63-3.61,3.81-3.61a3.69,3.69,0,0,1,2.58.91V13.7c0-1.33-.88-1.82-2-1.82a8.35,8.35,0,0,0-3.1.68l-.23-1.91a9.34,9.34,0,0,1,3.56-.67c2.49,0,3.91,1.3,3.91,3.72v7.46h-2.1Zm0-2.77c0-.86-1-1.44-2.16-1.44s-2,.46-2,1.77,1,1.62,2,1.62c1.21,0,2.16-.79,2.16-1.58ZM172.88,4.86h2.35L173,8.54h-1.65Z"/><path d="M182.59,21.28a8.63,8.63,0,0,1-3.63-.79l.37-2a7.68,7.68,0,0,0,3.26.79c1,0,1.91-.28,1.91-1.28s-1.07-1.25-2.26-1.55c-1.53-.4-3.3-.89-3.3-3.19S180.5,10,183.1,10a8.67,8.67,0,0,1,3.37.65l-.34,1.95a6.6,6.6,0,0,0-3-.74c-1.26,0-2,.42-2,1.42,0,.79.9,1,2,1.34,1.63.45,3.65,1,3.65,3.38,0,2.11-1.23,3.3-4.16,3.3m-3-16.42h1.86l1.42,2.07,1.42-2.07h1.86L184,8.54h-2.23Z"/><path d="M190.87,16.47c.23,2,1.39,2.83,2.81,2.83a6.73,6.73,0,0,0,3.37-.81l.37,2a8.06,8.06,0,0,1-3.76.77c-2.79,0-5-1.72-5-5.56S190.7,10,193.33,10c3,0,4.65,2.14,4.65,5.37v1.12Zm4.9-1.68c0-1.93-1-2.95-2.44-2.95-1.14,0-2.23.65-2.46,2.95Z"/><path d="M210.53,21.16h-4.65V4.4h5c3.09,0,4.91,1.69,4.91,4.46a3.76,3.76,0,0,1-2.4,3.63,4.06,4.06,0,0,1,2.51,3.86c0,3-2.07,4.81-5.37,4.81m.37-14.67h-2.81v5h2.51c1.72,0,2.86-.84,2.86-2.49a2.31,2.31,0,0,0-2.56-2.49m-.3,7.07h-2.51v5.51h2.51c1.74,0,3-.95,3-2.67a2.74,2.74,0,0,0-3-2.84"/><path d="M224.39,20.19a3.31,3.31,0,0,1-2.65,1.09c-2.4,0-3.75-1.26-3.75-3.53s1.63-3.61,3.81-3.61a3.74,3.74,0,0,1,2.59.91V13.7c0-1.33-.89-1.82-2-1.82a8.29,8.29,0,0,0-3.09.68L219,10.65a9.34,9.34,0,0,1,3.56-.67c2.49,0,3.91,1.3,3.91,3.72v7.46h-2.09Zm0-2.77c0-.86-1-1.44-2.17-1.44s-2,.46-2,1.77,1,1.62,2,1.62c1.21,0,2.17-.79,2.17-1.58Z"/><path d="M234.59,20.91a3.77,3.77,0,0,1-1.81.37c-1.28,0-2.77-.49-2.77-2.91V11.84h-1.44V10.09H230V5.79l2.09-.23v4.53h1.82v1.75H232.1v6.53c0,.79.42,1,.89,1a3,3,0,0,0,1.32-.35Z"/><path d="M237.73,8a1.21,1.21,0,0,1-1.38-1.3,1.38,1.38,0,0,1,2.75,0A1.2,1.2,0,0,1,237.73,8m1,13.16h-2.09V10.09h2.09Z"/><polygon points="245.75 10.09 248.07 10.09 250.81 18.37 253.53 10.09 255.86 10.09 251.82 21.16 249.79 21.16 245.75 10.09"/><path d="M258.58,16.47c.23,2,1.39,2.83,2.81,2.83a6.77,6.77,0,0,0,3.38-.81l.37,2a8.1,8.1,0,0,1-3.77.77c-2.79,0-5.05-1.72-5.05-5.56S258.42,10,261,10c3,0,4.65,2.14,4.65,5.37v1.12Zm4.91-1.68c0-1.93-1-2.95-2.45-2.95-1.14,0-2.23.65-2.46,2.95Z"/><polygon points="282.17 21.16 272.43 21.16 279.36 6.49 272.89 6.49 272.89 4.4 282.66 4.4 275.71 19.07 282.17 19.07 282.17 21.16"/><rect x="284.75" y="4.39" width="2.09" height="16.77"/><path d="M291.51,4.86h2.36l-2.19,3.68H290Zm.68,16.3H290.1V10.09h2.09Z"/><path d="M301.65,14a1.88,1.88,0,0,0-1.93-2.11A2,2,0,0,0,297.54,14v7.18h-2.09V10.09h2.09V11a3.24,3.24,0,0,1,2.53-1c2.16,0,3.68,1.46,3.68,3.93v7.25h-2.1Z"/><path d="M308.56,16.47c.23,2,1.39,2.83,2.81,2.83a6.73,6.73,0,0,0,3.37-.81l.37,2a8.06,8.06,0,0,1-3.76.77c-2.79,0-5.05-1.72-5.05-5.56S308.39,10,311,10c3,0,4.65,2.14,4.65,5.37v1.12Zm-.84-11.61h1.86L311,6.93l1.41-2.07h1.87l-2.17,3.68h-2.23Zm5.74,9.93c0-1.93-.95-2.95-2.44-2.95-1.14,0-2.23.65-2.46,2.95Z"/></g></g></svg>