<svg width="32" height="32" viewBox="0 0 32 32" fill="none" xmlns="http://www.w3.org/2000/svg">
<g clip-path="url(#clip0_24_5)">
<path d="M32 0H0V32H32V0Z" fill="#141E34"/>
<mask id="mask0_24_5" style="mask-type:luminance" maskUnits="userSpaceOnUse" x="0" y="0" width="32" height="32">
<path d="M32 0H0V32H32V0Z" fill="white"/>
</mask>
<g mask="url(#mask0_24_5)">
<path d="M14.1999 11.2L7.3999 28.1L7.7999 28.3L14.1999 11.2Z" fill="#009AA3"/>
<path d="M15.1 12.1L8.5 28.5L8.8 28.7L15.1 12.1Z" fill="#009AA3"/>
<path d="M15.9 13L9.5 28.9L9.9 29.1L15.9 13Z" fill="#009AA3"/>
<path d="M16.8 13.8L10.5 29.3L10.9 29.5L16.8 13.8Z" fill="#009AA3"/>
<path d="M17.6999 14.7L11.5999 29.7L11.9999 29.9L17.6999 14.7Z" fill="#009AA3"/>
<path d="M18.4999 15.6L12.5999 30.1L12.9999 30.3L18.4999 15.6Z" fill="#009AA3"/>
<path d="M19.4 16.4L13.7 30.6L14.1 30.7L19.4 16.4Z" fill="#009AA3"/>
<path d="M20.2 17.3L14.7 31L15.1 31.1L20.2 17.3Z" fill="#009AA3"/>
<path d="M21.0998 18.2L15.7998 31.4L16.0998 31.5L21.0998 18.2Z" fill="#009AA3"/>
<path d="M21.9998 19.1L16.7998 31.8L17.1998 31.9L21.9998 19.1Z" fill="#009AA3"/>
<path d="M22.7998 19.9L17.7998 32.2L18.1998 32.3L22.7998 19.9Z" fill="#009AA3"/>
<path d="M23.6999 20.8L18.8999 32.6L19.2999 32.7L23.6999 20.8Z" fill="#009AA3"/>
<path d="M24.5999 21.7L19.8999 33L20.2999 33.1L24.5999 21.7Z" fill="#009AA3"/>
<path d="M25.4 22.5L21 33.4L21.4 33.5L25.4 22.5Z" fill="#009AA3"/>
<path d="M26.3 23.4L22 33.8L22.4 34L26.3 23.4Z" fill="#009AA3"/>
<path d="M27.0999 24.3L23.0999 34.2L23.3999 34.4L27.0999 24.3Z" fill="#009AA3"/>
<path d="M27.9999 25.2L24.0999 34.6L24.4999 34.8L27.9999 25.2Z" fill="#009AA3"/>
<path d="M28.8999 26L25.0999 35L25.4999 35.2L28.8999 26Z" fill="#009AA3"/>
<path d="M29.7 26.9L26.2 35.4L26.6 35.6L29.7 26.9Z" fill="#009AA3"/>
<path d="M30.6 27.8L27.2 35.8L27.6 36L30.6 27.8Z" fill="#009AA3"/>
<path d="M31.4998 28.6L28.2998 36.2L28.6998 36.4L31.4998 28.6Z" fill="#009AA3"/>
<path d="M32.2998 29.5L29.2998 36.6L29.6998 36.8L32.2998 29.5Z" fill="#009AA3"/>
<path d="M33.1999 30.4L30.3999 37.1L30.6999 37.2L33.1999 30.4Z" fill="#009AA3"/>
<path d="M33.9999 31.2L31.3999 37.5L31.7999 37.6L33.9999 31.2Z" fill="#009AA3"/>
</g>
<mask id="mask1_24_5" style="mask-type:luminance" maskUnits="userSpaceOnUse" x="0" y="0" width="32" height="32">
<path d="M32 0H0V32H32V0Z" fill="white"/>
</mask>
<g mask="url(#mask1_24_5)">
<path d="M8 -15.7L1.5 0.299988L1.9 0.399988L8 -15.7Z" fill="#009AA3"/>
<path d="M8.79985 -14.8L2.59985 0.699951L2.89985 0.799952L8.79985 -14.8Z" fill="#009AA3"/>
<path d="M9.69985 -13.9L3.59985 1.09998L3.99985 1.19998L9.69985 -13.9Z" fill="#009AA3"/>
<path d="M10.4999 -13.1L4.59985 1.49996L4.99985 1.59996L10.4999 -13.1Z" fill="#009AA3"/>
<path d="M11.4 -12.2L5.69995 1.89999L6.09995 2.09999L11.4 -12.2Z" fill="#009AA3"/>
<path d="M12.3 -11.3L6.69995 2.29995L7.09995 2.49995L12.3 -11.3Z" fill="#009AA3"/>
<path d="M13.0998 -10.5L7.7998 2.7L8.1998 2.9L13.0998 -10.5Z" fill="#009AA3"/>
<path d="M13.9998 -9.60004L8.7998 3.09996L9.1998 3.29996L13.9998 -9.60004Z" fill="#009AA3"/>
<path d="M14.8999 -8.70001L9.8999 3.49999L10.1999 3.69999L14.8999 -8.70001Z" fill="#009AA3"/>
<path d="M15.6999 -7.80005L10.8999 3.89995L11.2999 4.09995L15.6999 -7.80005Z" fill="#009AA3"/>
<path d="M16.5999 -7L11.8999 4.3L12.2999 4.5L16.5999 -7Z" fill="#009AA3"/>
<path d="M17.4 -6.10004L13 4.79996L13.4 4.89996L17.4 -6.10004Z" fill="#009AA3"/>
<path d="M18.3 -5.20001L14 5.19999L14.4 5.29999L18.3 -5.20001Z" fill="#009AA3"/>
<path d="M19.1999 -4.40002L15.0999 5.59998L15.4999 5.69998L19.1999 -4.40002Z" fill="#009AA3"/>
<path d="M19.9999 -3.5L16.0999 6L16.4999 6.1L19.9999 -3.5Z" fill="#009AA3"/>
<path d="M20.9 -2.60004L17.2 6.39996L17.5 6.49996L20.9 -2.60004Z" fill="#009AA3"/>
<path d="M21.7999 -1.80005L18.2 6.79995L18.6 6.89995L21.7999 -1.80005Z" fill="#009AA3"/>
<path d="M22.5998 -0.900024L19.2998 7.19998L19.5998 7.29998L22.5998 -0.900024Z" fill="#009AA3"/>
<path d="M23.4998 0L20.2998 7.6L20.6998 7.7L23.4998 0Z" fill="#009AA3"/>
<path d="M24.2998 0.899963L21.2998 7.99996L21.6998 8.19996L24.2998 0.899963Z" fill="#009AA3"/>
<path d="M25.1999 1.69995L22.3999 8.39995L22.7999 8.59995L25.1999 1.69995Z" fill="#009AA3"/>
<path d="M26.0999 2.59998L23.3999 8.79998L23.7999 8.99998L26.0999 2.59998Z" fill="#009AA3"/>
<path d="M26.9 3.5L24.5 9.2L24.8 9.4L26.9 3.5Z" fill="#009AA3"/>
<path d="M27.8 4.29999L25.5 9.59999L25.9 9.79999L27.8 4.29999Z" fill="#009AA3"/>
<path d="M28.6999 5.19995L26.5999 9.99995L26.8999 10.2L28.6999 5.19995Z" fill="#009AA3"/>
<path d="M29.4999 6.09998L27.5999 10.4L27.9999 10.6L29.4999 6.09998Z" fill="#009AA3"/>
<path d="M30.3999 7L28.5999 10.8L28.9999 11L30.3999 7Z" fill="#009AA3"/>
<path d="M31.2 7.79999L29.7 11.3L30.1 11.4L31.2 7.79999Z" fill="#009AA3"/>
<path d="M32.0999 8.69995L30.7 11.7L31.1 11.8L32.0999 8.69995Z" fill="#009AA3"/>
<path d="M32.9998 9.59998L31.7998 12.1L32.0998 12.2L32.9998 9.59998Z" fill="#009AA3"/>
</g>
<mask id="mask2_24_5" style="mask-type:luminance" maskUnits="userSpaceOnUse" x="0" y="0" width="32" height="32">
<path d="M32 0H0V32H32V0Z" fill="white"/>
</mask>
<g mask="url(#mask2_24_5)">
<path d="M0.300147 12L-4.09985 22.9L-3.69985 23L0.300147 12Z" fill="#009AA3"/>
<path d="M1.20015 12.9L-3.09985 23.3L-2.69985 23.4L1.20015 12.9Z" fill="#009AA3"/>
<path d="M2.1 13.8L-2 23.7L-1.6 23.8L2.1 13.8Z" fill="#009AA3"/>
<path d="M2.9 14.6L-1 24.1L-0.6 24.2L2.9 14.6Z" fill="#009AA3"/>
<path d="M3.8001 15.5L0.100098 24.5L0.400098 24.6L3.8001 15.5Z" fill="#009AA3"/>
<path d="M4.7001 16.4L1.1001 24.9L1.5001 25.1L4.7001 16.4Z" fill="#009AA3"/>
<path d="M5.49995 17.2L2.19995 25.3L2.49995 25.5L5.49995 17.2Z" fill="#009AA3"/>
<path d="M6.39995 18.1L3.19995 25.7L3.59995 25.9L6.39995 18.1Z" fill="#009AA3"/>
<path d="M7.19995 19L4.19995 26.1L4.59995 26.3L7.19995 19Z" fill="#009AA3"/>
<path d="M8.10005 19.9L5.30005 26.5L5.70005 26.7L8.10005 19.9Z" fill="#009AA3"/>
<path d="M9.00005 20.7L6.30005 26.9L6.70005 27.1L9.00005 20.7Z" fill="#009AA3"/>
<path d="M9.80015 21.6L7.40015 27.3L7.70015 27.5L9.80015 21.6Z" fill="#009AA3"/>
<path d="M10.7001 22.5L8.40015 27.8L8.80015 27.9L10.7001 22.5Z" fill="#009AA3"/>
<path d="M11.6 23.3L9.5 28.2L9.8 28.3L11.6 23.3Z" fill="#009AA3"/>
<path d="M12.4 24.2L10.5 28.6L10.9 28.7L12.4 24.2Z" fill="#009AA3"/>
<path d="M13.3001 25.1L11.6001 29L11.9001 29.1L13.3001 25.1Z" fill="#009AA3"/>
<path d="M14.1001 25.9L12.6001 29.4L13.0001 29.5L14.1001 25.9Z" fill="#009AA3"/>
<path d="M15.0001 26.8L13.6001 29.8L14.0001 29.9L15.0001 26.8Z" fill="#009AA3"/>
<path d="M15.9 27.7L14.7 30.2L15 30.3L15.9 27.7Z" fill="#009AA3"/>
</g>
<mask id="mask3_24_5" style="mask-type:luminance" maskUnits="userSpaceOnUse" x="0" y="0" width="32" height="32">
<path d="M32 0H0V32H32V0Z" fill="white"/>
</mask>
<g mask="url(#mask3_24_5)">
<path d="M14 43.1L18.8 31.8L18.4 31.7L14 43.1Z" fill="#E63342"/>
<path d="M13.2 42.2L17.7 31.4L17.4 31.2L13.2 42.2Z" fill="#E63342"/>
<path d="M12.3 41.3L16.7 31L16.3 30.8L12.3 41.3Z" fill="#E63342"/>
<path d="M11.5 40.4L15.7 30.6L15.3 30.4L11.5 40.4Z" fill="#E63342"/>
<path d="M10.6001 39.6L14.6001 30.1L14.3001 30L10.6001 39.6Z" fill="#E63342"/>
<path d="M9.80005 38.7L13.6 29.7L13.2 29.6L9.80005 38.7Z" fill="#E63342"/>
<path d="M8.90015 37.8L12.6001 29.3L12.2001 29.2L8.90015 37.8Z" fill="#E63342"/>
<path d="M8.1001 36.9L11.5001 28.9L11.1001 28.7L8.1001 36.9Z" fill="#E63342"/>
<path d="M7.19995 36L10.5 28.5L10.1 28.3L7.19995 36Z" fill="#E63342"/>
<path d="M6.40015 35.2L9.40015 28.1L9.10015 27.9L6.40015 35.2Z" fill="#E63342"/>
<path d="M5.5 34.3L8.4 27.6L8 27.5L5.5 34.3Z" fill="#E63342"/>
<path d="M4.69995 33.4L7.39995 27.2L6.99995 27.1L4.69995 33.4Z" fill="#E63342"/>
<path d="M3.80005 32.5L6.30005 26.8L6.00005 26.7L3.80005 32.5Z" fill="#E63342"/>
<path d="M2.90015 31.6L5.30015 26.4L4.90015 26.2L2.90015 31.6Z" fill="#E63342"/>
<path d="M2.1001 30.8L4.2001 26L3.9001 25.8L2.1001 30.8Z" fill="#E63342"/>
<path d="M1.19995 29.9L3.19995 25.5L2.79995 25.4L1.19995 29.9Z" fill="#E63342"/>
<path d="M0.400146 29L2.20015 25.1L1.80015 25L0.400146 29Z" fill="#E63342"/>
<path d="M-0.5 28.1L1.1 24.7L0.8 24.6L-0.5 28.1Z" fill="#E63342"/>
<path d="M-1.30005 27.2L0.0999511 24.3L-0.300049 24.1L-1.30005 27.2Z" fill="#E63342"/>
</g>
<mask id="mask4_24_5" style="mask-type:luminance" maskUnits="userSpaceOnUse" x="0" y="0" width="32" height="32">
<path d="M32 0H0V32H32V0Z" fill="white"/>
</mask>
<g mask="url(#mask4_24_5)">
<path d="M5.09985 20.8L12.0999 4.00002L11.7999 3.90002L5.09985 20.8Z" fill="#E63342"/>
<path d="M4.30005 20L11.1 3.6L10.7 3.5L4.30005 20Z" fill="#E63342"/>
<path d="M3.3999 19.1L10.0999 3.2L9.6999 3L3.3999 19.1Z" fill="#E63342"/>
<path d="M2.59985 18.2L8.99985 2.80004L8.59985 2.60004L2.59985 18.2Z" fill="#E63342"/>
<path d="M1.69995 17.3L7.99995 2.40001L7.59995 2.20001L1.69995 17.3Z" fill="#E63342"/>
<path d="M0.899902 16.4L6.8999 1.90005L6.5999 1.80005L0.899902 16.4Z" fill="#E63342"/>
<path d="M0 15.6L5.9 1.50002L5.5 1.40002L0 15.6Z" fill="#E63342"/>
<path d="M-0.800049 14.7L4.89995 1.1L4.49995 1L-0.800049 14.7Z" fill="#E63342"/>
<path d="M-1.69995 13.8L3.80005 0.7L3.50005 0.5L-1.69995 13.8Z" fill="#E63342"/>
<path d="M-2.5 12.9L2.8 0.300037L2.4 0.100037L-2.5 12.9Z" fill="#E63342"/>
<path d="M-3.40015 12L1.79985 -0.199988L1.39985 -0.299988L-3.40015 12Z" fill="#E63342"/>
<path d="M-4.19995 11.2L0.700048 -0.599951L0.300049 -0.699951L-4.19995 11.2Z" fill="#E63342"/>
</g>
<mask id="mask5_24_5" style="mask-type:luminance" maskUnits="userSpaceOnUse" x="0" y="0" width="32" height="32">
<path d="M32 0H0V32H32V0Z" fill="white"/>
</mask>
<g mask="url(#mask5_24_5)">
<path d="M25.7 28.4L32.7 11.6L32.2999 11.4L25.7 28.4Z" fill="#009AA3"/>
<path d="M24.8 27.5L31.6 11.2L31.3 11L24.8 27.5Z" fill="#009AA3"/>
<path d="M24 26.6L30.6 10.8L30.2 10.6L24 26.6Z" fill="#009AA3"/>
<path d="M23.1001 25.8L29.6001 10.3L29.2001 10.2L23.1001 25.8Z" fill="#009AA3"/>
<path d="M22.3 24.9L28.5 9.89999L28.1 9.79999L22.3 24.9Z" fill="#009AA3"/>
<path d="M21.4001 24L27.5001 9.49999L27.1001 9.29999L21.4001 24Z" fill="#009AA3"/>
<path d="M20.6001 23.1L26.5001 9.10003L26.1001 8.90002L20.6001 23.1Z" fill="#009AA3"/>
<path d="M19.7 22.2L25.4 8.7L25 8.5L19.7 22.2Z" fill="#009AA3"/>
<path d="M18.9001 21.4L24.4001 8.19998L24.0001 8.09998L18.9001 21.4Z" fill="#009AA3"/>
<path d="M18 20.5L23.3 7.80001L23 7.70001L18 20.5Z" fill="#009AA3"/>
<path d="M17.2 19.6L22.2999 7.39999L21.9 7.29999L17.2 19.6Z" fill="#009AA3"/>
<path d="M16.3 18.7L21.3 6.99999L20.9 6.79999L16.3 18.7Z" fill="#009AA3"/>
<path d="M15.5 17.8L20.2 6.60002L19.8 6.40002L15.5 17.8Z" fill="#009AA3"/>
<path d="M14.6001 17L19.2001 6.2L18.8001 6L14.6001 17Z" fill="#009AA3"/>
<path d="M13.8 16.1L18.1 5.69998L17.8 5.59998L13.8 16.1Z" fill="#009AA3"/>
<path d="M12.9001 15.2L17.1001 5.30001L16.7001 5.20001L12.9001 15.2Z" fill="#009AA3"/>
<path d="M12.1001 14.3L16.1001 4.90001L15.7001 4.70001L12.1001 14.3Z" fill="#009AA3"/>
<path d="M11.2 13.4L15 4.49999L14.7 4.29999L11.2 13.4Z" fill="#009AA3"/>
<path d="M10.3 12.6L14 4.10002L13.6 3.90002L10.3 12.6Z" fill="#009AA3"/>
<path d="M9.5 11.7L12.9 3.6L12.6 3.5L9.5 11.7Z" fill="#009AA3"/>
<path d="M8.6001 10.8L11.9001 3.19998L11.5001 3.09998L8.6001 10.8Z" fill="#009AA3"/>
<path d="M7.80005 9.90001L10.9 2.80001L10.5 2.70001L7.80005 9.90001Z" fill="#009AA3"/>
<path d="M6.90015 9.00001L9.80015 2.40001L9.50015 2.20001L6.90015 9.00001Z" fill="#009AA3"/>
<path d="M6.1001 8.19999L8.8001 1.99999L8.4001 1.79999L6.1001 8.19999Z" fill="#009AA3"/>
<path d="M5.19995 7.30002L7.79995 1.60002L7.39995 1.40002L5.19995 7.30002Z" fill="#009AA3"/>
<path d="M4.40015 6.4L6.70015 1.1L6.40015 1L4.40015 6.4Z" fill="#009AA3"/>
<path d="M3.5 5.49998L5.7 0.699976L5.3 0.599976L3.5 5.49998Z" fill="#009AA3"/>
<path d="M2.69995 4.59998L4.59995 0.299976L4.29995 0.0999756L2.69995 4.59998Z" fill="#009AA3"/>
<path d="M1.80005 3.80001L3.60005 -0.0999878L3.20005 -0.299988L1.80005 3.80001Z" fill="#009AA3"/>
<path d="M1 2.89999L2.6 -0.500012L2.2 -0.700012L1 2.89999Z" fill="#009AA3"/>
<path d="M0.100098 2.00002L1.5001 -0.999976L1.2001 -1.09998L0.100098 2.00002Z" fill="#009AA3"/>
<path d="M-0.699951 1.1L0.500049 -1.4L0.100049 -1.5L-0.699951 1.1Z" fill="#009AA3"/>
</g>
<path d="M29.9 25.8C30.2865 25.8 30.6 25.4866 30.6 25.1C30.6 24.7134 30.2865 24.4 29.9 24.4C29.5134 24.4 29.2 24.7134 29.2 25.1C29.2 25.4866 29.5134 25.8 29.9 25.8Z" fill="white"/>
<path d="M26.2 6.10001C26.5866 6.10001 26.9 5.78661 26.9 5.40001C26.9 5.01341 26.5866 4.70001 26.2 4.70001C25.8134 4.70001 25.5 5.01341 25.5 5.40001C25.5 5.78661 25.8134 6.10001 26.2 6.10001Z" fill="#E63342"/>
<path d="M8.70005 12.6L8.50005 13.7H6.80005L5.90005 18.9H4.60005L5.50005 13.7H3.80005L4.00005 12.6H8.70005Z" fill="white"/>
<path d="M13.3001 12.6H14.6001L13.5001 18.9H12.2001L12.6001 16.3H10.3001L9.9001 18.9H8.6001L9.7001 12.6H11.0001L10.5001 15.2H12.8001L13.3001 12.6Z" fill="white"/>
<path d="M15.1 15.7C15.4 13.9 17.1 12.4 18.9 12.4C20.7 12.4 21.8 13.9 21.5 15.7C21.2 17.5 19.5 19 17.7 19C16 19 14.8 17.5 15.1 15.7ZM20.3 15.7C20.5 14.6 19.9 13.6 18.7 13.6C17.6 13.6 16.6 14.5 16.4 15.7C16.2 16.8 16.8 17.8 18 17.8C19.1 17.8 20.1 16.9 20.3 15.7Z" fill="white"/>
<path d="M26.7 12.6H28L26.9 18.9H25.7999L24.2 15L23.5 18.9H22.2L23.2999 12.6H24.5L26.1 16.5L26.7 12.6Z" fill="white"/>
<path d="M4.0001 24.5L4.7001 20.4H6.0001L5.30011 24.4C5.10011 25.3 5.6001 25.6 6.2001 25.6C6.8001 25.6 7.4001 25.3 7.5001 24.4L8.2001 20.4H9.5001L8.80011 24.5C8.5001 25.9 7.3001 26.8 6.0001 26.8C4.7001 26.8 3.7001 25.9 4.0001 24.5Z" fill="white"/>
<path d="M15.1002 20.4L14.9002 21.5H13.2002L12.3002 26.7H11.0002L11.9002 21.5H10.2002L10.4002 20.4H15.1002Z" fill="white"/>
<path d="M19 23.4C19.8 23.5 20 24.2 19.9 25C19.7 25.9 19 26.8 17.6 26.8H15L16.1 20.5H18.6C19.7 20.5 20.3 21.2 20.2 22.1C20 22.5 19.7 23.2 19 23.4ZM18 24H16.7L16.4 25.6H17.6C18.2 25.6 18.5 25.2 18.6 24.8C18.7 24.4 18.6 24 18 24ZM18.3 21.6H17.1L16.9 23H18C18.4 23 18.7 22.7 18.8 22.3C18.9 21.9 18.7 21.6 18.3 21.6Z" fill="white"/>
<path d="M4.19995 11L5.29995 4.70001H6.59995L5.49995 11H4.19995Z" fill="white"/>
<path d="M10.6 4.80001C12.4 4.80001 13.2 6.20001 12.9 8.00001C12.5 9.70001 11.3 11 9.5 11H7L8.1 4.70001H10.6V4.80001ZM10.4 5.90001H9.2L8.5 9.90001H9.7C10.7 9.90001 11.5 9.00001 11.6 7.90001C11.8 6.80001 11.4 5.90001 10.4 5.90001Z" fill="white"/>
<path d="M18.3 5.90001H15.6L15.3 7.40001H17.6L17.4 8.50001H15.1L15 9.90001H17.8L17.5 11H13.5L14.6 4.70001H18.5L18.3 5.90001Z" fill="white"/>
<path d="M22.5999 11L22.3999 9.50001H19.9999L19.2999 11H17.8999L21.3999 4.70001H22.7999L23.9999 11H22.5999ZM20.5999 8.40001H22.1999L21.7999 6.00001L20.5999 8.40001Z" fill="white"/>
</g>
<defs>
<clipPath id="clip0_24_5">
<rect width="32" height="32" fill="white"/>
</clipPath>
</defs>
</svg>
