<svg width="26" height="26" viewBox="0 0 26 26" fill="none" xmlns="http://www.w3.org/2000/svg">
<g clip-path="url(#clip0_2642_17)">
<path d="M25.2102 12.6109C25.2115 10.2003 24.5218 7.8399 23.2229 5.80924C21.924 3.77857 20.0702 2.16277 17.8812 1.15324C15.6922 0.143712 13.2597 -0.217239 10.8719 0.113149C8.48411 0.443536 6.24103 1.45142 4.4084 3.01739C2.57576 4.58337 1.23038 6.64182 0.531631 8.94889C-0.167119 11.256 -0.189957 13.715 0.465823 16.0346C1.1216 18.3543 2.42852 20.4374 4.23175 22.0371C6.03498 23.6368 8.25896 24.6862 10.6402 25.0609V16.2509H7.44023V12.6109H10.6402V9.83089C10.6402 6.67089 12.5202 4.92089 15.4002 4.92089C16.3451 4.93398 17.2878 5.01755 18.2202 5.17089V8.27089H16.6302C16.3606 8.2426 16.0881 8.27489 15.8326 8.3654C15.5771 8.4559 15.345 8.60234 15.1534 8.79402C14.9617 8.9857 14.8152 9.21777 14.7247 9.47328C14.6342 9.7288 14.6019 10.0013 14.6302 10.2709V12.6409H18.1202L17.5602 16.2809H14.5802V25.0909C17.5487 24.6189 20.251 23.1022 22.2 20.814C24.149 18.5258 25.2165 15.6166 25.2102 12.6109Z" fill="white"/>
<path d="M17.5104 16.2499L18.0704 12.6099H14.5804V10.2399C14.5521 9.97033 14.5844 9.69783 14.6749 9.44231C14.7654 9.1868 14.9119 8.95473 15.1036 8.76305C15.2952 8.57137 15.5273 8.42493 15.7828 8.33443C16.0383 8.24392 16.3108 8.21163 16.5804 8.23992H18.1704V5.16992C17.238 5.01658 16.2953 4.93301 15.3504 4.91992C12.4704 4.91992 10.5904 6.66992 10.5904 9.82992V12.6099H7.44043V16.2499H10.6404V25.0599C11.9461 25.2601 13.2747 25.2601 14.5804 25.0599V16.2499H17.5104Z" fill="black"/>
</g>
<defs>
<clipPath id="clip0_2642_17">
<rect width="25.21" height="25.21" fill="white"/>
</clipPath>
</defs>
</svg>
