<svg xmlns="http://www.w3.org/2000/svg" viewBox="0 0 25.21 25.21"><defs><style>.cls-1{fill:#fff;}</style></defs><g id="Layer_2" data-name="Layer 2"><g id="Vrstva_1" data-name="Vrstva 1"><path d="M25.21,12.61A12.61,12.61,0,1,0,10.64,25.06V16.25H7.44V12.61h3.2V9.83c0-3.16,1.88-4.91,4.76-4.91a19,19,0,0,1,2.82.25v3.1H16.63a1.82,1.82,0,0,0-2,2v2.37h3.49l-.56,3.64H14.58v8.81A12.61,12.61,0,0,0,25.21,12.61Z"/><path class="cls-1" d="M17.51,16.25l.56-3.64H14.58V10.24a1.82,1.82,0,0,1,2-2h1.59V5.17a19,19,0,0,0-2.82-.25c-2.88,0-4.76,1.75-4.76,4.91v2.78H7.44v3.64h3.2v8.81a13,13,0,0,0,3.94,0V16.25Z"/></g></g></svg>