<svg width="26" height="26" viewBox="0 0 26 26" fill="none" xmlns="http://www.w3.org/2000/svg">
<g clip-path="url(#clip0_2642_22)">
<path d="M25.2102 12.61C25.2102 15.1045 24.4704 17.5429 23.0844 19.6168C21.6983 21.6907 19.7283 23.307 17.4236 24.2611C15.1188 25.2152 12.5828 25.4643 10.1365 24.977C7.6901 24.4896 5.44323 23.2876 3.68009 21.5231C1.91695 19.7585 0.716749 17.5107 0.23132 15.064C-0.25411 12.6172 -0.00296295 10.0814 0.952992 7.77743C1.90895 5.47343 3.52676 3.50471 5.60178 2.12031C7.6768 0.735908 10.1158 -0.00197418 12.6102 3.96693e-06C14.2657 3.44555e-06 15.905 0.326243 17.4344 0.960078C18.9637 1.59391 20.3532 2.52292 21.5233 3.69399C22.6935 4.86507 23.6214 6.25526 24.254 7.78512C24.8866 9.31498 25.2116 10.9545 25.2102 12.61Z" fill="white"/>
<path d="M16.2996 7.64068C16.1271 7.64069 15.9585 7.69198 15.8153 7.78803C15.672 7.88407 15.5605 8.02054 15.4949 8.1801C15.4294 8.33965 15.4128 8.51509 15.4472 8.68412C15.4815 8.85315 15.5654 9.00815 15.6881 9.12941C15.8107 9.25068 15.9667 9.33274 16.1361 9.36517C16.3055 9.3976 16.4808 9.37894 16.6396 9.31155C16.7983 9.24417 16.9335 9.1311 17.0279 8.98672C17.1223 8.84234 17.1716 8.67316 17.1696 8.50068C17.1696 8.3869 17.1471 8.27425 17.1032 8.16925C17.0594 8.06425 16.9951 7.969 16.9142 7.88901C16.8333 7.80902 16.7373 7.74588 16.6318 7.70325C16.5263 7.66063 16.4134 7.63936 16.2996 7.64068Z" fill="black"/>
<path d="M12.4496 14.7208C11.9887 14.7208 11.5383 14.5841 11.1551 14.3281C10.7719 14.0721 10.4733 13.7082 10.2969 13.2824C10.1206 12.8567 10.0744 12.3882 10.1643 11.9362C10.2542 11.4842 10.4762 11.0691 10.802 10.7432C11.1279 10.4174 11.543 10.1955 11.995 10.1056C12.447 10.0156 12.9155 10.0618 13.3412 10.2381C13.767 10.4145 14.1309 10.7131 14.3869 11.0963C14.6429 11.4795 14.7796 11.93 14.7796 12.3908C14.7769 13.0079 14.5306 13.599 14.0942 14.0354C13.6578 14.4718 13.0667 14.7181 12.4496 14.7208ZM12.4496 8.8007C11.7296 8.8007 11.0259 8.93426 10.4273 9.33423C9.8287 9.7342 9.36215 10.3027 9.08665 10.9678C8.81115 11.6329 8.73906 12.3648 8.87951 13.0709C9.01996 13.777 9.36664 14.4256 9.8757 14.9346C10.3848 15.4437 11.0334 15.7904 11.7394 15.9308C12.4455 16.0713 13.1774 15.9992 13.8425 15.7237C14.5077 15.4482 15.0762 14.9817 15.4761 14.3831C15.8761 13.7845 16.0896 13.0807 16.0896 12.3608C16.0687 11.4093 15.6759 10.5039 14.9956 9.83847C14.3152 9.17305 13.4013 8.80047 12.4496 8.8007Z" fill="black"/>
<path d="M9.44 6.39C9.04179 6.38995 8.64756 6.46917 8.28028 6.62305C7.91301 6.77693 7.58004 7.00239 7.3008 7.28628C7.02157 7.57018 6.80164 7.90682 6.65385 8.27659C6.50606 8.64636 6.43336 9.04185 6.44 9.44V15.34C6.43324 15.7424 6.50751 16.142 6.65839 16.5151C6.80927 16.8882 7.03368 17.2272 7.31826 17.5117C7.60283 17.7963 7.94176 18.0207 8.31486 18.1716C8.68796 18.3225 9.0876 18.3968 9.49 18.39H15.39C16.1894 18.3743 16.9509 18.0464 17.5116 17.4764C18.0722 16.9064 18.3875 16.1395 18.39 15.34V9.44C18.3875 8.64046 18.0722 7.87364 17.5116 7.30362C16.9509 6.7336 16.1894 6.40567 15.39 6.39H9.44ZM15.34 19.8H9.44C8.26244 19.8 7.13311 19.3322 6.30045 18.4996C5.46778 17.6669 5 16.5376 5 15.36V9.44C5 8.26244 5.46778 7.13311 6.30045 6.30045C7.13311 5.46778 8.26244 5 9.44 5H15.34C16.5167 5.00264 17.6445 5.47127 18.4766 6.30336C19.3087 7.13545 19.7774 8.26325 19.78 9.44V15.34C19.7813 15.9244 19.6675 16.5033 19.4451 17.0437C19.2227 17.5841 18.896 18.0754 18.4837 18.4896C18.0714 18.9037 17.5816 19.2326 17.0422 19.4574C16.5028 19.6823 15.9244 19.7987 15.34 19.8Z" fill="black"/>
</g>
<defs>
<clipPath id="clip0_2642_22">
<rect width="25.21" height="25.21" fill="white"/>
</clipPath>
</defs>
</svg>
