<svg width="2022" height="2650" viewBox="0 0 2022 2650" fill="none" xmlns="http://www.w3.org/2000/svg">
<path d="M1026.23 1067.96L772.651 1697.79L786.95 1703.36L1026.23 1067.96Z" fill="#009BA4"/>
<path d="M1058.36 1100.43L811.529 1712.95L825.828 1718.52L1058.36 1100.43Z" fill="#009BA4"/>
<path d="M1090.48 1132.88L850.385 1728.08L864.684 1733.68L1090.48 1132.88Z" fill="#009BA4"/>
<path d="M1122.6 1165.36L889.241 1743.24L903.562 1748.81L1122.6 1165.36Z" fill="#009BA4"/>
<path d="M1154.72 1197.83L928.119 1758.4L942.417 1763.97L1154.72 1197.83Z" fill="#009BA4"/>
<path d="M1186.84 1230.28L966.974 1773.56L981.295 1779.13L1186.84 1230.28Z" fill="#009BA4"/>
<path d="M1218.96 1262.76L1005.83 1788.7L1020.15 1794.29L1218.96 1262.76Z" fill="#009BA4"/>
<path d="M1251.08 1295.21L1044.71 1803.86L1059.03 1809.45L1251.08 1295.21Z" fill="#009BA4"/>
<path d="M1283.21 1327.68L1083.56 1819.02L1097.88 1824.61L1283.21 1327.68Z" fill="#009BA4"/>
<path d="M1315.33 1360.16L1122.42 1834.17L1136.76 1839.74L1315.33 1360.16Z" fill="#009BA4"/>
<path d="M1347.45 1392.61L1161.27 1849.31L1175.62 1854.9L1347.45 1392.61Z" fill="#009BA4"/>
<path d="M1379.57 1425.08L1200.15 1864.47L1214.5 1870.06L1379.57 1425.08Z" fill="#009BA4"/>
<path d="M1411.69 1457.53L1239.01 1879.63L1253.35 1885.22L1411.69 1457.53Z" fill="#009BA4"/>
<path d="M1443.81 1490.01L1277.86 1894.79L1292.23 1900.38L1443.81 1490.01Z" fill="#009BA4"/>
<path d="M1475.93 1522.48L1316.74 1909.93L1331.09 1915.54L1475.93 1522.48Z" fill="#009BA4"/>
<path d="M1508.06 1554.93L1355.6 1925.08L1369.96 1930.68L1508.06 1554.93Z" fill="#009BA4"/>
<path d="M1540.18 1587.41L1394.45 1940.24L1408.82 1945.83L1540.18 1587.41Z" fill="#009BA4"/>
<path d="M1572.3 1619.86L1433.33 1955.4L1447.7 1960.99L1572.3 1619.86Z" fill="#009BA4"/>
<path d="M1604.42 1652.33L1472.19 1970.54L1486.55 1976.15L1604.42 1652.33Z" fill="#009BA4"/>
<path d="M1636.54 1684.81L1511.04 1985.7L1525.43 1991.31L1636.54 1684.81Z" fill="#009BA4"/>
<path d="M1668.66 1717.26L1549.92 2000.86L1564.29 2006.45L1668.66 1717.26Z" fill="#009BA4"/>
<path d="M1700.79 1749.73L1588.78 2016.02L1603.16 2021.61L1700.79 1749.73Z" fill="#009BA4"/>
<path d="M1732.91 1782.19L1627.63 2031.15L1642.02 2036.77L1732.91 1782.19Z" fill="#009BA4"/>
<path d="M1765.03 1814.66L1666.49 2046.31L1680.9 2051.93L1765.03 1814.66Z" fill="#009BA4"/>
<path d="M1797.15 1847.11L1705.36 2061.47L1719.75 2067.08L1797.15 1847.11Z" fill="#009BA4"/>
<path d="M1829.27 1879.58L1744.22 2076.63L1758.63 2082.24L1829.27 1879.58Z" fill="#009BA4"/>
<path d="M1861.39 1912.06L1783.08 2091.77L1797.49 2097.38L1861.39 1912.06Z" fill="#009BA4"/>
<path d="M1893.51 1944.51L1821.95 2106.92L1836.36 2112.54L1893.51 1944.51Z" fill="#009BA4"/>
<path d="M1925.64 1976.98L1860.81 2122.08L1875.22 2127.7L1925.64 1976.98Z" fill="#009BA4"/>
<path d="M1957.76 2009.44L1899.66 2137.24L1914.1 2142.86L1957.76 2009.44Z" fill="#009BA4"/>
<path d="M1989.88 2041.91L1938.54 2152.38L1952.95 2158.02L1989.88 2041.91Z" fill="#009BA4"/>
<path d="M2022 2074.38L1977.4 2167.54L1991.81 2173.15L2022 2074.38Z" fill="#009BA4"/>
<path d="M729.037 0L475.455 629.83L489.753 635.399L729.037 0Z" fill="#009BA4"/>
<path d="M761.159 32.474L514.31 644.966L528.609 650.536L761.159 32.474Z" fill="#009BA4"/>
<path d="M793.28 64.9255L553.188 660.125L567.465 665.695L793.28 64.9255Z" fill="#009BA4"/>
<path d="M825.402 97.3995L592.066 675.284L606.32 680.854L825.402 97.3995Z" fill="#009BA4"/>
<path d="M857.523 129.851L630.922 690.443L645.198 696.013L857.523 129.851Z" fill="#009BA4"/>
<path d="M889.645 162.325L669.8 705.602L684.054 711.149L889.645 162.325Z" fill="#009BA4"/>
<path d="M921.766 194.799L708.655 720.761L722.909 726.308L921.766 194.799Z" fill="#009BA4"/>
<path d="M953.888 227.251L747.533 735.92L761.765 741.467L953.888 227.251Z" fill="#009BA4"/>
<path d="M986.009 259.725L786.411 751.057L800.62 756.604L986.009 259.725Z" fill="#009BA4"/>
<path d="M1018.11 292.176L825.267 766.216L839.498 771.763L1018.11 292.176Z" fill="#009BA4"/>
<path d="M1050.23 324.65L864.145 781.375L878.354 786.922L1050.23 324.65Z" fill="#009BA4"/>
<path d="M1082.35 357.102L903.001 796.534L917.209 802.081L1082.35 357.102Z" fill="#009BA4"/>
<path d="M1114.47 389.576L941.879 811.693L956.065 817.217L1114.47 389.576Z" fill="#009BA4"/>
<path d="M1146.59 422.05L980.756 826.852L994.92 832.377L1146.59 422.05Z" fill="#009BA4"/>
<path d="M1178.72 454.501L1019.61 842.011L1033.8 847.536L1178.72 454.501Z" fill="#009BA4"/>
<path d="M1210.84 486.975L1058.49 857.148L1072.65 862.672L1210.84 486.975Z" fill="#009BA4"/>
<path d="M1242.96 519.427L1097.35 872.307L1111.51 877.831L1242.96 519.427Z" fill="#009BA4"/>
<path d="M1275.08 551.901L1136.22 887.466L1150.37 892.99L1275.08 551.901Z" fill="#009BA4"/>
<path d="M1307.2 584.375L1175.08 902.625L1189.22 908.127L1307.2 584.375Z" fill="#009BA4"/>
<path d="M1339.32 616.826L1213.96 917.784L1228.1 923.286L1339.32 616.826Z" fill="#009BA4"/>
<path d="M1371.44 649.3L1252.84 932.943L1266.95 938.445L1371.44 649.3Z" fill="#009BA4"/>
<path d="M1403.57 681.752L1291.69 948.102L1305.81 953.604L1403.57 681.752Z" fill="#009BA4"/>
<path d="M1435.69 714.226L1330.57 963.238L1344.67 968.74L1435.69 714.226Z" fill="#009BA4"/>
<path d="M1467.81 746.7L1369.42 978.397L1383.52 983.899L1467.81 746.7Z" fill="#009BA4"/>
<path d="M1499.93 779.151L1408.3 993.556L1422.4 999.058L1499.93 779.151Z" fill="#009BA4"/>
<path d="M1532.05 811.625L1447.18 1008.72L1461.25 1014.19L1532.05 811.625Z" fill="#009BA4"/>
<path d="M1564.17 844.077L1486.04 1023.87L1500.11 1029.35L1564.17 844.077Z" fill="#009BA4"/>
<path d="M1596.3 876.551L1524.91 1039.03L1538.97 1044.51L1596.3 876.551Z" fill="#009BA4"/>
<path d="M1628.42 909.025L1563.77 1054.19L1577.82 1059.67L1628.42 909.025Z" fill="#009BA4"/>
<path d="M1660.54 941.477L1602.65 1069.33L1616.7 1074.81L1660.54 941.477Z" fill="#009BA4"/>
<path d="M1692.66 973.951L1641.53 1084.49L1655.55 1089.97L1692.66 973.951Z" fill="#009BA4"/>
<path d="M1724.78 1006.4L1680.38 1099.65L1694.41 1105.13L1724.78 1006.4Z" fill="#009BA4"/>
<path d="M91.9945 675.554L-161.588 1305.36L-147.289 1310.93L91.9945 675.554Z" fill="#009BA4"/>
<path d="M124.116 708.005L-122.71 1320.52L-108.434 1326.09L124.116 708.005Z" fill="#009BA4"/>
<path d="M156.237 740.479L-83.832 1335.68L-69.5782 1341.23L156.237 740.479Z" fill="#009BA4"/>
<path d="M188.359 772.931L-44.954 1350.84L-30.7451 1356.38L188.359 772.931Z" fill="#009BA4"/>
<path d="M220.48 805.405L-6.07596 1366L8.11044 1371.54L220.48 805.405Z" fill="#009BA4"/>
<path d="M252.602 837.879L32.802 1381.16L46.9659 1386.68L252.602 837.879Z" fill="#009BA4"/>
<path d="M284.723 870.33L71.68 1396.31L85.8216 1401.84L284.723 870.33Z" fill="#009BA4"/>
<path d="M316.845 902.804L110.558 1411.47L124.677 1416.98L316.845 902.804Z" fill="#009BA4"/>
<path d="M348.966 935.256L149.436 1426.63L163.51 1432.14L348.966 935.256Z" fill="#009BA4"/>
<path d="M381.088 967.73L188.314 1441.79L202.366 1447.27L381.088 967.73Z" fill="#009BA4"/>
<path d="M413.209 1000.2L227.192 1456.95L241.221 1462.43L413.209 1000.2Z" fill="#009BA4"/>
<path d="M445.331 1032.66L266.07 1472.11L280.077 1477.57L445.331 1032.66Z" fill="#009BA4"/>
<path d="M477.452 1065.13L304.948 1487.27L318.933 1492.73L477.452 1065.13Z" fill="#009BA4"/>
<path d="M509.574 1097.58L343.826 1502.43L357.766 1507.86L509.574 1097.58Z" fill="#009BA4"/>
<path d="M541.695 1130.05L382.704 1517.59L396.621 1523.02L541.695 1130.05Z" fill="#009BA4"/>
<path d="M573.817 1162.51L421.582 1532.75L435.477 1538.18L573.817 1162.51Z" fill="#009BA4"/>
<path d="M605.938 1194.98L460.46 1547.91L474.332 1553.32L605.938 1194.98Z" fill="#009BA4"/>
<path d="M638.06 1227.45L499.338 1563.06L513.165 1568.48L638.06 1227.45Z" fill="#009BA4"/>
<path d="M670.181 1259.91L538.216 1578.22L552.021 1583.61L670.181 1259.91Z" fill="#009BA4"/>
<path d="M702.303 1292.38L577.094 1593.38L590.877 1598.77L702.303 1292.38Z" fill="#009BA4"/>
<path d="M734.424 1324.83L615.972 1608.54L629.732 1613.91L734.424 1324.83Z" fill="#009BA4"/>
<path d="M766.546 1357.31L654.85 1623.72L668.588 1629.07L766.546 1357.31Z" fill="#009BA4"/>
<path d="M798.667 1389.78L693.728 1638.88L707.421 1644.2L798.667 1389.78Z" fill="#009BA4"/>
<path d="M830.766 1422.23L732.606 1654.04L746.276 1659.36L830.766 1422.23Z" fill="#009BA4"/>
<path d="M862.888 1454.71L771.484 1669.2L785.132 1674.52L862.888 1454.71Z" fill="#009BA4"/>
<path d="M895.009 1487.16L810.362 1684.36L823.988 1689.66L895.009 1487.16Z" fill="#009BA4"/>
<path d="M927.131 1519.63L849.24 1699.52L862.843 1704.82L927.131 1519.63Z" fill="#009BA4"/>
<path d="M959.252 1552.1L888.118 1714.68L901.676 1719.95L959.252 1552.1Z" fill="#009BA4"/>
<path d="M991.374 1584.56L926.996 1729.84L940.532 1735.11L991.374 1584.56Z" fill="#009BA4"/>
<path d="M1023.5 1617.03L965.874 1744.99L979.387 1750.25L1023.5 1617.03Z" fill="#009BA4"/>
<path d="M1055.62 1649.48L1004.75 1760.15L1018.24 1765.41L1055.62 1649.48Z" fill="#009BA4"/>
<path d="M1087.74 1681.96L1043.63 1775.31L1057.1 1780.55L1087.74 1681.96Z" fill="#009BA4"/>
<path d="M1400.27 2650L1660.96 2023.09L1646.71 2017.36L1400.27 2650Z" fill="#E94D47"/>
<path d="M1368.53 2617.17L1622.24 2007.48L1608.03 2001.78L1368.53 2617.17Z" fill="#E94D47"/>
<path d="M1336.76 2584.36L1583.55 1991.9L1569.36 1986.17L1336.76 2584.36Z" fill="#E94D47"/>
<path d="M1305.02 2551.52L1544.85 1976.29L1530.68 1970.58L1305.02 2551.52Z" fill="#E94D47"/>
<path d="M1273.26 2518.69L1506.15 1960.7L1492.01 1955L1273.26 2518.69Z" fill="#E94D47"/>
<path d="M1241.52 2485.88L1467.43 1945.09L1453.33 1939.41L1241.52 2485.88Z" fill="#E94D47"/>
<path d="M1209.76 2453.04L1428.73 1929.51L1414.65 1923.83L1209.76 2453.04Z" fill="#E94D47"/>
<path d="M1178.02 2420.21L1390.03 1913.9L1375.98 1908.24L1178.02 2420.21Z" fill="#E94D47"/>
<path d="M1146.26 2387.4L1351.33 1898.31L1337.3 1892.65L1146.26 2387.4Z" fill="#E94D47"/>
<path d="M1114.5 2354.57L1312.61 1882.71L1298.63 1877.07L1114.5 2354.57Z" fill="#E94D47"/>
<path d="M1082.76 2321.73L1273.91 1867.12L1259.95 1861.48L1082.76 2321.73Z" fill="#E94D47"/>
<path d="M1050.99 2288.92L1235.21 1851.51L1221.25 1845.9L1050.99 2288.92Z" fill="#E94D47"/>
<path d="M1019.25 2256.09L1196.52 1835.93L1182.58 1830.31L1019.25 2256.09Z" fill="#E94D47"/>
<path d="M987.491 2223.26L1157.82 1820.32L1143.9 1814.73L987.491 2223.26Z" fill="#E94D47"/>
<path d="M955.751 2190.45L1119.1 1804.71L1105.22 1799.12L955.751 2190.45Z" fill="#E94D47"/>
<path d="M923.988 2157.61L1080.4 1789.12L1066.55 1783.53L923.988 2157.61Z" fill="#E94D47"/>
<path d="M892.248 2124.78L1041.7 1773.52L1027.87 1767.95L892.248 2124.78Z" fill="#E94D47"/>
<path d="M860.486 2091.97L1003 1757.93L989.197 1752.36L860.486 2091.97Z" fill="#E94D47"/>
<path d="M828.746 2059.13L964.281 1742.32L950.521 1736.78L828.746 2059.13Z" fill="#E94D47"/>
<path d="M796.984 2026.3L925.582 1726.74L911.845 1721.19L796.984 2026.3Z" fill="#E94D47"/>
<path d="M765.221 1993.49L886.884 1711.13L873.169 1705.6L765.221 1993.49Z" fill="#E94D47"/>
<path d="M733.482 1960.66L848.185 1695.54L834.493 1690.02L733.482 1960.66Z" fill="#E94D47"/>
<path d="M701.719 1927.82L809.487 1679.93L795.817 1674.43L701.719 1927.82Z" fill="#E94D47"/>
<path d="M669.979 1895.01L770.766 1664.35L757.118 1658.85L669.979 1895.01Z" fill="#E94D47"/>
<path d="M638.217 1862.18L732.067 1648.74L718.442 1643.26L638.217 1862.18Z" fill="#E94D47"/>
<path d="M606.477 1829.35L693.369 1633.13L679.766 1627.65L606.477 1829.35Z" fill="#E94D47"/>
<path d="M574.715 1796.54L654.67 1617.55L641.09 1612.07L574.715 1796.54Z" fill="#E94D47"/>
<path d="M542.975 1763.7L615.95 1601.94L602.414 1596.48L542.975 1763.7Z" fill="#E94D47"/>
<path d="M511.212 1730.87L577.251 1586.35L563.738 1580.9L511.212 1730.87Z" fill="#E94D47"/>
<path d="M479.45 1698.04L538.553 1570.74L525.062 1565.31L479.45 1698.04Z" fill="#E94D47"/>
<path d="M447.71 1665.22L499.854 1555.16L486.386 1549.72L447.71 1665.22Z" fill="#E94D47"/>
<path d="M415.948 1632.39L461.156 1539.55L447.71 1534.14L415.948 1632.39Z" fill="#E94D47"/>
<path d="M688.318 1426.95L948.994 800.037L934.763 794.31L688.318 1426.95Z" fill="#E94D47"/>
<path d="M656.579 1394.11L910.296 784.451L896.087 778.725L656.579 1394.11Z" fill="#E94D47"/>
<path d="M624.816 1361.3L871.597 768.843L857.411 763.139L624.816 1361.3Z" fill="#E94D47"/>
<path d="M593.054 1328.47L832.899 753.235L818.735 747.531L593.054 1328.47Z" fill="#E94D47"/>
<path d="M561.314 1295.64L794.178 737.649L780.059 731.945L561.314 1295.64Z" fill="#E94D47"/>
<path d="M529.552 1262.83L755.479 722.041L741.383 716.359L529.552 1262.83Z" fill="#E94D47"/>
<path d="M497.812 1229.99L716.781 706.456L702.707 700.774L497.812 1229.99Z" fill="#E94D47"/>
<path d="M466.049 1197.16L678.083 690.847L664.008 685.188L466.049 1197.16Z" fill="#E94D47"/>
<path d="M434.309 1164.35L639.362 675.262L625.333 669.602L434.309 1164.35Z" fill="#E94D47"/>
<path d="M402.547 1131.51L600.663 659.654L586.657 654.017L402.547 1131.51Z" fill="#E94D47"/>
<path d="M370.807 1098.68L561.965 644.068L547.98 638.431L370.807 1098.68Z" fill="#E94D47"/>
<path d="M339.045 1065.87L523.267 628.459L509.305 622.845L339.045 1065.87Z" fill="#E94D47"/>
<path d="M307.283 1033.04L484.546 612.874L470.629 607.259L307.283 1033.04Z" fill="#E94D47"/>
<path d="M275.543 1000.2L445.847 597.266L431.953 591.674L275.543 1000.2Z" fill="#E94D47"/>
<path d="M243.78 967.393L407.149 581.68L393.277 576.088L243.78 967.393Z" fill="#E94D47"/>
<path d="M212.04 934.56L368.45 566.072L354.601 560.48L212.04 934.56Z" fill="#E94D47"/>
<path d="M180.278 901.726L329.752 550.464L315.925 544.894L180.278 901.726Z" fill="#E94D47"/>
<path d="M148.538 868.915L291.031 534.878L277.249 529.308L148.538 868.915Z" fill="#E94D47"/>
<path d="M116.776 836.082L252.333 519.27L238.573 513.723L116.776 836.082Z" fill="#E94D47"/>
<path d="M85.0359 803.249L213.634 503.684L199.874 498.137L85.0359 803.249Z" fill="#E94D47"/>
<path d="M53.2736 770.438L174.936 488.076L161.198 482.551L53.2736 770.438Z" fill="#E94D47"/>
<path d="M21.5337 737.605L136.215 472.49L122.522 466.965L21.5337 737.605Z" fill="#E94D47"/>
<path d="M-10.2287 704.771L97.5164 456.882L83.8463 451.38L-10.2287 704.771Z" fill="#E94D47"/>
<path d="M-41.991 671.96L58.818 441.296L45.1703 435.794L-41.991 671.96Z" fill="#E94D47"/>
<path d="M-73.7309 639.127L20.1195 425.688L6.49423 420.208L-73.7309 639.127Z" fill="#E94D47"/>
<path d="M-105.493 606.294L-18.5789 410.102L-32.1818 404.622L-105.493 606.294Z" fill="#E94D47"/>
<path d="M-137.233 573.483L-57.2998 394.494L-70.8577 389.014L-137.233 573.483Z" fill="#E94D47"/>
<path d="M-168.996 540.649L-95.9982 378.886L-109.534 373.429L-168.996 540.649Z" fill="#E94D47"/>
<path d="M-200.735 507.816L-134.697 363.3L-148.21 357.843L-200.735 507.816Z" fill="#E94D47"/>
<path d="M-232.498 475.005L-173.395 347.692L-186.886 342.257L-232.498 475.005Z" fill="#E94D47"/>
<path d="M-264.238 442.172L-212.116 332.106L-225.584 326.671L-264.238 442.172Z" fill="#E94D47"/>
<path d="M-296 409.339L-250.814 316.498L-264.26 311.086L-296 409.339Z" fill="#E94D47"/>
<path d="M1453.76 1708.82L1714.43 1081.91L1700.2 1076.16L1453.76 1708.82Z" fill="#009BA4"/>
<path d="M1422.02 1675.98L1675.73 1066.3L1661.53 1060.57L1422.02 1675.98Z" fill="#009BA4"/>
<path d="M1390.25 1643.15L1637.04 1050.69L1622.85 1044.98L1390.25 1643.15Z" fill="#009BA4"/>
<path d="M1358.49 1610.34L1598.34 1035.1L1584.17 1029.4L1358.49 1610.34Z" fill="#009BA4"/>
<path d="M1326.75 1577.5L1559.62 1019.5L1545.5 1013.81L1326.75 1577.5Z" fill="#009BA4"/>
<path d="M1294.99 1544.67L1520.92 1003.91L1506.82 998.227L1294.99 1544.67Z" fill="#009BA4"/>
<path d="M1263.25 1511.84L1482.22 988.301L1468.15 982.642L1263.25 1511.84Z" fill="#009BA4"/>
<path d="M1231.49 1479.03L1443.52 972.715L1429.45 967.056L1231.49 1479.03Z" fill="#009BA4"/>
<path d="M1199.75 1446.19L1404.8 957.107L1390.77 951.448L1199.75 1446.19Z" fill="#009BA4"/>
<path d="M1167.99 1413.36L1366.1 941.521L1352.1 935.862L1167.99 1413.36Z" fill="#009BA4"/>
<path d="M1136.25 1380.55L1327.4 925.913L1313.42 920.276L1136.25 1380.55Z" fill="#009BA4"/>
<path d="M1104.48 1347.72L1288.71 910.328L1274.74 904.691L1104.48 1347.72Z" fill="#009BA4"/>
<path d="M1072.72 1314.88L1249.98 894.719L1236.07 889.105L1072.72 1314.88Z" fill="#009BA4"/>
<path d="M1040.98 1282.07L1211.29 879.111L1197.39 873.519L1040.98 1282.07Z" fill="#009BA4"/>
<path d="M1009.22 1249.24L1172.59 863.526L1158.72 857.933L1009.22 1249.24Z" fill="#009BA4"/>
<path d="M977.479 1216.41L1133.89 847.917L1120.04 842.348L977.479 1216.41Z" fill="#009BA4"/>
<path d="M945.717 1183.59L1095.19 832.332L1081.36 826.762L945.717 1183.59Z" fill="#009BA4"/>
<path d="M913.977 1150.76L1056.47 816.723L1042.69 811.176L913.977 1150.76Z" fill="#009BA4"/>
<path d="M882.215 1117.93L1017.77 801.138L1004.01 795.591L882.215 1117.93Z" fill="#009BA4"/>
<path d="M850.475 1085.12L979.073 785.529L965.313 779.982L850.475 1085.12Z" fill="#009BA4"/>
<path d="M818.712 1052.28L940.375 769.944L926.637 764.397L818.712 1052.28Z" fill="#009BA4"/>
<path d="M786.973 1019.45L901.654 754.336L887.961 748.811L786.973 1019.45Z" fill="#009BA4"/>
<path d="M755.21 986.639L862.955 738.75L849.285 733.225L755.21 986.639Z" fill="#009BA4"/>
<path d="M723.448 953.806L824.257 723.142L810.609 717.639L723.448 953.806Z" fill="#009BA4"/>
<path d="M691.708 920.973L785.558 707.533L771.933 702.054L691.708 920.973Z" fill="#009BA4"/>
<path d="M659.945 888.162L746.86 691.948L733.257 686.468L659.945 888.162Z" fill="#009BA4"/>
<path d="M628.206 855.328L708.139 676.34L694.581 670.882L628.206 855.328Z" fill="#009BA4"/>
<path d="M596.443 822.495L669.441 660.754L655.905 655.297L596.443 822.495Z" fill="#009BA4"/>
<path d="M564.703 789.684L630.742 645.146L617.229 639.711L564.703 789.684Z" fill="#009BA4"/>
<path d="M532.941 756.851L592.044 629.56L578.553 624.125L532.941 756.851Z" fill="#009BA4"/>
<path d="M501.201 724.018L553.323 613.952L539.855 608.539L501.201 724.018Z" fill="#009BA4"/>
<path d="M469.439 691.207L514.624 598.366L501.179 592.931L469.439 691.207Z" fill="#009BA4"/>
<path d="M1612.48 1609.75C1626.74 1609.75 1638.29 1598.19 1638.29 1583.93C1638.29 1569.66 1626.74 1558.1 1612.48 1558.1C1598.22 1558.1 1586.67 1569.66 1586.67 1583.93C1586.67 1598.19 1598.22 1609.75 1612.48 1609.75Z" fill="white"/>
<path d="M217.697 1185.48C231.954 1185.48 243.511 1173.92 243.511 1159.65C243.511 1145.39 231.954 1133.83 217.697 1133.83C203.44 1133.83 191.883 1145.39 191.883 1159.65C191.883 1173.92 203.44 1185.48 217.697 1185.48Z" fill="white"/>
<path d="M1026.91 1936.78C1041.16 1936.78 1052.72 1925.22 1052.72 1910.96C1052.72 1896.69 1041.16 1885.13 1026.91 1885.13C1012.65 1885.13 1001.09 1896.69 1001.09 1910.96C1001.09 1925.22 1012.65 1936.78 1026.91 1936.78Z" fill="#009BA4"/>
<path d="M1471.98 878.303C1486.24 878.303 1497.8 866.74 1497.8 852.476C1497.8 838.213 1486.24 826.65 1471.98 826.65C1457.73 826.65 1446.17 838.213 1446.17 852.476C1446.17 866.74 1457.73 878.303 1471.98 878.303Z" fill="#E94D47"/>
<g clip-path="url(#clip0_25_4)">
<path d="M530.206 480.982L525.535 508.341H483.234L460.967 634.244H430.034L452.301 508.341H410L414.671 480.982H530.206Z" fill="black"/>
<path d="M641.511 480.982H672.458L645.521 634.244H614.573L625.486 571.953H568.277L557.364 634.244H526.416L553.354 480.982H584.301L573.168 544.154H630.377L641.511 480.982Z" fill="black"/>
<path d="M686.911 557.73C694.696 514.139 735.44 478.326 779.063 478.326C822.686 478.326 850.74 514.139 843.176 557.73C835.391 601.102 794.427 636.915 751.024 636.915C707.621 636.915 679.347 601.102 686.911 557.73ZM812.008 557.73C816.899 530.152 801.33 507.46 773.717 507.46C746.104 507.46 722.97 530.152 718.064 557.73C713.173 585.309 728.522 607.78 756.135 607.78C783.749 607.78 807.117 585.309 812.008 557.73Z" fill="black"/>
<path d="M968.067 480.982H999.015L972.077 634.244H944.258L905.306 538.151L888.606 634.244H857.658L884.596 480.982H913.311L951.382 575.52L968.082 480.982H968.067Z" fill="black"/>
<path d="M414.23 771.272L431.812 672.067H462.759L445.618 769.276C441.829 790.191 453.858 798.631 468.326 798.631C482.793 798.631 497.261 790.176 501.05 769.276L518.191 672.067H549.139L531.777 771.272C525.55 806.424 494.382 828 462.994 828C431.606 828 408.223 806.424 414.23 771.272Z" fill="black"/>
<path d="M686.03 672.067L681.359 699.426H639.058L616.791 825.329H585.844L608.111 699.426H565.809L570.48 672.067H686.015H686.03Z" fill="black"/>
<path d="M781.075 743.473C800.214 746.805 806.676 764.153 803.783 781.517C799.993 802.652 781.516 825.343 747.69 825.343H682.24L709.178 672.082H769.942C797.32 672.082 812.008 688.535 808.013 711.682C805.78 723.027 798.892 738.38 781.075 743.488V743.473ZM755.474 758.825H724.982L718.079 797.97H748.13C762.378 797.97 771.279 788.621 773.056 778.39C774.833 768.821 770.162 758.811 755.474 758.811V758.825ZM763.494 699.441H735.44L729.433 733.023H757.487C767.283 733.023 774.407 726.579 776.184 716.114C777.962 706.765 774.187 699.426 763.494 699.426V699.441Z" fill="black"/>
<path d="M419.797 443.261L446.734 290H477.682L450.744 443.261H419.797Z" fill="black"/>
<path d="M575.18 290C619.259 290 639.073 323.362 631.273 366.968C623.709 410.34 592.321 443.261 548.243 443.261H488.14L515.077 290H575.18ZM570.51 317.359H541.354L523.993 415.903H553.148C578.749 415.903 595.89 393.211 600.341 366.968C605.011 340.725 596.111 317.359 570.51 317.359Z" fill="black"/>
<path d="M765.051 317.359H699.602L693.374 353.832H750.363L745.692 381.631H688.483L682.475 415.888H749.702L744.811 443.247H646.637L673.56 290H769.722L765.051 317.359Z" fill="black"/>
<path d="M869.673 443.261L863.666 406.553H806.236L787.538 443.261H754.593L838.726 290H872.111L902.163 443.261H869.658H869.673ZM820.028 379.65H859.2L849.624 321.586L820.013 379.65H820.028Z" fill="black"/>
</g>
<g clip-path="url(#clip1_25_4)">
<path d="M1115.13 323.223H1129.44V330.782H1102.23V326.429L1118.02 307.577C1119.68 305.555 1120.8 303.46 1120.8 302.113C1120.8 299.417 1118.59 297.504 1115.44 297.504C1111.85 297.504 1109.82 299.836 1109.33 303.333L1101.99 302.113C1102.98 294.918 1107.66 290 1115.75 290C1123.84 290 1129.07 294.845 1129.07 302.149C1129.07 306.01 1127.22 309.453 1124.63 312.331L1115.13 323.205V323.223Z" fill="black"/>
<path d="M1166.64 318.724C1166.64 326.283 1159.73 331.492 1150.98 331.492C1142.23 331.492 1135.26 326.265 1135.26 318.724C1135.26 313.624 1138.46 309.508 1142.85 308.16C1140.38 306.994 1138.35 304.043 1138.35 300.309C1138.35 294.116 1143.84 290 1151 290C1158.15 290 1163.64 294.116 1163.64 300.309C1163.64 304.062 1161.61 306.994 1159.14 308.16C1163.51 309.508 1166.66 313.624 1166.66 318.724H1166.64ZM1158.32 317.996C1158.32 314.316 1155.17 311.73 1150.98 311.73C1146.79 311.73 1143.64 314.371 1143.64 317.923C1143.64 321.475 1146.73 324.243 1150.98 324.243C1155.22 324.243 1158.32 321.42 1158.32 317.977V317.996ZM1146.16 301.238C1146.16 303.57 1148.2 305.482 1150.98 305.482C1153.76 305.482 1155.79 303.588 1155.79 301.238C1155.79 298.889 1153.76 296.94 1150.98 296.94C1148.2 296.94 1146.16 298.907 1146.16 301.238Z" fill="black"/>
<path d="M1172.26 326.338C1172.26 323.515 1174.6 321.42 1177.38 321.42C1180.17 321.42 1182.62 323.515 1182.62 326.338C1182.62 329.161 1180.22 331.31 1177.38 331.31C1174.55 331.31 1172.26 329.216 1172.26 326.338Z" fill="black"/>
<path d="M1189.28 319.653V312.713H1220.43V319.653H1189.28Z" fill="black"/>
<path d="M1239.88 323.223H1254.19V330.782H1227V326.429L1242.79 307.577C1244.45 305.555 1245.57 303.461 1245.57 302.113C1245.57 299.417 1243.36 297.504 1240.21 297.504C1236.62 297.504 1234.59 299.836 1234.1 303.333L1226.76 302.113C1227.75 294.936 1232.43 290.018 1240.52 290.018C1248.61 290.018 1253.84 294.863 1253.84 302.167C1253.84 306.029 1251.99 309.471 1249.4 312.349L1239.9 323.223H1239.88Z" fill="black"/>
<path d="M1290.96 309.271C1290.96 321.183 1285.15 331.492 1273.86 331.492C1268.56 331.492 1263.32 328.979 1260.85 323.515L1267.38 319.89C1268.61 322.658 1271.15 324.006 1273.73 324.006C1278.79 324.006 1282.43 319.398 1282.74 313.023C1280.76 315.045 1277.87 316.466 1273.97 316.466C1265.77 316.466 1260.34 310.509 1260.34 303.515C1260.34 295.847 1266.27 290 1275.27 290C1284.28 290 1290.94 297.85 1290.94 309.271H1290.96ZM1282.08 303.679C1282.08 300.109 1279.3 297.541 1275.29 297.486C1271.34 297.486 1268.5 300 1268.5 303.57C1268.5 307.14 1271.21 309.58 1275.03 309.653C1279.11 309.653 1282.01 307.194 1282.06 303.697L1282.08 303.679Z" fill="black"/>
<path d="M1296.88 326.338C1296.88 323.515 1299.23 321.42 1302.01 321.42C1304.79 321.42 1307.24 323.515 1307.24 326.338C1307.24 329.161 1304.84 331.31 1302.01 331.31C1299.17 331.31 1296.88 329.216 1296.88 326.338Z" fill="black"/>
<path d="M1343.28 290H1343.95V330.764H1335.81V300.929L1326.49 304.499V296.94L1343.28 290Z" fill="black"/>
<path d="M1367.52 290H1368.2V330.764H1360.06V300.929L1350.74 304.499V296.94L1367.52 290Z" fill="black"/>
<path d="M1376.34 326.338C1376.34 323.515 1378.69 321.42 1381.47 321.42C1384.25 321.42 1386.7 323.515 1386.7 326.338C1386.7 329.161 1384.3 331.31 1381.47 331.31C1378.63 331.31 1376.34 329.216 1376.34 326.338Z" fill="black"/>
<path d="M1420.08 323.223H1434.39V330.782H1407.2V326.429L1422.99 307.577C1424.66 305.555 1425.77 303.461 1425.77 302.113C1425.77 299.417 1423.56 297.504 1420.41 297.504C1416.82 297.504 1414.79 299.836 1414.3 303.333L1406.96 302.113C1407.95 294.936 1412.63 290.018 1420.72 290.018C1428.81 290.018 1434.04 294.863 1434.04 302.167C1434.04 306.029 1432.2 309.471 1429.6 312.349L1420.1 323.223H1420.08Z" fill="black"/>
<path d="M1440.76 310.746C1440.76 299.144 1444.09 290 1455.88 290C1467.66 290 1470.81 299.144 1470.81 310.746C1470.81 322.349 1467.53 331.492 1455.88 331.492C1444.22 331.492 1440.76 322.167 1440.76 310.746ZM1462.54 310.746C1462.54 303.315 1461.05 297.486 1455.88 297.486C1450.7 297.486 1448.96 303.315 1448.96 310.746C1448.96 318.178 1450.57 324.006 1455.88 324.006C1461.18 324.006 1462.54 318.05 1462.54 310.746Z" fill="black"/>
<path d="M1489.68 323.223H1503.99V330.782H1476.79V326.429L1492.59 307.577C1494.25 305.555 1495.37 303.461 1495.37 302.113C1495.37 299.417 1493.15 297.504 1490.01 297.504C1486.42 297.504 1484.39 299.836 1483.89 303.333L1476.55 302.113C1477.54 294.936 1482.23 290.018 1490.32 290.018C1498.41 290.018 1503.64 294.863 1503.64 302.167C1503.64 306.029 1501.79 309.471 1499.19 312.349L1489.69 323.223H1489.68Z" fill="black"/>
<path d="M1537 319.107C1537 326.356 1530.83 331.511 1522.07 331.511C1516.34 331.511 1511.71 329.052 1508.8 324.443L1514.42 320.09C1516.39 322.677 1518.74 324.134 1521.7 324.134C1525.89 324.134 1528.73 321.748 1528.73 318.487C1528.73 315.227 1525.89 312.786 1521.7 312.786H1517.88V306.593H1520.16C1524.54 306.593 1527.08 304.262 1526.88 301.439C1526.75 298.98 1524.67 297.45 1521.7 297.45C1519.1 297.45 1516.39 298.743 1514.86 300.71L1510.41 295.683C1513.25 292.368 1517.38 290.036 1522.62 290.036C1529.72 290.036 1535.26 294.335 1535.13 301.147C1535.13 304.517 1533.1 307.468 1529.83 309.125C1534.15 310.728 1536.98 314.407 1536.98 319.125L1537 319.107Z" fill="black"/>
<path d="M1136.1 387.757C1136.1 393.585 1132.09 399.851 1122.72 399.851H1104.59V357.557H1121.42C1129.02 357.557 1133.89 362.093 1133.89 368.486C1133.89 371.619 1132.66 375.845 1128.03 377.265C1133.46 378.194 1136.12 382.966 1136.12 387.757H1136.1ZM1120.93 365.098H1113.15V374.369H1120.93C1123.64 374.369 1125.3 372.584 1125.3 369.706C1125.3 367.12 1123.95 365.098 1120.93 365.098ZM1121.48 392.292C1125.49 392.292 1127.46 389.706 1127.46 386.883C1127.46 384.241 1125.67 381.473 1121.61 381.473H1113.15V392.274H1121.48V392.292Z" fill="#E94D47"/>
<path d="M1164.48 371.182H1172.57V399.851H1164.48V395.735C1162.58 398.685 1158.86 400.58 1154.99 400.58C1147.02 400.58 1141.11 394.441 1141.11 385.535C1141.11 376.628 1146.91 370.435 1155.17 370.435C1158.86 370.435 1162.56 372.038 1164.48 374.97V371.163V371.182ZM1164.25 385.553C1164.25 381.2 1160.73 377.939 1156.72 377.939C1152.72 377.939 1149.39 381.382 1149.39 385.553C1149.39 389.724 1152.53 393.112 1156.78 393.112C1161.02 393.112 1164.25 389.669 1164.25 385.553Z" fill="#E94D47"/>
<path d="M1191.57 360.745V371.182H1197.68V377.447H1191.57V399.851H1183.48V377.447H1178.23V371.182H1183.48V360.745H1191.57ZM1206.61 355.281C1206.06 362.949 1203.02 366.828 1200.26 369.16L1196.12 367.138C1198.72 363.568 1199.71 360.818 1199.58 355.299H1206.61V355.281Z" fill="#E94D47"/>
<path d="M1201.14 385.553C1201.14 376.464 1208.42 370.453 1216.62 370.453C1224.82 370.453 1232.1 376.464 1232.1 385.553C1232.1 394.642 1224.82 400.598 1216.62 400.598C1208.42 400.598 1201.14 394.587 1201.14 385.553ZM1223.9 385.553C1223.9 381.072 1220.63 377.939 1216.62 377.939C1212.61 377.939 1209.34 381.072 1209.34 385.553C1209.34 390.034 1212.61 393.112 1216.62 393.112C1220.63 393.112 1223.9 389.979 1223.9 385.553Z" fill="#E94D47"/>
<path d="M1257.34 371.182H1266.16L1254.01 399.851H1246.8L1234.65 371.182H1243.41L1250.44 389.469L1257.36 371.182H1257.34Z" fill="#E94D47"/>
<path d="M1289.05 371.182H1297.74L1279.98 413.913H1271.34L1278.18 397.155L1266.76 371.182H1275.64L1282.43 387.757L1289.03 371.182H1289.05Z" fill="#E94D47"/>
<path d="M1340.99 371.182V377.32L1326.62 392.365H1340.99V399.851H1315.07V393.768L1329.13 378.668H1315.93V371.182H1340.97H1340.99Z" fill="#E94D47"/>
<path d="M1369.55 371.182H1377.64V399.851H1369.55V395.735C1367.65 398.686 1363.94 400.58 1360.06 400.58C1352.1 400.58 1346.18 394.442 1346.18 385.535C1346.18 376.628 1351.99 370.435 1360.24 370.435C1363.94 370.435 1367.63 372.038 1369.55 374.97V371.164V371.182ZM1369.32 385.553C1369.32 381.2 1365.8 377.939 1361.79 377.939C1357.79 377.939 1354.46 381.382 1354.46 385.553C1354.46 389.724 1357.6 393.112 1361.85 393.112C1366.1 393.112 1369.32 389.669 1369.32 385.553ZM1373.82 356.264L1365.73 366.464H1359.75L1365.6 356.264H1373.8H1373.82Z" fill="#E94D47"/>
<path d="M1404.67 371.182H1413.49L1401.34 399.851H1394.13L1381.98 371.182H1390.75L1397.77 389.469L1404.69 371.182H1404.67Z" fill="#E94D47"/>
<path d="M1416.02 385.553C1416.02 376.464 1423.3 370.453 1431.5 370.453C1439.7 370.453 1446.98 376.464 1446.98 385.553C1446.98 394.642 1439.7 400.598 1431.5 400.598C1423.3 400.598 1416.02 394.587 1416.02 385.553ZM1438.78 385.553C1438.78 381.072 1435.51 377.939 1431.5 377.939C1427.49 377.939 1424.22 381.072 1424.22 385.553C1424.22 390.034 1427.49 393.112 1431.5 393.112C1435.51 393.112 1438.78 389.979 1438.78 385.553Z" fill="#E94D47"/>
<path d="M1475 355.59H1483.09V399.851H1475V396.281C1472.97 399.232 1468.96 400.58 1465.74 400.58C1458.35 400.58 1451.61 394.678 1451.61 385.48C1451.61 376.282 1458.33 370.435 1465.74 370.435C1469.07 370.435 1472.95 371.728 1475 374.679V355.59ZM1474.76 385.498C1474.76 381.072 1471.06 377.939 1467.29 377.939C1463.23 377.939 1459.83 381.254 1459.83 385.498C1459.83 389.742 1463.21 393.112 1467.29 393.112C1471.38 393.112 1474.76 389.851 1474.76 385.498Z" fill="#E94D47"/>
<path d="M1509.79 371.182H1518.48L1500.71 413.913H1492.07L1498.92 397.155L1487.5 371.182H1496.37L1503.16 387.757L1509.77 371.182H1509.79Z" fill="#E94D47"/>
<path d="M1120.43 440.269V446.535H1114.32V468.938H1106.25V446.535H1101V440.269H1106.25V429.832H1114.34V440.269H1120.45H1120.43Z" fill="#E94D47"/>
<path d="M1146.71 440.451L1144.87 448.119C1143.15 447.19 1141.72 447.081 1140.73 447.081C1136.59 447.081 1133.76 450.943 1133.76 459.121V468.939H1125.67V440.269H1133.68V446.407C1135.29 441.617 1138.55 439.522 1142.14 439.522C1143.68 439.522 1145.41 439.759 1146.7 440.451H1146.71Z" fill="#E94D47"/>
<path d="M1149.24 454.622C1149.24 445.533 1156.52 439.522 1164.72 439.522C1172.92 439.522 1180.2 445.533 1180.2 454.622C1180.2 463.711 1172.92 469.667 1164.72 469.667C1156.52 469.667 1149.24 463.656 1149.24 454.622ZM1172 454.622C1172 450.141 1168.73 447.008 1164.72 447.008C1160.71 447.008 1157.44 450.141 1157.44 454.622C1157.44 459.103 1160.71 462.181 1164.72 462.181C1168.73 462.181 1172 459.048 1172 454.622Z" fill="#E94D47"/>
<path d="M1184.78 454.513C1184.78 445.424 1192.17 439.54 1200.57 439.54C1205.82 439.54 1210.01 441.926 1212.72 445.679L1206.61 449.923C1205.31 448.137 1202.91 447.045 1200.63 447.045C1196.05 447.045 1192.98 450.36 1192.98 454.531C1192.98 458.702 1196.05 462.199 1200.63 462.199C1202.91 462.199 1205.31 461.088 1206.61 459.321L1212.72 463.565C1210.01 467.317 1205.8 469.703 1200.57 469.703C1192.19 469.703 1184.78 463.62 1184.78 454.531V454.513Z" fill="#E94D47"/>
<path d="M1246.65 453.219V468.939H1238.56V453.711C1238.56 449.231 1235.85 447.136 1233.07 447.136C1230.29 447.136 1226.59 448.739 1226.59 453.893V468.939H1218.5V424.677H1226.59V444.823C1227.82 441.143 1232.45 439.54 1235.23 439.54C1242.75 439.54 1246.71 444.64 1246.65 453.238V453.219Z" fill="#E94D47"/>
<path d="M1274.12 440.269H1282.21V468.939H1274.12V464.276C1272.89 468.028 1268.32 469.685 1265.48 469.685C1257.96 469.685 1254.01 464.658 1254.06 456.061V440.287H1262.15V455.642C1262.15 460.123 1264.86 462.217 1267.64 462.217C1270.42 462.217 1274.12 460.615 1274.12 455.46V440.287V440.269Z" fill="#E94D47"/>
<path d="M1297.43 483V475.696H1300.95C1304.15 475.696 1305.5 473.055 1305.5 469.795V440.269H1313.59V469.685C1313.59 478.1 1309.33 483 1301.18 483H1297.42H1297.43ZM1304.41 430.379C1304.41 427.683 1306.8 425.588 1309.58 425.588C1312.37 425.588 1314.64 427.683 1314.64 430.379C1314.64 433.074 1312.42 435.224 1309.58 435.224C1306.75 435.224 1304.41 433.074 1304.41 430.379Z" fill="#E94D47"/>
<path d="M1320.64 430.379C1320.64 427.683 1322.98 425.588 1325.76 425.588C1328.54 425.588 1330.89 427.683 1330.89 430.379C1330.89 433.074 1328.6 435.224 1325.76 435.224C1322.93 435.224 1320.64 433.074 1320.64 430.379ZM1321.75 468.938V440.269H1329.84V468.938H1321.75Z" fill="#E94D47"/>
<path d="M1366.1 453.219V468.938H1358.01V453.656C1358.01 449.176 1355.3 447.154 1352.52 447.154C1349.74 447.154 1346.04 448.684 1346.04 453.911V468.957H1337.95V440.287H1346.04V444.95C1347.39 441.198 1351.89 439.54 1354.68 439.54C1362.2 439.54 1366.15 444.64 1366.1 453.238V453.219Z" fill="#E94D47"/>
<path d="M1395.52 440.269H1403.61V468.939H1395.52V464.822C1393.62 467.773 1389.9 469.667 1386.02 469.667C1378.06 469.667 1372.15 463.529 1372.15 454.622C1372.15 445.715 1377.95 439.522 1386.21 439.522C1389.9 439.522 1393.6 441.125 1395.52 444.058V440.251V440.269ZM1395.28 454.64C1395.28 450.287 1391.77 447.027 1387.76 447.027C1383.75 447.027 1380.42 450.469 1380.42 454.64C1380.42 458.811 1383.57 462.199 1387.82 462.199C1392.06 462.199 1395.28 458.757 1395.28 454.64Z" fill="#E94D47"/>
<path d="M1440.01 468.939H1429.96L1419.84 456.535V468.939H1411.75V424.677H1419.84V449.048L1427.13 440.269H1437.48L1426.27 452.91L1440.03 468.939H1440.01Z" fill="#E94D47"/>
</g>
<defs>
<clipPath id="clip0_25_4">
<rect width="589" height="538" fill="white" transform="translate(410 290)"/>
</clipPath>
<clipPath id="clip1_25_4">
<rect width="436" height="193" fill="white" transform="translate(1101 290)"/>
</clipPath>
</defs>
</svg>
