<svg xmlns="http://www.w3.org/2000/svg" viewBox="0 0 73.46 36.66"><g id="Layer_2" data-name="Layer 2"><g id="Vrstva_1" data-name="Vrstva 1"><path d="M.21,2.45a40.24,40.24,0,0,0,7.31,13A41.92,41.92,0,0,0,23.07,26.08a37.11,37.11,0,0,0,19.24,2.34,52.16,52.16,0,0,0,12.36-3.6,29.14,29.14,0,0,0,6.9-3.73c2.67-2.1,5.06-4.52,7.81-6.53,1.68-1.23-.92-5.49-2.52-4.32C64.47,12,62.33,14,60.07,15.93a24.74,24.74,0,0,1-6.88,4.14,60.94,60.94,0,0,1-9.66,3.25,35.76,35.76,0,0,1-17-.24,38.3,38.3,0,0,1-16-8.95C7,10.71,5.07,6.72,3.37,2.14,3,1.24,2-.14.92,0s-1,1.66-.71,2.44Z"/><path d="M64.73,9.49a71.84,71.84,0,0,1-10.46.9l-1.34,0c-.15,0-1.43-.09-.68,0-.51,0-1-.09-1.51-.15-.24,0-1.36-.24-.29,0-.28-.06-1.93-.28-.51-.08a3.31,3.31,0,0,1-1-.3c.69.23.77.26.24.07s-.45-.17.11.06A7.32,7.32,0,0,1,48,9.28c-1.83-1-4.63-1.82-6.71-1.42s.55,2,1.2,2.3c9.32,4.89,20.12,4.46,30.21,3.05,2.15-.3-.56-2-1.21-2.3a12.94,12.94,0,0,0-6.71-1.42Z"/><path d="M68.18,12.94a57,57,0,0,0-4.44,10.94c-1,3.84-1.54,8,.16,11.72,1.13,2.48,5.55.14,4.41-2.36-1.28-2.8-.66-6.42.2-9.35a58.47,58.47,0,0,1,4.18-10,1.9,1.9,0,0,0-1.39-2.61,2.91,2.91,0,0,0-3.12,1.67Z"/></g></g></svg>