<?xml version="1.0" encoding="UTF-8"?>
<svg id="Vrstva_1" data-name="Vrstva 1" xmlns="http://www.w3.org/2000/svg" viewBox="0 0 1628 1284">
  <defs>
    <style>
      .cls-1 {
        fill: #6236c1;
        opacity: .32;
      }

      .cls-2 {
        fill: #a993ff;
      }

      .cls-2, .cls-3, .cls-4 {
        opacity: .64;
      }

      .cls-3 {
        fill: #8ea5ff;
      }

      .cls-5 {
        fill: #6549ea;
      }

      .cls-6 {
        fill: #fff;
      }

      .cls-7 {
        fill: #a68bf2;
        opacity: .25;
      }

      .cls-8 {
        fill: #33a;
        opacity: .3;
      }

      .cls-9 {
        fill: #629aed;
        opacity: .66;
      }

      .cls-4, .cls-10 {
        fill: #472eae;
      }

      .cls-11 {
        fill: #aef4ff;
        opacity: .7;
      }

      .cls-12 {
        fill: #8fc7ff;
        opacity: .4;
      }

      .cls-13 {
        fill: #6981ff;
        opacity: .33;
      }

      .cls-10 {
        opacity: .58;
      }
    </style>
  </defs>
  <circle class="cls-5" cx="1431.56" cy="118.09" r="45.26"/>
  <circle class="cls-5" cx="1269.1" cy="940.91" r="99.68"/>
  <path class="cls-5" d="M1344.17,440.08c.46-2.75.88-5.51,1.28-8.29.02-.15.04-.3.06-.45.37-2.64.72-5.29,1.04-7.94.03-.28.07-.56.1-.84.29-2.5.56-5.02.81-7.53.04-.43.09-.85.13-1.28.22-2.36.41-4.73.59-7.1.04-.57.09-1.14.13-1.71.16-2.24.28-4.5.4-6.75.04-.68.08-1.36.11-2.04.1-2.24.18-4.48.24-6.73.02-.68.05-1.36.07-2.04.07-2.91.1-5.82.1-8.75s-.04-5.55-.1-8.31c0-.42-.01-.84-.02-1.26-.03-1.07-.06-2.13-.1-3.2-.02-.52-.03-1.05-.05-1.57-.04-1.01-.09-2.01-.13-3.02-.03-.58-.05-1.16-.08-1.74-.05-.96-.11-1.91-.16-2.87-.04-.63-.07-1.25-.11-1.88-.06-.93-.13-1.86-.19-2.79-.05-.65-.09-1.29-.14-1.94-.07-.93-.15-1.86-.23-2.79-.05-.64-.1-1.28-.16-1.92-.08-.92-.17-1.84-.26-2.76-.06-.64-.12-1.29-.18-1.93-.09-.91-.19-1.82-.29-2.73-.07-.65-.14-1.3-.21-1.94-.1-.92-.22-1.84-.33-2.76-.08-.63-.15-1.26-.23-1.89-.12-.93-.24-1.85-.37-2.78-.08-.62-.16-1.24-.25-1.86-.13-.93-.27-1.86-.41-2.79-.09-.61-.17-1.22-.27-1.83-.14-.94-.3-1.88-.45-2.81-.1-.6-.19-1.19-.28-1.79-.16-.95-.32-1.9-.49-2.85-.1-.58-.2-1.15-.3-1.73-.17-.96-.35-1.92-.53-2.88-.1-.56-.2-1.12-.31-1.68-.18-.96-.38-1.92-.57-2.88-.11-.55-.22-1.11-.33-1.66-.2-.97-.4-1.94-.61-2.91-.11-.54-.22-1.07-.34-1.61-.21-.98-.43-1.96-.65-2.93-.12-.52-.23-1.04-.35-1.57-.23-.98-.46-1.96-.69-2.94-.12-.51-.24-1.03-.37-1.54-.24-1-.49-1.99-.74-2.99-.12-.49-.24-.97-.37-1.46-.26-1.01-.53-2.02-.79-3.02-.12-.47-.25-.94-.37-1.41-.27-1.02-.56-2.04-.84-3.05-.13-.45-.25-.9-.38-1.36-.29-1.03-.59-2.06-.89-3.08-.13-.43-.25-.87-.38-1.31-.31-1.04-.62-2.08-.94-3.12-.13-.41-.25-.83-.38-1.24-.33-1.05-.66-2.11-1-3.16-.13-.39-.25-.79-.38-1.18-.35-1.07-.7-2.15-1.06-3.22-.12-.36-.24-.73-.36-1.09-.36-1.08-.74-2.16-1.11-3.24-.12-.35-.24-.7-.36-1.05-.39-1.1-.78-2.19-1.17-3.29-.12-.32-.23-.65-.35-.97-.41-1.11-.82-2.23-1.24-3.33-.11-.3-.22-.61-.34-.91-.43-1.13-.86-2.25-1.3-3.37-.11-.28-.22-.56-.33-.84-.45-1.14-.91-2.29-1.36-3.42-.1-.25-.2-.51-.31-.76-.47-1.16-.95-2.31-1.43-3.46-.1-.24-.2-.47-.29-.71-.49-1.17-.99-2.34-1.5-3.51-.09-.21-.18-.42-.27-.62-.52-1.19-1.04-2.38-1.57-3.56-.08-.18-.16-.36-.24-.54-.54-1.2-1.09-2.4-1.64-3.59-.08-.16-.15-.33-.23-.49-.56-1.21-1.13-2.42-1.71-3.63-.07-.14-.13-.28-.2-.43-.59-1.23-1.19-2.46-1.79-3.69-.05-.11-.11-.22-.16-.33-.62-1.25-1.24-2.5-1.88-3.75-.04-.08-.08-.17-.12-.25-.65-1.27-1.3-2.54-1.96-3.8-.03-.06-.06-.11-.09-.17-.67-1.29-1.35-2.57-2.04-3.84-.02-.03-.03-.06-.05-.1-.7-1.3-1.41-2.6-2.13-3.89,0,0,0-.01-.01-.02C1239.06,83.4,1116.8,5.81,976.42,5.81c-178.89,0-328.35,125.99-364.48,294.08h0c-1.03,0-2.06-.01-3.09-.01-154.58,0-290.65,79.23-369.83,199.3-19.74-23.3-40.39-47.68-62.16-73.38-65.03,88.67-103.65,198.37-103.65,316.76,0,295.82,239.81,535.63,535.63,535.63,86.87,0,168.92-20.69,241.48-57.41-21.77-25.7-42.43-50.08-62.16-73.38,0,0,.01,0,.02,0,0,0-.01,0-.02.01,20.71,24.44,41.41,48.89,62.12,73.33,77.3-39.11,143.87-96.36,194.01-166.21l-62.36-73.61s0,0,0,0c43.83-68.47,69.33-149.79,69.58-237.06h0c149.99-30.79,267.31-151.71,292.61-303.65,0-.04.01-.08.02-.13ZM968.58,1000.6c-.19.26-.38.53-.57.79.19-.26.38-.53.57-.79ZM958.85,1013.63c-.16.2-.31.4-.47.6.16-.2.31-.4.47-.6ZM948.63,1026.33c-.1.11-.19.23-.29.34.1-.11.19-.23.29-.34ZM937.89,1038.7s0,0,0,0c0,0,0,0,0,0ZM1036.61,628.16c.02.08.04.16.06.23,0,.03.02.06.02.1-.04-.13-.07-.27-.11-.4,0,.02.01.05.02.07ZM1041.84,650c.04.19.08.39.12.58-.04-.21-.09-.42-.13-.63,0,.02,0,.04.01.05ZM1044.81,665.27s.01.07.02.11c.01.08.03.16.04.25-.03-.15-.05-.3-.08-.45,0,.03.01.07.02.1ZM1045.97,672.23c.02.12.04.24.06.36-.02-.13-.04-.26-.06-.39,0,.01,0,.02,0,.03ZM1048.16,687.65c.05.4.1.79.14,1.19,0,.01,0,.03,0,.04-.05-.44-.1-.87-.16-1.31,0,.03,0,.05.01.08ZM1048.99,694.89l.02.17c0-.06-.01-.12-.02-.18,0,0,0,0,0,.01ZM1049.83,703.4c0,.08.01.16.02.24,0,.09.01.18.02.28-.02-.2-.03-.4-.05-.59,0,.03,0,.05,0,.08ZM1050.38,710.39c.04.58.08,1.15.12,1.73,0,0,0,0,0,0-.04-.6-.08-1.2-.13-1.8,0,.02,0,.04,0,.06ZM1050.87,718.13s0,.03,0,.04c0-.02,0-.03,0-.05,0,0,0,0,0,0ZM1051.24,726.34c.02.51.03,1.03.05,1.54,0,.02,0,.05,0,.07-.02-.55-.03-1.11-.05-1.66,0,.02,0,.03,0,.05ZM1051.44,733.56c.01.64.03,1.27.04,1.91,0,0,0,.01,0,.02-.01-.66-.02-1.32-.04-1.98,0,.02,0,.03,0,.05ZM173.81,660.32s0,.05-.01.07c0,.02,0,.04-.01.06.01-.05.02-.11.03-.16,0,.01,0,.02,0,.03ZM172.37,668.41s0,.02,0,.02c.01-.08.03-.15.04-.23,0,.02,0,.03,0,.05,0,.05-.02.1-.03.16ZM171.05,676.71s0,.04,0,.05c.02-.17.05-.33.07-.5v.02c-.02.14-.04.28-.07.42ZM169.91,684.85s0,.02,0,.03c.04-.31.08-.62.12-.93,0,.02,0,.03,0,.05-.04.29-.08.57-.11.86ZM168.91,693.16s0,.05,0,.07c.03-.25.05-.49.08-.74,0,0,0,.02,0,.03-.02.21-.05.43-.07.64ZM168.07,701.46s0,.02,0,.03c.04-.48.09-.96.14-1.44,0,.02,0,.03,0,.05-.04.45-.09.91-.13,1.36ZM167.39,709.69s0,.06,0,.08c.02-.27.04-.54.06-.81,0,0,0,.02,0,.03-.02.23-.03.47-.05.7ZM166.85,718.2v.04c.03-.59.06-1.19.1-1.78,0,.01,0,.03,0,.04-.03.57-.07,1.13-.1,1.7ZM166.48,726.18s0,.07,0,.1c0-.21.01-.42.02-.63,0,0,0,.02,0,.02,0,.17,0,.34-.02.5ZM166.25,735.05v.04c.01-.65.02-1.3.04-1.95v.04c-.01.62-.03,1.25-.04,1.88ZM303.44,1063c-84.56-80.62-137.26-194.38-137.26-320.44,0-.02,0-.04,0-.06,0,.02,0,.04,0,.06,0,102.09,34.56,196.1,92.62,270.98,1.24,1.6,2.49,3.2,3.76,4.78.86,1.08,1.72,2.15,2.59,3.22,2.56,3.15,5.17,6.27,7.82,9.35,1.8,2.1,3.63,4.19,5.47,6.25,3.13,3.51,6.32,6.97,9.56,10.38,2.58,2.71,5.19,5.4,7.84,8.05,2.5,2.5,5.04,4.98,7.6,7.42,5.12,4.89,10.37,9.65,15.72,14.29-5.35-4.64-10.6-9.4-15.72-14.29ZM608.86,1185.24c.14,0,.27,0,.41,0h0c-.14,0-.28,0-.42,0h0ZM616.64,1185.16h0c-.65.01-1.29.03-1.94.04h0c.65,0,1.29-.03,1.94-.04ZM622.69,1185.02h0c-.71.02-1.42.05-2.14.07h0c.71-.02,1.42-.05,2.14-.07ZM628.51,1184.8h0c-.7.03-1.41.07-2.11.09h0c.7-.03,1.41-.06,2.11-.09ZM634.27,1184.51h0c-.68.04-1.35.08-2.03.12h0c.68-.04,1.35-.08,2.03-.12ZM639.98,1184.15s0,0,0,0c-.63.04-1.27.09-1.9.13h0c.63-.04,1.27-.09,1.9-.13ZM643.91,1183.86h0c.17-.01.33-.02.5-.04.42-.03.83-.07,1.25-.11h0c-.42.03-.83.07-1.25.11-.17.01-.33.02-.5.04ZM651.32,1183.22h0c-.52.05-1.04.1-1.57.15h0c.52-.05,1.04-.1,1.57-.15ZM655.58,1182.79h0c.17-.02.34-.03.51-.05-.17.02-.34.03-.51.05ZM977.19,988.17c.2-.3.4-.61.61-.91-.2.3-.4.61-.61.91ZM1051.54,742.53s0,.02,0,.03h0s0,0,0,0c0,.01,0,.02,0,.04,0-.01,0-.02,0-.04,0,0,0-.02,0-.03Z"/>
  <circle class="cls-11" cx="1431.56" cy="118.09" r="45.26"/>
  <circle class="cls-2" cx="1269.1" cy="940.91" r="99.68"/>
  <g>
    <circle class="cls-13" cx="608.86" cy="742.56" r="442.68"/>
    <path class="cls-10" d="M166.18,742.56c0,244.48,198.19,442.68,442.68,442.68,63.83,0,124.49-13.53,179.3-37.85-222.67-262.85-326.44-385.34-549.11-648.19-46.05,69.83-72.87,153.46-72.87,243.36Z"/>
    <path class="cls-7" d="M608.86,1185.24c-244.48,0-442.68-198.19-442.68-442.68,0-89.9,26.83-173.53,72.87-243.36-19.74-23.31-40.4-47.69-62.18-73.4-65.03,88.67-103.65,198.37-103.65,316.76,0,295.82,239.81,535.63,535.63,535.63,86.87,0,168.92-20.69,241.48-57.41-21.78-25.71-42.43-50.09-62.18-73.39-54.81,24.31-115.48,37.85-179.3,37.85Z"/>
    <path class="cls-12" d="M976.42,5.81c-178.89,0-328.35,125.99-364.48,294.08l.03.03c243.05,1.68,439.57,199.19,439.57,442.64,0,.43-.02.86-.02,1.29v.02c169.78-34.85,297.72-185.16,297.72-365.24,0-205.9-166.91-372.81-372.81-372.81Z"/>
    <circle class="cls-3" cx="497.8" cy="863.37" r="119.87"/>
    <path class="cls-5" d="M499.02,602.45c-50.96,0-98.5,14.65-138.63,39.97l92.89,109.65c13.77-5.52,28.79-8.58,44.53-8.58,66.2,0,119.87,53.67,119.87,119.87,0,22.79-6.36,44.09-17.4,62.23l93.11,109.91c40.64-45.9,65.78-106.78,65.78-172.91,0-143.68-116.47-260.15-260.15-260.15Z"/>
    <circle class="cls-5" cx="976.42" cy="378.62" r="249.18"/>
    <path class="cls-10" d="M1034.62,620.96c-41.42-145.31-155.24-260.08-299.95-302.91-4.84,19.39-7.43,39.68-7.43,60.58,0,137.62,111.56,249.18,249.18,249.18,20.04,0,39.52-2.38,58.2-6.85Z"/>
    <path class="cls-4" d="M1078.97,151.45c16.56,7.49,32.15,16.73,46.54,27.49,1.6,1.2,3.18,2.41,4.75,3.64,58.05,45.62,95.34,116.47,95.34,196.04,0,12.94-1.04,25.63-2.94,38.04-15.38,100.33-90.56,180.96-188.04,204.29,11.01,38.64,16.92,79.43,16.92,121.6h0c.89.23,1.78.47,2.67.7,145.91-31.08,260.41-147.53,288.42-294.58h0c4.32-22.69,6.61-46.11,6.61-70.05,0-204.55-164.74-370.59-368.78-372.76-60.12,65.56-120.23,131.12-180.35,196.68,1.97-1.97,3.98-3.9,6.02-5.8.28-.26.55-.52.83-.78,2.29-2.13,4.62-4.22,6.99-6.26.15-.13.31-.26.46-.39,2.4-2.06,4.84-4.07,7.32-6.04.09-.07.18-.14.26-.21,2.44-1.93,4.93-3.81,7.44-5.65.36-.26.71-.52,1.07-.78,2.47-1.79,4.97-3.54,7.51-5.23.31-.21.63-.41.94-.62,5.23-3.46,10.59-6.74,16.09-9.81.41-.23.81-.46,1.22-.68,2.64-1.46,5.31-2.86,8-4.23.44-.22.88-.44,1.32-.66,2.78-1.38,5.59-2.73,8.43-4.01.08-.04.16-.07.24-.1,2.8-1.26,5.63-2.46,8.49-3.62.42-.17.83-.34,1.25-.51,2.8-1.12,5.63-2.19,8.48-3.21.53-.19,1.06-.38,1.59-.56,2.89-1.01,5.8-1.98,8.73-2.89.3-.09.61-.18.92-.27,2.84-.87,5.71-1.68,8.59-2.45.37-.1.75-.21,1.12-.3,2.96-.77,5.95-1.48,8.95-2.14.59-.13,1.17-.26,1.76-.38,2.99-.64,6.01-1.23,9.04-1.76.46-.08.92-.15,1.37-.23,3-.51,6.01-.97,9.04-1.37.25-.03.49-.07.74-.1,3.13-.4,6.27-.73,9.43-1.02.6-.05,1.2-.11,1.8-.16,3.09-.26,6.2-.46,9.33-.6.56-.03,1.13-.04,1.69-.06,3.27-.13,6.55-.21,9.85-.21h0c10.75,0,21.34.68,31.74,2,2.08.26,4.15.55,6.21.87,8.25,1.26,16.36,2.92,24.33,4.97,13.93,3.58,27.39,8.34,40.27,14.17Z"/>
    <path class="cls-1" d="M1044.31,1054.52l-62.36-73.61s0,0,0,0c-46.61,72.8-113.96,131.04-193.7,166.43-.02.02-.04.04-.07.06,20.71,24.44,41.41,48.89,62.12,73.33,77.3-39.11,143.87-96.36,194.01-166.21Z"/>
  </g>
  <g>
    <circle class="cls-5" cx="163.49" cy="276.08" r="150.22"/>
    <circle class="cls-8" cx="163.49" cy="276.08" r="150.22"/>
    <path class="cls-9" d="M308.24,316.24c-53.23-63.21-106.45-126.42-159.68-189.63-29.14,2.88-57.74,14.28-81.83,34.56C3.27,214.61-4.86,309.38,48.58,372.85c53.44,63.46,148.21,71.59,211.67,18.15,24.09-20.29,40.19-46.53,47.99-74.76Z"/>
  </g>
  <g>
    <g>
      <path class="cls-6" d="M534.93,325.35l-4.62,27.09h-41.84l-22.02,124.65h-30.61l22.02-124.65h-41.84l4.62-27.09h114.3Z"/>
      <path class="cls-6" d="M645.04,325.35h30.61l-26.65,151.74h-30.61l10.79-61.66h-56.6l-10.79,61.66h-30.61l26.65-151.74h30.61l-11.01,62.54h56.6l11.01-62.54Z"/>
      <path class="cls-6" d="M689.97,401.33c7.71-43.16,48.01-78.62,91.17-78.62s70.91,35.46,63.43,78.62c-7.71,42.94-48.23,78.4-91.17,78.4s-70.91-35.46-63.43-78.4ZM813.74,401.33c4.84-27.31-10.57-49.77-37.88-49.77s-50.21,22.46-55.06,49.77c-4.84,27.31,10.35,49.55,37.66,49.55s50.43-22.24,55.28-49.55Z"/>
      <path class="cls-6" d="M968.12,325.35h30.61l-26.65,151.74h-27.53l-38.54-95.14-16.52,95.14h-30.61l26.65-151.74h28.41l37.66,93.6,16.52-93.6Z"/>
    </g>
    <g>
      <path class="cls-6" d="M420.19,612.76l17.4-98.22h30.61l-16.96,96.24c-3.74,20.7,8.15,29.07,22.46,29.07s28.63-8.37,32.37-29.07l16.96-96.24h30.61l-17.18,98.22c-6.17,34.8-37,56.16-68.05,56.16s-54.18-21.36-48.23-56.16Z"/>
      <path class="cls-6" d="M689.09,514.53l-4.62,27.09h-41.84l-22.02,124.65h-30.61l22.02-124.65h-41.84l4.62-27.09h114.3Z"/>
      <path class="cls-6" d="M783.13,585.23c18.94,3.3,25.33,20.48,22.46,37.66-3.74,20.92-22.02,43.39-55.5,43.39h-64.75l26.65-151.74h60.12c27.09,0,41.62,16.3,37.66,39.2-2.2,11.23-9.03,26.43-26.65,31.49ZM757.8,600.42h-30.17l-6.83,38.76h29.73c14.09,0,22.9-9.25,24.67-19.38,1.76-9.47-2.86-19.38-17.4-19.38ZM765.73,541.62h-27.75l-5.95,33.25h27.75c9.69,0,16.74-6.39,18.5-16.74,1.76-9.25-1.98-16.52-12.55-16.52Z"/>
    </g>
    <path class="cls-6" d="M425.7,288l26.65-151.74h30.61l-26.65,151.74h-30.61Z"/>
    <g>
      <path class="cls-6" d="M579.42,136.27c43.61,0,63.21,33.03,55.5,76.2-7.49,42.94-38.54,75.54-82.15,75.54h-59.46l26.65-151.74h59.46ZM574.79,163.35h-28.85l-17.18,97.56h28.85c25.33,0,42.28-22.46,46.69-48.45,4.62-25.99-4.18-49.11-29.51-49.11Z"/>
      <path class="cls-6" d="M767.27,163.35h-64.75l-6.17,36.12h56.38l-4.62,27.53h-56.6l-5.95,33.92h66.51l-4.84,27.09h-97.12l26.65-151.74h95.14l-4.62,27.09Z"/>
      <path class="cls-6" d="M870.78,288l-5.95-36.34h-56.82l-18.5,36.34h-32.59l83.25-151.74h33.03l29.73,151.74h-32.15ZM821.67,225.02h38.76l-9.47-57.48-29.29,57.48Z"/>
    </g>
  </g>
</svg>