<svg width="587" height="534" viewBox="0 0 587 534" fill="none" xmlns="http://www.w3.org/2000/svg">
<path d="M122.119 189.398L117.499 216.488H75.659L53.639 341.138H23.029L45.049 216.488H3.20898L7.82898 189.398H122.129H122.119Z" fill="white"/>
<path d="M232.239 189.398H262.849L236.199 341.138H205.589L216.379 279.478H159.779L148.989 341.138H118.379L145.029 189.398H175.639L164.629 251.938H221.229L232.239 189.398Z" fill="white"/>
<path d="M277.159 265.378C284.869 222.218 325.169 186.758 368.329 186.758C411.489 186.758 439.239 222.218 431.759 265.378C424.049 308.318 383.529 343.778 340.589 343.778C297.649 343.778 269.679 308.318 277.159 265.378ZM400.929 265.378C405.769 238.068 390.359 215.608 363.049 215.608C335.739 215.608 312.839 238.068 307.989 265.378C303.149 292.688 318.339 314.928 345.649 314.928C372.959 314.928 396.079 292.688 400.929 265.378Z" fill="white"/>
<path d="M555.309 189.398H585.919L559.269 341.138H531.739L493.199 245.998L476.679 341.138H446.069L472.719 189.398H501.129L538.789 282.998L555.309 189.398Z" fill="white"/>
<path d="M7.37874 476.798L24.7787 378.578H55.3887L38.4287 474.818C34.6887 495.518 46.5787 503.888 60.8887 503.888C75.1987 503.888 89.5187 495.518 93.2587 474.818L110.219 378.578H140.829L123.649 476.798C117.479 511.598 86.6487 532.958 55.5987 532.958C24.5487 532.958 1.41873 511.598 7.36873 476.798H7.37874Z" fill="white"/>
<path d="M276.279 378.578L271.659 405.668H229.819L207.799 530.318H177.189L199.209 405.668H157.369L161.989 378.578H276.289H276.279Z" fill="white"/>
<path d="M370.318 449.278C389.258 452.578 395.648 469.758 392.778 486.938C389.038 507.858 370.758 530.328 337.278 530.328H272.528L299.178 378.588H359.298C386.388 378.588 400.918 394.888 396.958 417.788C394.758 429.018 387.928 444.218 370.308 449.278H370.318ZM344.988 464.468H314.818L307.988 503.228H337.718C351.808 503.228 360.618 493.978 362.388 483.848C364.148 474.378 359.528 464.468 344.988 464.468ZM352.918 405.668H325.168L319.218 438.918H346.968C356.658 438.918 363.708 432.528 365.468 422.178C367.228 412.928 363.488 405.658 352.918 405.658V405.668Z" fill="white"/>
<path d="M12.8887 152.049L39.5387 0.308594H70.1487L43.4987 152.049H12.8887Z" fill="white"/>
<path d="M166.609 0.308594C210.219 0.308594 229.819 33.3386 222.109 76.5086C214.619 119.449 183.569 152.049 139.959 152.049H80.499L107.149 0.308594H166.609ZM161.989 27.3986H133.139L115.959 124.959H144.809C170.139 124.959 187.089 102.499 191.499 76.5086C196.119 50.5186 187.319 27.3986 161.989 27.3986Z" fill="white"/>
<path d="M354.469 27.3984H289.719L283.549 63.5184H339.929L335.309 91.0484H278.709L272.759 124.968H339.269L334.429 152.058H237.309L263.959 0.318359H359.099L354.479 27.4084L354.469 27.3984Z" fill="white"/>
<path d="M457.969 152.049L452.019 115.709H395.199L376.699 152.049H344.109L427.359 0.308594H460.389L490.119 152.049H457.969ZM408.859 89.0686H447.619L438.149 31.5886L408.859 89.0686Z" fill="white"/>
</svg>
