<svg xmlns="http://www.w3.org/2000/svg" viewBox="0 0 889.24 480"><defs><style>.cls-1{fill:#ff4b41;}.cls-2{fill:none;stroke:#00e34a;stroke-miterlimit:10;stroke-width:0.91px;}</style></defs><g id="Layer_2" data-name="Layer 2"><g id="Vrstva_1" data-name="Vrstva 1"><circle class="cls-1" cx="439.95" cy="209.33" r="181.2"/><path class="cls-2" d="M.2,427.31l205.33-98.52c9.22-4.3,19.53-9.19,20.28-8.76,20-10.22,33.4-16.8,3.16,2,39.43-21.06,35.2-16.71,2.2,5.34,29-17,40.55-23.46,1.79,1.19,25.32-15.21,33.19-19.64,2.57-.09,28.85-17.48,19.21-11-1.66,2.61,27-16.62,38.08-23.17,2,.52,39.8-24.88,32.42-19.53.13,2,30.36-19.19,37.73-23.43,2,.78,32.63-20.95,22.15-13.45-.62,2.28,24.31-15.82,35.33-22.72,2.1.52,38-25.2,31.81-20.26.36,2.16,35.33-23.8,42.71-28.24,1.76,1.38,38.13-26.16,27.94-18.26.25,2.18,25.84-18,35.71-24.47,2.08.73,36.52-25.92,29.54-20.12.36,2.11,42.25-30.13,31.93-21.39,1.31,2.81,22-16.46,32.86-24.42,1.8-.15,35.72-27,29.54-21.69,0,1.78,24.86-19,35.19-26.8,1.64-.17,37-28.59,30.19-22.8-.08,1.5,29.95-23.27,36.47-28,1.45.34,31.83-24.94,22.12-16.76-.44,1.79,28.5-22.6,39.87-31.39,1.53.39,26-20.87,32.92-26.23,1.69-.32,29-23.41,19.84-15.53-1.09,2,26.37-21.49,36.41-29.51,1.46,0,38.64-31.78,32.29-26.06.14,1.33,29.5-24.43,35.75-29.32,1.4.16,30.88-25.77,21.17-17.16-.59,1.72,21.1-17.73,31.08-26,2-.56,32.85-27.85,26.61-22-.29,1.71,29.48-25.22,36.58-31,1.47.17,32.7-28.21,23.19-19.46-.4,1.72,33.44-28.93,39.45-33.61,1.62,1,34.27-30.11,24.69-20.89.33,1.78,27.77-24.77,38.83-34.35,1.65.77,27.56-25,34.79-31.25,1.54.24,31.95-29.2,23.41-20.66,0,1.92,19.57-18.18,29-26.79,1.83-.82,30.8-28.77,25.09-22.95-.29,1.65,29.85-28.16,36-33.71,1.21.25,32.39-30.75,23.75-22-.1,1.54,22.62-21.61,31.36-29.78,1.61-.27,32.28-31.12,26.07-24.55,0,1.55,38.06-36.86,29-27.08.84,1.8,17.28-17,26.36-25.83,2-1,28.19-27.87,23-22.06-.18,2,29.42-29.52,35.9-35.65,1.38.51,32.7-33.09,24.39-23.88.31,1.74,18.65-19.15,27.39-28.08,1.56-.88,29.2-30.08,23.83-24-.18,1.57,26.57-27.66,33-34.1,1.18-.11,29.74-31.06,21.32-21.68-.24,1.63,31.51-33.15,37.66-39.18,1.41.73,33.51-35.66,24.63-25.36.43,1.59,20.85-22.31,30.08-32,1.59-.08,32.48-35.17,27.25-28.65.6,1.72,29.65-32.56,35.66-38.75,1.38.67,31.93-35.43,23.58-25.24.45,1.66,31.41-35,37-40.58,1.87,1.34,32-36.37,23.36-25.28.91,1.87,23.23-26.75,32.68-37.43,1.65.73,36-42.28,31.57-35.72,1.56,2.07,23.51-28.07,32.15-38.29,1.35.34,34.4-41.69,29.36-34.53,1,1.59,28.21-34.49,33.08-40,1.36.78,28.95-35.72,21.31-25.1.67,1.66,24.09-30.13,32.78-41,1.31.48,35.3-45,30.44-37.64,1.13,1.6,22.15-28.37,29.61-38.08.94,0,31.54-41,27-34.21.58,1.14,23.61-30.64,28.66-37.16,1-.11,25.49-33.08,18.24-22.58.16,1.64,23.59-30.91,31.31-41,1.38.51,32.78-43.91,27.91-36.16,1.06,1.51,22.7-30.3,27.57-36.67,1.27.09,24.11-32.24,17-21.36.4,1.9,26.67-36.61,34.93-47.86,1.76,1.19,24.77-34.56,30.27-42.18,1.16.4,28.1-39.61,21.6-29,.74,1.53,22.66-32.15,29.92-42.75,1.09.3,31.73-46.13,27.38-38.6.94,1.26,24.72-35.89,29.12-42.22,1,.35,25.92-37.85,19.34-26.81.56,1.37,22.94-33.54,29.69-43.57,1.44.71,30.74-46.37,26.48-38.44,1.24,1.43,32.92-50.3,25.53-36.74,1.73,1.82,16-24,22.66-35,.71-.69,24.94-38.4,21.31-31.59.62,1.45,26.37-41.66,31.41-49.71,1.08.56,29.48-47.11,23.59-35.91,1.08,1.37,19.68-31.06,26.59-42.91.73-.14,29-47.3,25.35-40,.83,1.14,29-47.92,32.94-54.41,1,.64,30-50.08,24.18-38.61.92,1.12,22.47-37,28.81-48.14,1,.33,30.25-51.43,26.36-43.25,1.08,1.17,22.7-38,26.6-44.74,1,.26,23.85-40.12,18.2-28.54.8,1.42,20.61-35.06,26.92-46.8.92.29,29.49-52.24,26.66-45.66,1.26,1.2,21.25-37.06,27.11-48.3.74.08,28.87-52.1,25.52-44.57.91,1,23.64-42.24,27.46-49.41.89.27,25-45,19.68-33.23.83,1.24,21.89-39.67,27.94-51.77.86.25,29.85-56.26,26.57-48.41,1.1,1.06,20.12-36.73,25.58-48.06.53-.22,26.94-50.87,23.36-42.56.68.94,31.31-60.93,26.3-49,1.16,1.06,21.66-40.81,27.12-52.16,1,.32,28.27-55.43,25-47,1.16,1.09,30.85-61.78,25.32-47.63,1.79,1.48,24.17-48.23,30.34-61.51,1.72,1,23.72-48.19,27.39-56.1,1.08.49,25.67-53,21.38-41.57,1.13,1.12,21.31-43.67,26.67-56.1,1,.33,28-60.23,25-51.58,1.3,1.09,22.8-48.34,26.09-55.82,1.05.38,23.76-50.92,19.19-38.17,1,1.14,22.26-48,27.1-59.39,1.68.86,28-63.86,25.72-56.09,1.81,1.26,20.92-46.3,23.83-53.12,1.32.49,21.43-48,17.43-35.59,1.24,1.26,18.05-40.38,22.78-53.07,1,.28,24.51-58.63,22.54-51.21,1.72,1.24,19.29-45.3,23.58-57.27.93.25,24.79-61.6,22.65-53.71,1.39,1,21-51.43,23.93-59.19,1.28.49,22.06-54.85,18.55-42.26,1.45,1.2,20.41-51.78,24.72-64.55,1.39.6,19.72-50.39,22.59-59,.84.19,21.59-56.35,18.55-44.94,1.16,1,18.75-48.64,22.62-60.92.92.21,23.58-65.06,21.6-56.7,1.35.92,19.84-53.61,22.29-61.15,1.06.32,20.58-56.39,17.47-43.78,1.24,1,21.62-61.78,25.46-74,2.14,1,19.2-54.89,21.78-63.52,1.1.32,20.49-60,17.72-47.59,1.33,1,19.55-57.81,22.12-65.9,1.94.78,20.11-61.39,17.47-48,1.87,1.16,16.93-51.16,20.49-64.7,1.66.58,21.44-71.22,20.5-63.62,2.58,1.31,16.62-53.69,19.7-66.56,1.27.35,20.3-71.23,19.09-62.68,1.9,1,17.41-60,19.49-68.18,1.6.5,17.93-63.53,15.88-50.19,1.8,1.07,15.91-57,18.79-70.71,1.48.44,19.25-76,18.31-67.27,2.17,1,14.78-55.33,17.06-67.43.85.12,17.53-71.48,16.56-63.31,1.36.68,18.85-81.47,17.37-68.19,2.2,1,14.6-58.94,16.94-71.63,1.73.46,16.83-75.54,16.12-66.3,2.16.93,17.4-82.57,16.19-67,3.19,1.25,14.15-67,16.51-81.44,2.84.87,13.35-67.08,14.73-75.68,1.71.45,13.67-72.5,12.94-60.27,2,.8,11.92-62.19,13.56-75.53,1.57.33,13.4-80.11,13.16-71,2.12.76,11.6-67.32,12.65-75.34,1.58.33,11.57-70.26,11-56.83,1.7.71,10.72-64.79,12.16-77.63,2.45.55,11.31-81.46,11.48-71.89,2.73.83,11.05-86.87,11.21-70.46,3.69,1,8.89-71.26,10.09-87.44,3.44.73,8-74,8.77-83.43,2.45.47,7.67-80.54,8.26-67.75,2.82.73,6.35-61.18,6.64-74.46,1.1,0,6.35-79.8,6.87-71.82,2,.51,5.7-76.68,6-85.65,1.83.27,5.27-81.63,6-68.38,2,.5,4.79-67.7,4.85-79.78,1.54.14,4.15-83.44,4.92-74.89,2,.42,3.51-90.27,4.85-75.94,3.15.56,2.86-77.48,2.68-92.8,3,.36,1.91-77.93,1.8-87,1.94.17,1.15-83.69,2.55-71.11,2.21.39.42-81.55-.16-94.6,2.06.17-1.41-98.3,0-88.78,2.47.29-.93-82.58-1.27-91.2,2,.13-1.83-86.4,0-72.84,1.94.26-.61-67.26-1.68-80.41,1.35,0-2.7-85.38-1.29-77.24,2.09.24-3-81.05-3.57-89.45,1.77,0-3.9-85.13-1.86-72.36,1.81.21-4.18-83.56-4.58-91,2.63.06-5.18-85-2.76-71.58,2.18.16-3.42-66.88-5-80,1.6-.09-6.46-85.81-4.75-78.64,2.5.12-7.68-87.89-8.42-95.74,2.58,0-9-91.27-6.23-78.95,2.52.05-9.24-87-11.2-100.24,2.38-.09-9.27-82.49-10.54-90.67,1.26-.09-10.37-86.62-7.67-74.49,1.4.06-10.88-87.19-12.14-95.75,2.12-.13-12.25-90.63-9-77.09,1.86,0-8.78-70.55-11.13-82.89,1.24-.17-12.61-87.38-10.51-79.69,1.77,0-11.82-80.71-13.46-89.44,1.37-.17-13.28-85.63-10.09-73.24,1.46,0-12.32-79.64-13.77-87.58,1.81-.22-13.53-82.41-10-69.52,1.63,0-11.37-70.65-14.3-83.5,1.24-.21-16.17-89.16-13.87-82.17,2.19-.16-13.58-75.55-16.47-87.66,1.18-.21-18.1-92-15.65-84.38,1.8-.15-15.9-81.44-17.67-89.4,1.67-.28-17.25-84.85-13.38-72.61,1.9-.14-17.08-81.36-20.41-94.36,1.88-.3-17.28-79.85-19.54-88.57,1.15-.25-19.28-85.89-15.6-74.75,1.55-.13-17.48-77.64-20.93-90,1.29-.29-22.75-94-19.84-86,1.81-.24-19.78-82.22-21.82-89.87,1.49-.33-21-85-16.75-72.73,1.63-.18-23.14-89.85-26.58-102.26,3-.6-21.94-82.58-24.49-91.28,1.59-.4-24.09-87.6-19.54-75.63,1.77-.26-24.48-87.22-26.36-94.42,2.81-.66-26-88.83-21-76.7,2.5-.51-23.13-77.88-27.75-91.69,2.47-.67-31.2-97.76-27.57-90.69,3.77-.93-28.77-86.71-33-98.56,2.2-.64-35.52-101.8-31.61-93.83,2.75-.76-31.2-88.36-34.07-96.72,2.61-.82-33.74-92.16-27.92-80.06,2.5-.72-30.86-82.76-35.9-95.5,2.47-.85-39.74-101-36.06-94.7,3.31-1.09-31.06-78.11-36.18-90,1.56-.64-38.74-93.65-34.63-86,2-.68-43.68-102.86-36.87-90.45,3.38-1.23-38.38-88.23-43.3-99.64,3.05-1.23-46.09-101.23-40.9-92.63,3.2-1.29-38-82.28-41.2-89.67,2.52-1.13-40.25-84.54-33.59-73.14,2.19-.88-41.66-85.83-48.48-100.22,4.51-2.12-43.3-84.68-47.35-93.21,2.9-1.44-47.08-89.21-39.85-78.13,2.85-1.36-46.73-85.9-53-97.69,2.87-1.52-45.61-81.39-49.54-88.62,1.59-.9-48.28-84.64-41.49-74.33,1.57-.77-49-84.95-53.06-92.64,2.69-1.54-51.88-87.37-44-76,2.25-1.22-41.91-69.78-48.54-80.83,1.83-1.18-52-84.24-47.08-77.79,2.28-1.3-50.31-79.77-54.39-86.77,2.1-1.35-53.11-82.34-45.64-72.25,1.85-1.08-50.82-78-54.68-84.84,2.88-1.93-53.12-79.07-44.83-68.39,2.25-1.42-46.54-67.88-54.3-79.47,2.13-1.54-58.78-83.61-53.37-77.69,3.14-2.17-50.89-70.18-58.38-80.85,1.84-1.43-62.07-83.83-56.44-77.57,2.4-1.73-55.87-74-60.59-81,2.36-1.88-58.84-76.14-50-66.09,2.22-1.64-57-72-65.19-83,2.35-2-70.49-87-65.25-82.08,3.13-2.58-56.21-67.07-64.33-77.25,1.59-1.46-67.94-79.78-61.83-73.57,1.93-1.63-75.22-87.25-65.16-77.24,3.28-2.92-66.42-74.38-74.47-84.44,3.09-3-77.93-84.7-70.25-77.86,3.22-3.11-66.47-69.73-71-75.53,2.66-2.75-68.46-69.74-58.82-60.9,2.14-2.15-60.64-60.05-70-70.2,2.12-2.37-75.37-73.38-69.34-68.79,2.85-3.11-63.2-59-72.28-68.26,1.55-1.9-76.29-70.34-69.67-65,1.9-2.15-85-77.61-74.13-69.18,3.36-4-66.26-57.05-76.11-66.46,1.58-2.09-80.61-68.65-73.69-63.53,1.94-2.43-79.78-66.32-86.6-73,2-2.78-85.07-69.12-74.67-61.31,1.84-2.46-68.06-53.35-77.39-61.72,1.6-2.39-80.9-62.59-73.48-57.47,1.68-2.35-86-65.79-73.48-57.16,2.45-3.6-74-54-84.6-63.05,2.19-3.51-90.45-64.74-83.52-60.88,2.52-4.08-70.27-47.12-80.42-55,1.16-2.12-84.31-56.22-76.9-51.68,1.28-2.13-92.31-61.2-80.16-53.84,2-3.49-71.63-44.89-81.33-52.26,1.54-3-84.63-52.23-76.69-47.87,1.49-2.77-88.21-53.71-74.68-46.13,1.95-3.84-75-43-86.82-51.31,1.74-3.78-75.19-41.28-83-46.7,1.11-2.62-81.18-43.85-70.39-38.2,1.13-2.32-81.43-43-92.38-50,1.2-2.93-96.08-50.22-87.62-46.32,1.34-3.21-83.1-41.42-90.62-46.35,1.2-3.19-86.89-42.14-74.44-36.2,1-2.51-77.32-35.88-89-42.61.94-2.74-94.74-44-87.94-41.33,1.13-3.18-73-31.29-84.19-37.26.51-1.81-88.06-38.08-80.26-34.74.62-1.7-96.82-42.06-84.08-36.7,1-2.94-74.93-30.25-86.47-36.29.75-2.8-89.94-36.22-81.13-32.9.79-2.57-95.45-38.14-80.55-32.45,1-3.68-78.87-29-91-35,.8-3.34-76.14-26.43-84.43-30.35.41-2.05-81.71-28-70.3-23.8.46-1.5-72.46-23.76-83.83-28.73.33-1.85-87.56-29.16-79.59-26.47.42-1.65-95.85-32.17-82.84-27.81.6-2.65-70.74-21.4-81.69-26,.35-2.32-83.94-25.51-74.88-22.68.41-1.78-87.42-26.51-73.5-22.1.49-2.42-71.45-19.78-85.14-25.09.35-2.57-91.56-26.1-83.95-24.37.57-3.39-80.83-21.06-92.91-25.48.27-2.26-75.21-18.36-83.67-21.38.1-1.52-80.34-19.47-68.46-16.07.26-1-82.52-20.2-91-23.42.27-2.72-86.51-20.54-73.2-17.15.32-2.17-76.9-17-90.63-21.47.2-2.65-76.87-16-85-18.66.09-1.83-81.66-16.76-70.05-14,.22-1.44-71.77-13.7-84.87-17.6,0-2-89-17.69-80.07-15.87.2-1.91-78.2-14.32-85.1-16.52,0-2-79.13-13.89-66.21-11.11.19-1.32-64.47-10-77-13.34-.07-1.8-81.49-13.48-73.54-12.07.16-1.58-77-12.06-85-14.31,0-2-80.47-12.23-68-9.87.15-1.34-78.84-11.83-86.07-14,0-2.87-79.91-11.13-66.52-8.93.11-2-66.71-7.88-80.17-11-.11-2.32-85.92-11-78.31-10.3,0-2.69-67.06-6.59-79.78-9.21-.17-1.79-83.9-9.05-75.47-8.07,0-1.7-71.84-6.6-79.92-8.36-.2-2-74.66-6.43-61.53-4.75.13-1.23-67.23-5-80.53-7.43-.21-1.78-85.1-7.26-76.59-6.49,0-1.79-82.84-6.45-92.12-8.2-.19-2.15-88.4-6.56-75.59-5.33-.06-1.73-65.52-3.09-77.74-5-.29-1.87-80.79-4.42-71.92-3.81,0-1.56-86.51-5-71.55-4-.15-2.41-69.82-2.37-83.19-4.24-.34-2.42-66.61-1.21-75.66-2.4-.32-1.58-72.34-1.26-60.29-.52.06-1-62.57-.29-75-1.63-.33-1.47-78.6-1.18-70.18-.85-.06-1.2-87.64-1.87-73.92-1.39-.2-2-60.79.68-73.06-.54-.46-2-75.13.35-65.4.51-.08-1.43-79.62.12-64.71.38-.23-2.06-61,1.74-75,.67-.49-2.12-80.54,1.38-72.47,1.06-.33-2.34-60.24,2.88-73.28,2.19-.44-1.51-77.29,2.83-68.72,2.64-.16-1.37-64.85,3.38-73.06,2.88-.46-1.59-67.56,3.82-54.3,3.67,0-.91-55.91,4-69.16,3.66-.46-1.36-74.66,4.3-67.38,3.95-.17-1.27-69.06,4.55-78.2,4.22-.46-1.57-73.19,5-59.5,4.6-.05-1-56.3,5.05-68.75,4.94-.52-1.33-71.13,5.7-61.58,5.24,0-.9-77.55,5.73-63.21,5-.24-1.46-54.61,5.62-67.7,5.66-.54-1.49-72.74,6.55-65.22,5.92-.24-1.33-66,6.62-74.55,6.61-.47-1.43-69.37,7.19-56.12,6.34-.05-.86-63.62,6.89-71.58,6.88-.56-1.65-64.93,7.52-50.88,6.5,0-.81-46.47,6.63-59.62,7.15-.62-1.19-64.68,8.07-57.21,7.27-.11-1.05-49.08,7.28-60.83,7.87-.59-1-63.13,8.62-54.26,7.78.07-.59-71.86,9-59.45,7.67-.28-1.39-49.55,7.77-63.1,8.63-.56-1-68,9.55-59.81,8.62-.08-.83-64.13,9.3-73.26,9.81-.49-1.18-68.43,10-55,8.54-.05-.8-53.62,8.77-65.82,9.68-.52-1.07-68.86,10.54-60.21,9.43-.15-.86-52.16,9-60,9.58-.64-1.08-54.71,9.72-42.21,8.22.3-.35-42.78,8.26-55.54,9.46-.75-1-59.67,10.53-51.78,9.41.1-.61-60.1,10.48-69,11.24-.5-1.07-65.06,11.35-52.66,9.61-.06-.78-44.08,9-56.44,10.4-.63-.73-60.19,11.37-52.21,10.23.15-.33-55.57,10.67-64.51,11.64-.46-.72-60.6,11.6-48.2,9.86.2-.29-62.08,11.55-70.49,12.4-.49-1-65.11,12.28-51.82,10.27,0-.64-45.9,9.74-58.69,11.32-.62-.91-62.91,12.44-54.95,11.09,0-.67-58.32,11.82-66.45,12.78-.47-.89-61.67,12.6-49.24,10.56,0-.52-57.43,11.83-65.69,12.77-.62-1.22-59.69,12.57-46,10.21,0-.68-41.45,9.77-54.22,11.6-.74-1-58.64,12.88-51,11.37-.05-.77-57.89,12.76-66.88,14-.57-1.1-62.71,13.88-50.12,11.45-.1-.8-52.9,12.29-65.72,14.29-.56-1-48.66,11.92-57.71,13.39-.62-.71-54.47,13.31-42.8,11.06.33-.24-57.1,13.48-64.16,14.54-.51-.92-57.67,13.88-44.63,11.25,0-.52-50.82,12.46-63.73,14.61-.72-1.25-66.44,15.83-57,13.66-.28-1-47.62,12.35-55.22,13.64-.71-.94-49.37,13.11-36.64,10.34.32-.36-35.39,10-47.76,12.34-1.11-1.09-51.13,13.77-43.25,11.78.16-.8-53.31,14.07-61.92,15.57-.71-1.27-58.21,15.42-46.59,12.49-.26-1.1-38.73,11.39-51,14-.77-.77-54.69,15.33-46.86,13.31,0-.61-50.25,14.26-59.22,16.12-.64-.88-55.26,15.73-43,12.61.07-.59-37.87,11.59-49.74,14.22-1-.89-51.86,15.39-43.12,13.05.21-.55-60.61,17.21-47.24,13.57-.28-1.08-47.3,14.14-61,17.28-.79-1.21-44.19,13.79-52.6,15.73-.77-.81-48.69,15.27-37.14,12.06.3-.49-43.5,13.76-55.45,16.7-.65-.76-58.83,18.07-50.92,15.73-.15-.68-45.55,14.59-53.57,16.54-.72-.77-48.58,15.74-36.28,12.21.29-.43-44.72,14.41-56.82,17.44-.82-1.12-59.5,18.83-50.89,16.07-.32-1-42.56,14.24-50.09,16.13-.89-.95-44.61,15.23-32.49,11.5.33-.52-45.2,15.1-58.19,18.54-.9-1.34-40.43,14.17-49,16.49-.93-.83-45.18,16-33.77,12.27.38-.54-38.92,13.88-50.49,17.23-.76-.72-53,18.49-44.69,15.68,0-.65-39.63,14.37-47.87,16.75-.94-.7-43.33,15.92-31.51,12,.53-.38-34.05,12.61-45.22,15.9-1.13-1-46.78,17.11-38.3,14.08.08-.76-52.82,18.84-39.6,14.13-.34-1.13-38.13,13.65-49.87,16.63-2-3.1-51.62,18.78-43.64,14.85-1.54-3.2-37.45,14.42-45.59,16.48-2.12-2.78-40.38,16.24-29.14,11.14-.56-2.17-30.49,10.83-6.81-.53,15.92-11.43C818.53,34.65,889,.41,889,.41"/></g></g></svg>