<svg width="225" height="32" viewBox="0 0 225 32" fill="none" xmlns="http://www.w3.org/2000/svg">
<g clip-path="url(#clip0_96_24)">
<path d="M195.5 2.76123L198.636 0.894531H197.644L194.762 2.19275L191.831 0.894531H190.895L194.056 2.76123H195.5ZM197.024 12.8406C198.398 12.3971 199.418 11.6311 199.556 10.5425C199.556 9.01448 197.769 8.40568 196.012 8.04282C193.46 7.53482 191.645 7.11149 191.359 6.00679C191.317 5.89468 191.298 5.77551 191.303 5.65603C191.359 4.4465 193.032 3.72482 194.564 3.72482C196.096 3.72482 197.116 3.92641 198.112 4.85774L198.963 4.57955C197.854 3.59177 196.35 3.32971 194.564 3.32971C193.305 3.28879 192.052 3.52697 190.895 4.0272V0.894531H188.634L182.864 8.37746H182.812L176.933 0.894531H174.728V10.0789H175.804V2.05568L182.255 10.22H180.268V19.3841H181.179V11.3771L187.718 19.6381H187.747L194.33 11.2642V19.3841H196.262V13.3043H199.676V21.8516H201.664V13.3043H205.773V12.8527L197.024 12.8406ZM196.278 12.3124V10.22H194.016L192.165 12.6189C191.425 12.4455 190.745 12.0749 190.198 11.5464L189.258 11.8931C189.984 12.5172 190.869 12.9275 191.815 13.0785L188.251 17.6989H188.194L182.384 10.3006L188.96 1.94279V10.0789H190.895V7.82914C192.15 8.25117 193.432 8.58395 194.734 8.82498C196.834 9.27654 197.459 10.0748 197.459 10.8409C197.459 11.4376 197.032 11.9617 196.278 12.3205" fill="white"/>
<path d="M158.174 24.1426H158.633L159.855 26.7672L161.097 24.1426H161.52V27.0374H161.234L161.246 24.3925L160.02 27.0374H159.69L158.428 24.3925L158.456 27.0374H158.174V24.1426Z" fill="white"/>
<path d="M162.915 24.1426H162.625V27.0374H162.915V24.1426Z" fill="white"/>
<path d="M164.016 24.1426H164.387L166.41 26.739V24.1426H166.693V27.0374H166.306L164.298 24.4409V27.0374H164.016V24.1426Z" fill="white"/>
<path d="M168.088 24.1426H167.797V27.0374H168.088V24.1426Z" fill="white"/>
<path d="M169.374 26.0817C169.374 26.5211 169.729 26.8114 170.289 26.8114C170.85 26.8114 171.188 26.5736 171.188 26.2188C171.188 25.864 170.955 25.8156 170.467 25.7188L169.85 25.61C169.39 25.5293 169.164 25.2915 169.164 24.8883C169.164 24.3924 169.568 24.0537 170.265 24.0537C170.963 24.0537 171.39 24.3883 171.406 24.9407H171.116C171.08 24.5375 170.793 24.3158 170.273 24.3158C169.753 24.3158 169.467 24.5416 169.467 24.8722C169.467 25.2028 169.705 25.2753 170.189 25.364L170.741 25.4608C171.265 25.5535 171.503 25.7793 171.503 26.2067C171.503 26.763 171.072 27.0977 170.326 27.0977C169.58 27.0977 169.088 26.6945 169.088 26.1099V26.0696H169.382L169.374 26.0817Z" fill="white"/>
<path d="M173.256 24.4087H172.14V24.1426H174.664V24.4087H173.543V27.0374H173.256V24.4087Z" fill="white"/>
<path d="M175.414 24.1426H177.64V24.4127H175.704V25.4247H177.49V25.6988H175.704V26.7632H177.64V27.0374H175.414V24.1426Z" fill="white"/>
<path d="M178.567 24.1426H179.954C180.643 24.1426 180.994 24.4046 180.994 24.9207C181.011 25.0809 180.969 25.2418 180.878 25.3742C180.786 25.5066 180.65 25.6018 180.494 25.6424C180.82 25.6948 180.897 25.848 180.937 26.1907C180.927 26.4795 180.975 26.7675 181.078 27.0374H180.74C180.674 26.7649 180.635 26.4868 180.623 26.2068C180.587 25.9085 180.421 25.8037 180.058 25.8037H178.849V27.0454H178.559L178.567 24.1426ZM178.857 24.4127V25.5214H179.921C180.458 25.5214 180.699 25.3723 180.699 24.9651C180.699 24.5578 180.445 24.4127 179.893 24.4127H178.857Z" fill="white"/>
<path d="M182.187 26.0817C182.187 26.5211 182.542 26.8114 183.106 26.8114C183.671 26.8114 184.001 26.5736 184.001 26.2188C184.001 25.864 183.771 25.8156 183.28 25.7188L182.663 25.61C182.203 25.5293 181.977 25.2915 181.977 24.8883C181.977 24.3924 182.381 24.0537 183.082 24.0537C183.784 24.0537 184.203 24.3883 184.219 24.9407H183.929C183.896 24.5375 183.606 24.3158 183.09 24.3158C182.574 24.3158 182.284 24.5416 182.284 24.8722C182.284 25.2028 182.522 25.2753 183.005 25.364L183.554 25.4608C184.078 25.5535 184.316 25.7793 184.316 26.2067C184.316 26.763 183.888 27.0977 183.143 27.0977C182.397 27.0977 181.905 26.6945 181.905 26.1099V26.0696H182.195L182.187 26.0817Z" fill="white"/>
<path d="M186.069 24.4087H184.953V24.1426H187.477V24.4087H186.36V27.0374H186.069V24.4087Z" fill="white"/>
<path d="M187.908 24.1426H188.223L189.388 26.7874L190.549 24.1426H190.868L189.569 27.0374H189.202L187.908 24.1426Z" fill="white"/>
<path d="M192.931 27.1144C192.63 27.1152 192.335 27.0265 192.084 26.8595C191.832 26.6926 191.636 26.4548 191.52 26.1764C191.405 25.898 191.374 25.5915 191.432 25.2956C191.49 24.9997 191.635 24.7277 191.848 24.5142C192.061 24.3007 192.333 24.1551 192.629 24.096C192.924 24.0369 193.231 24.0668 193.51 24.182C193.788 24.2973 194.027 24.4926 194.194 24.7433C194.362 24.994 194.451 25.2888 194.451 25.5904C194.47 25.7948 194.443 26.0008 194.373 26.1938C194.304 26.3868 194.192 26.5622 194.047 26.7075C193.902 26.8528 193.727 26.9646 193.535 27.0349C193.342 27.1052 193.136 27.1323 192.931 27.1144ZM194.141 25.5904C194.135 25.3527 194.058 25.1221 193.922 24.9274C193.785 24.7328 193.594 24.5828 193.372 24.4962C193.151 24.4096 192.909 24.3902 192.676 24.4404C192.444 24.4907 192.231 24.6084 192.065 24.7787C191.899 24.9491 191.787 25.1646 191.743 25.3983C191.699 25.632 191.725 25.8735 191.817 26.0927C191.91 26.3118 192.065 26.4988 192.263 26.6304C192.461 26.7619 192.694 26.8321 192.931 26.8322C193.096 26.8442 193.261 26.82 193.416 26.7613C193.57 26.7027 193.71 26.611 193.825 26.4927C193.94 26.3744 194.028 26.2324 194.083 26.0765C194.137 25.9206 194.157 25.7547 194.141 25.5904Z" fill="white"/>
<path d="M197.278 26.081C197.278 26.5205 197.637 26.8108 198.197 26.8108C198.757 26.8108 199.096 26.5729 199.096 26.2181C199.096 25.8633 198.862 25.8149 198.374 25.7182L197.758 25.6093C197.298 25.5287 197.072 25.2908 197.072 24.8876C197.072 24.3917 197.475 24.053 198.173 24.053C198.87 24.053 199.294 24.3877 199.314 24.94H199.024C198.987 24.5369 198.697 24.3151 198.181 24.3151C197.665 24.3151 197.375 24.5409 197.375 24.8715C197.375 25.2021 197.612 25.2747 198.096 25.3634L198.649 25.4601C199.173 25.5529 199.411 25.7786 199.411 26.206C199.411 26.7624 198.979 27.097 198.233 27.097C197.487 27.097 196.996 26.6938 196.996 26.1092V26.0689H197.286L197.278 26.081ZM198.588 23.2588H198.899L198.362 23.8515H198.032L197.475 23.2588H197.786L198.189 23.6862L198.588 23.2588Z" fill="white"/>
<path d="M200.378 24.1426H200.664V25.7271L202.458 24.1426H202.857L201.495 25.3561L202.857 27.0374H202.491L201.281 25.5416L200.664 26.0819V27.0374H200.378V24.1426Z" fill="white"/>
<path d="M204.866 27.1144C204.564 27.1144 204.27 27.025 204.019 26.8576C203.768 26.6901 203.573 26.4521 203.458 26.1736C203.342 25.8951 203.312 25.5887 203.371 25.2931C203.43 24.9975 203.575 24.7259 203.788 24.5128C204.001 24.2996 204.273 24.1545 204.568 24.0957C204.864 24.0369 205.171 24.0671 205.449 24.1824C205.727 24.2978 205.965 24.4931 206.133 24.7437C206.3 24.9943 206.39 25.289 206.39 25.5904C206.408 25.7952 206.382 26.0016 206.312 26.1949C206.242 26.3882 206.13 26.5638 205.985 26.7092C205.839 26.8546 205.664 26.9663 205.47 27.0363C205.277 27.1063 205.071 27.133 204.866 27.1144ZM206.095 25.5904C206.089 25.3535 206.013 25.1237 205.878 24.9296C205.742 24.7354 205.552 24.5854 205.331 24.4982C205.111 24.411 204.87 24.3904 204.638 24.4391C204.406 24.4877 204.194 24.6034 204.027 24.7718C203.86 24.9401 203.747 25.1538 203.7 25.3862C203.654 25.6186 203.677 25.8594 203.766 26.0789C203.856 26.2984 204.007 26.4868 204.203 26.6207C204.398 26.7546 204.629 26.8282 204.866 26.8322C205.032 26.8466 205.199 26.8242 205.356 26.7667C205.512 26.7092 205.654 26.618 205.772 26.4995C205.889 26.381 205.979 26.2381 206.035 26.081C206.091 25.9239 206.111 25.7564 206.095 25.5904Z" fill="white"/>
<path d="M207.333 24.1426H207.619V26.7632H209.442V27.0374H207.333V24.1426Z" fill="white"/>
<path d="M210.478 26.0817C210.478 26.5211 210.837 26.8114 211.397 26.8114C211.958 26.8114 212.296 26.5736 212.296 26.2188C212.296 25.864 212.063 25.8156 211.575 25.7188L210.958 25.61C210.494 25.5293 210.272 25.2915 210.272 24.8883C210.272 24.3924 210.676 24.0537 211.373 24.0537C212.071 24.0537 212.494 24.3883 212.51 24.9407H212.224C212.187 24.5375 211.897 24.3158 211.381 24.3158C210.865 24.3158 210.575 24.5416 210.575 24.8722C210.575 25.2028 210.813 25.2753 211.296 25.364L211.845 25.4608C212.373 25.5535 212.607 25.7793 212.607 26.2067C212.607 26.763 212.179 27.0977 211.434 27.0977C210.688 27.0977 210.196 26.6945 210.196 26.1099V26.0696H210.486L210.478 26.0817Z" fill="white"/>
<path d="M214.364 24.4087H213.244V24.1426H215.772V24.4087H214.651V27.0374H214.364V24.4087Z" fill="white"/>
<path d="M216.199 24.1426H216.518L217.679 26.7874L218.84 24.1426H219.159L217.856 27.0374H217.493L216.199 24.1426Z" fill="white"/>
<path d="M219.937 24.1417H220.227V27.0365H219.937V24.1417ZM220.316 23.2588H220.682L220.207 23.8515H219.973L220.316 23.2588Z" fill="white"/>
<path d="M221.477 26.6865H221.803V27.1542C221.803 27.4324 221.731 27.5775 221.477 27.6622V27.4767C221.526 27.4539 221.567 27.4157 221.593 27.3677C221.619 27.3198 221.629 27.2647 221.622 27.2106V27.0373H221.477V26.6865Z" fill="white"/>
<path d="M163.072 28.6377H163.455L164.467 30.8189L165.495 28.6377H165.85V31.0406H165.612L165.624 28.8433L164.604 31.0406H164.33L163.286 28.8433L163.306 31.0406H163.072V28.6377Z" fill="white"/>
<path d="M166.685 28.6377H166.922V30.8148H168.434V31.0406H166.685V28.6377Z" fill="white"/>
<path d="M169.931 28.6254H170.205L171.301 31.0444H171.055L170.721 30.3026H169.406L169.068 31.0444H168.822L169.931 28.6254ZM170.616 30.0526L170.068 28.8431L169.511 30.0526H170.616ZM170.249 27.8916H170.543L170.14 28.3835H169.943L170.249 27.8916Z" fill="white"/>
<path d="M173.741 28.8564C173.987 29.1249 174.123 29.4759 174.123 29.8401C174.123 30.2044 173.987 30.5554 173.741 30.8239C173.445 31.005 173.097 31.0817 172.753 31.0416H171.878V28.6266H172.753C173.097 28.5865 173.445 28.6632 173.741 28.8443M172.128 28.8443V30.7997H172.761C173.039 30.8297 173.32 30.7763 173.567 30.6465C173.69 30.5479 173.785 30.4193 173.844 30.2731C173.903 30.1269 173.923 29.9681 173.902 29.8119C173.919 29.6602 173.898 29.5065 173.839 29.3654C173.78 29.2243 173.687 29.1005 173.567 29.0056C173.306 28.8762 173.014 28.8244 172.725 28.8564L172.128 28.8443Z" fill="white"/>
<path d="M174.841 28.6377H176.687V28.8594H175.079V29.7021H176.562V29.9279H175.079V30.8148H176.687V31.0406H174.841V28.6377Z" fill="white"/>
<path d="M177.216 30.8072L178.982 28.8598H177.305V28.626H179.32V28.8477L177.518 30.7951H179.32V31.045H177.22L177.216 30.8072ZM178.744 27.9043H179.01L178.55 28.3962H178.276L177.8 27.9043H178.058L178.401 28.2591L178.744 27.9043Z" fill="white"/>
<path d="M179.974 28.6377H181.82V28.8594H180.216V29.7021H181.699V29.9279H180.216V30.8148H181.82V31.0406H179.974V28.6377Z" fill="white"/>
<path d="M184.723 28.625H184.997L186.094 31.044H185.864L185.525 30.3022H184.211L183.848 31.044H183.602L184.723 28.625ZM185.408 30.0522L184.86 28.8427L184.308 30.0522H185.408Z" fill="white"/>
<path d="M188.67 28.8594H187.739V28.6377H189.835V28.8594H188.908V31.0406H188.67V28.8594Z" fill="white"/>
<path d="M190.391 28.6254H192.238V28.8471H190.625V29.6898H192.109V29.9196H190.625V30.8025H192.238V31.0444H190.391V28.6254ZM191.677 27.8916H191.931L191.472 28.3835H191.197L190.734 27.8916H190.992L191.335 28.2464L191.677 27.8916Z" fill="white"/>
<path d="M192.944 28.6377H193.186V30.8148H194.694V31.0406H192.944V28.6377Z" fill="white"/>
<path d="M196.234 31.1052C195.984 31.1052 195.739 31.031 195.531 30.8921C195.323 30.7532 195.16 30.5557 195.065 30.3246C194.969 30.0935 194.943 29.8392 194.992 29.5937C195.04 29.3483 195.161 29.1227 195.337 28.9455C195.514 28.7683 195.739 28.6474 195.984 28.5981C196.23 28.5488 196.484 28.5733 196.715 28.6685C196.947 28.7637 197.145 28.9253 197.284 29.1329C197.424 29.3406 197.499 29.585 197.5 29.8352C197.515 30.0053 197.493 30.1768 197.435 30.3374C197.377 30.498 197.284 30.6439 197.163 30.7647C197.042 30.8855 196.897 30.9782 196.736 31.0364C196.575 31.0945 196.404 31.1166 196.234 31.1012M197.254 29.8352C197.251 29.634 197.19 29.438 197.076 29.2718C196.962 29.1057 196.802 28.9768 196.616 28.9015C196.429 28.8261 196.224 28.8076 196.027 28.8483C195.83 28.8891 195.65 28.9871 195.508 29.1303C195.367 29.2734 195.271 29.4552 195.233 29.6527C195.194 29.8502 195.215 30.0547 195.293 30.2404C195.37 30.4261 195.501 30.5846 195.668 30.6962C195.836 30.8078 196.033 30.8673 196.234 30.8673C196.372 30.8792 196.511 30.8606 196.641 30.8128C196.771 30.7649 196.889 30.6891 196.986 30.5905C197.083 30.492 197.158 30.3733 197.204 30.2427C197.25 30.1122 197.267 29.973 197.254 29.8352Z" fill="white"/>
<path d="M197.887 28.6377H198.149L199.116 30.835L200.076 28.6377H200.342L199.266 31.0406H198.959L197.887 28.6377Z" fill="white"/>
<path d="M201.701 30.0048L200.665 28.626H200.971L201.818 29.7992L202.676 28.626H202.975L201.939 29.9927V31.045H201.701V30.0048ZM202.047 27.9043H202.35L201.947 28.3962H201.749L202.047 27.9043Z" fill="white"/>
<path d="M204.708 28.8064C204.571 28.7959 204.433 28.8154 204.305 28.8635C204.176 28.9116 204.059 28.9873 203.962 29.0851C203.866 29.1829 203.791 29.3006 203.745 29.43C203.698 29.5594 203.68 29.6974 203.692 29.8345C203.679 29.9676 203.694 30.1021 203.737 30.2288C203.781 30.3555 203.85 30.4715 203.942 30.569C204.034 30.6664 204.145 30.7431 204.269 30.7937C204.393 30.8444 204.526 30.8678 204.66 30.8626C204.881 30.878 205.099 30.8129 205.276 30.6795C205.452 30.5461 205.574 30.3533 205.62 30.1368H205.878C205.833 30.4199 205.684 30.6761 205.46 30.8551C205.237 31.0341 204.954 31.123 204.668 31.1045C204.345 31.0814 204.043 30.9353 203.824 30.6963C203.605 30.4573 203.487 30.1434 203.492 29.8195C203.498 29.4955 203.628 29.1861 203.855 28.9549C204.082 28.7236 204.389 28.5882 204.712 28.5766C204.972 28.5453 205.233 28.6162 205.44 28.7743C205.648 28.9324 205.786 29.1651 205.825 29.4232H205.583C205.538 29.2312 205.424 29.0623 205.263 28.9487C205.102 28.835 204.904 28.7844 204.708 28.8064Z" fill="white"/>
<path d="M206.527 28.6377H206.769V29.6416H208.329V28.6377H208.571V31.0406H208.329V29.8674H206.769V31.0406H206.527V28.6377Z" fill="white"/>
<path d="M210.55 31.1052C210.3 31.106 210.055 31.0325 209.846 30.8941C209.638 30.7556 209.475 30.5584 209.378 30.3274C209.282 30.0964 209.256 29.8419 209.304 29.5962C209.352 29.3505 209.472 29.1245 209.648 28.9469C209.825 28.7693 210.05 28.648 210.295 28.5984C210.541 28.5487 210.795 28.573 211.027 28.6681C211.259 28.7631 211.457 28.9248 211.597 29.1325C211.736 29.3403 211.811 29.5848 211.812 29.8352C211.828 30.0049 211.806 30.176 211.748 30.3363C211.69 30.4966 211.597 30.6423 211.477 30.763C211.357 30.8837 211.211 30.9766 211.051 31.035C210.891 31.0934 210.72 31.116 210.55 31.1011M211.566 29.8352C211.564 29.6338 211.502 29.4376 211.388 29.2714C211.275 29.1052 211.114 28.9763 210.927 28.9011C210.741 28.8259 210.536 28.8076 210.338 28.8486C210.141 28.8897 209.961 28.9882 209.819 29.1317C209.678 29.2752 209.582 29.4574 209.545 29.6552C209.507 29.853 209.528 30.0575 209.606 30.2432C209.684 30.4288 209.816 30.5871 209.984 30.6982C210.152 30.8092 210.349 30.8681 210.55 30.8673C210.688 30.8793 210.827 30.8607 210.957 30.8129C211.087 30.765 211.204 30.6891 211.301 30.5905C211.398 30.4918 211.472 30.373 211.518 30.2424C211.564 30.1119 211.58 29.9728 211.566 29.8352Z" fill="white"/>
<path d="M212.199 28.6377H212.461L213.429 30.835L214.392 28.6377H214.655L213.578 31.0406H213.276L212.199 28.6377Z" fill="white"/>
<path d="M216.013 30.0045L214.977 28.6377H215.283L216.134 29.8109L216.993 28.6377H217.287L216.255 30.0045V31.0406H216.013V30.0045Z" fill="white"/>
<path d="M13.0634 16.2281L12.0918 15.5306L13.2892 15.5347L13.6561 14.3896L14.023 15.5306H15.2204L14.2488 16.2281L14.6116 17.357L13.6561 16.6595L12.7006 17.357L13.0634 16.2281Z" fill="white"/>
<path d="M16.5465 20.4897L15.5748 21.1872L15.9417 22.3161L14.9822 21.6146L14.0266 22.3161L14.3935 21.1872L13.4219 20.4897H14.6193L14.9822 19.3447L15.3491 20.4897H16.5465Z" fill="white"/>
<path d="M14.3935 11.2888L13.4219 10.5913H14.6193L14.9822 9.44629L15.3491 10.5913H16.5465L15.5748 11.2888L15.9417 12.4177L14.9822 11.7202L14.0266 12.4177L14.3935 11.2888Z" fill="white"/>
<path d="M18.0101 7.65989L17.0425 6.9624H18.2399L18.6028 5.81738L18.9697 6.9624H20.1671L19.1954 7.65989L19.5583 8.78878L18.6028 8.09129L17.6472 8.78878L18.0101 7.65989Z" fill="white"/>
<path d="M20.1749 24.1146L19.2032 24.8161L19.5661 25.945L18.6106 25.2435L17.6551 25.945L18.0179 24.8161L17.0503 24.1146L18.2437 24.1186L18.6106 22.9736L18.9775 24.1146H20.1749Z" fill="white"/>
<path d="M22.9614 26.1296L21.9897 25.4321H23.1872L23.5541 24.2871L23.921 25.4321H25.1184L24.1467 26.1296L24.5096 27.2585L23.5541 26.557L22.5985 27.2585L22.9614 26.1296Z" fill="white"/>
<path d="M22.9614 6.32969L21.9897 5.6322H23.1872L23.5541 4.49121L23.921 5.6322H25.1184L24.1467 6.32969L24.5096 7.45858L23.5541 6.76109L22.5985 7.45858L22.9614 6.32969Z" fill="white"/>
<path d="M27.9043 24.8161L26.9326 24.1146L28.13 24.1186L28.4969 22.9736L28.8598 24.1146H30.0572L29.0896 24.8161L29.4525 25.945L28.4969 25.2435L27.5414 25.945L27.9043 24.8161Z" fill="white"/>
<path d="M27.9164 7.65989L26.9487 6.9624H28.1421L28.509 5.81738L28.8759 6.9624H30.0733L29.1017 7.65989L29.4645 8.78878L28.5131 8.09129L27.5535 8.78878L27.9164 7.65989Z" fill="white"/>
<path d="M31.5327 21.1872L30.561 20.4897H31.7544L32.1213 19.3447L32.4882 20.4897H33.6856L32.714 21.1872L33.0809 22.3161L32.1213 21.6146L31.1658 22.3161L31.5327 21.1872Z" fill="white"/>
<path d="M31.5327 11.2721L30.561 10.5746L31.7544 10.5786L32.1213 9.43359L32.4882 10.5746H33.6856L32.714 11.2721L33.0809 12.401L32.1213 11.7035L31.1658 12.401L31.5327 11.2721Z" fill="white"/>
<path d="M33.4353 14.374L33.8022 15.519H34.9996L34.028 16.2165L34.3908 17.3454L33.4353 16.6479L32.4798 17.3454L32.8426 16.2165L31.875 15.519H33.0684L33.4353 14.374Z" fill="white"/>
<path d="M0 0V32H47.1231V0H0ZM46.22 31.0848H0.907144V0.87489H46.22V31.0848Z" fill="white"/>
<path d="M12.7006 17.357L13.0634 16.2281L12.0918 15.5306L13.2892 15.5347L13.6561 14.3896L14.023 15.5306H15.2204L14.2488 16.2281L14.6116 17.357L13.6561 16.6595L12.7006 17.357Z" fill="white"/>
<path d="M16.5465 20.4897L15.5748 21.1872L15.9417 22.3161L14.9822 21.6146L14.0266 22.3161L14.3935 21.1872L13.4219 20.4897H14.6193L14.9822 19.3447L15.3491 20.4897H16.5465Z" fill="white"/>
<path d="M15.3491 10.5913H16.5465L15.5748 11.2888L15.9417 12.4177L14.9822 11.7202L14.0266 12.4177L14.3935 11.2888L13.4219 10.5913H14.6193L14.9822 9.44629L15.3491 10.5913Z" fill="white"/>
<path d="M18.0101 7.65989L17.0425 6.9624H18.2399L18.6028 5.81738L18.9697 6.9624H20.1671L19.1954 7.65989L19.5583 8.78878L18.6028 8.09129L17.6472 8.78878L18.0101 7.65989Z" fill="white"/>
<path d="M20.1749 24.1146L19.2032 24.8161L19.5661 25.945L18.6106 25.2435L17.6551 25.945L18.0179 24.8161L17.0503 24.1146L18.2437 24.1186L18.6106 22.9736L18.9775 24.1146H20.1749Z" fill="white"/>
<path d="M25.1184 25.4321L24.1467 26.1296L24.5096 27.2585L23.5541 26.557L22.5985 27.2585L22.9614 26.1296L21.9897 25.4321H23.1872L23.5541 24.2871L23.921 25.4321H25.1184Z" fill="white"/>
<path d="M23.921 5.6322H25.1184L24.1467 6.32969L24.5096 7.45858L23.5541 6.76109L22.5985 7.45858L22.9614 6.32969L21.9897 5.6322H23.1872L23.5541 4.49121L23.921 5.6322Z" fill="white"/>
<path d="M30.0572 24.1146L29.0896 24.8161L29.4525 25.945L28.4969 25.2435L27.5414 25.945L27.9043 24.8161L26.9326 24.1146L28.13 24.1186L28.4969 22.9736L28.8598 24.1146H30.0572Z" fill="white"/>
<path d="M28.8759 6.9624H30.0733L29.1017 7.65989L29.4645 8.78878L28.5131 8.09129L27.5535 8.78878L27.9164 7.65989L26.9487 6.9624H28.1421L28.509 5.81738L28.8759 6.9624Z" fill="white"/>
<path d="M33.6856 20.4897L32.714 21.1872L33.0809 22.3161L32.1213 21.6146L31.1658 22.3161L31.5327 21.1872L30.561 20.4897H31.7544L32.1213 19.3447L32.4882 20.4897H33.6856Z" fill="white"/>
<path d="M31.5327 11.2721L30.561 10.5746L31.7544 10.5786L32.1213 9.43359L32.4882 10.5746H33.6856L32.714 11.2721L33.0809 12.401L32.1213 11.7035L31.1658 12.401L31.5327 11.2721Z" fill="white"/>
<path d="M34.028 16.2165L34.3908 17.3454L33.4353 16.6479L32.4798 17.3454L32.8426 16.2165L31.875 15.519H33.0684L33.4353 14.374L33.8022 15.519H34.9996L34.028 16.2165Z" fill="white"/>
<path d="M24.1467 6.32969L24.5096 7.45858L23.5541 6.76109L22.5985 7.45858L22.9614 6.32969L21.9897 5.6322H23.1872L23.5541 4.49121L23.921 5.6322H25.1184L24.1467 6.32969Z" fill="white"/>
<path d="M19.1954 7.65989L19.5583 8.78878L18.6028 8.09129L17.6472 8.78878L18.0101 7.65989L17.0425 6.9624H18.2399L18.6028 5.81738L18.9697 6.9624H20.1671L19.1954 7.65989Z" fill="white"/>
<path d="M15.5748 11.2888L15.9417 12.4177L14.9822 11.7202L14.0266 12.4177L14.3935 11.2888L13.4219 10.5913H14.6193L14.9822 9.44629L15.3491 10.5913H16.5465L15.5748 11.2888Z" fill="white"/>
<path d="M14.2488 16.2281L14.6116 17.357L13.6561 16.6595L12.7006 17.357L13.0634 16.2281L12.0918 15.5306L13.2892 15.5347L13.6561 14.3896L14.023 15.5306H15.2204L14.2488 16.2281Z" fill="white"/>
<path d="M15.5748 21.1872L15.9417 22.3161L14.9822 21.6146L14.0266 22.3161L14.3935 21.1872L13.4219 20.4897H14.6193L14.9822 19.3447L15.3491 20.4897H16.5465L15.5748 21.1872Z" fill="white"/>
<path d="M19.2032 24.8161L19.5661 25.945L18.6106 25.2435L17.6551 25.945L18.0179 24.8161L17.0503 24.1146L18.2437 24.1186L18.6106 22.9736L18.9775 24.1146H20.1749L19.2032 24.8161Z" fill="white"/>
<path d="M24.1467 26.1296L24.5096 27.2585L23.5541 26.557L22.5985 27.2585L22.9614 26.1296L21.9897 25.4321H23.1872L23.5541 24.2871L23.921 25.4321H25.1184L24.1467 26.1296Z" fill="white"/>
<path d="M29.0896 24.8161L29.4525 25.945L28.4969 25.2435L27.5414 25.945L27.9043 24.8161L26.9326 24.1146L28.13 24.1186L28.4969 22.9736L28.8598 24.1146H30.0572L29.0896 24.8161Z" fill="white"/>
<path d="M32.714 21.1872L33.0809 22.3161L32.1213 21.6146L31.1658 22.3161L31.5327 21.1872L30.561 20.4897H31.7544L32.1213 19.3447L32.4882 20.4897H33.6856L32.714 21.1872Z" fill="white"/>
<path d="M34.028 16.2165L34.3908 17.3454L33.4353 16.6479L32.4798 17.3454L32.8426 16.2165L31.875 15.519H33.0684L33.4353 14.374L33.8022 15.519H34.9996L34.028 16.2165Z" fill="white"/>
<path d="M32.714 11.2721L33.0809 12.401L32.1213 11.7035L31.1658 12.401L31.5327 11.2721L30.561 10.5746L31.7544 10.5786L32.1213 9.43359L32.4882 10.5746H33.6856L32.714 11.2721Z" fill="white"/>
<path d="M29.1017 7.65989L29.4645 8.78878L28.5131 8.09129L27.5535 8.78878L27.9164 7.65989L26.9487 6.9624H28.1421L28.509 5.81738L28.8759 6.9624H30.0733L29.1017 7.65989Z" fill="white"/>
<path d="M56.4449 10.938C56.8164 10.966 57.1877 10.8803 57.5093 10.6921C57.6183 10.6128 57.7057 10.5073 57.7635 10.3855C57.8212 10.2636 57.8475 10.1292 57.8399 9.9946C57.8453 9.83264 57.8063 9.67229 57.727 9.53095C57.6462 9.39311 57.5361 9.27473 57.4044 9.18422C57.2472 9.06775 57.0766 8.97031 56.8964 8.89393C56.6949 8.80524 56.4691 8.71654 56.211 8.62784C55.953 8.53914 55.7031 8.43431 55.4652 8.32546C55.2351 8.22374 55.0217 8.08781 54.8322 7.92228C54.6471 7.75713 54.4964 7.5571 54.3887 7.33365C54.2728 7.07388 54.2163 6.79151 54.2234 6.50714C54.2093 6.20709 54.2649 5.90786 54.386 5.63294C54.507 5.35802 54.6901 5.1149 54.9209 4.92266C55.4672 4.51511 56.1393 4.31247 56.8198 4.35015C57.2388 4.34483 57.6565 4.39637 58.0616 4.50336C58.3576 4.58215 58.6432 4.69584 58.9123 4.84203L58.5091 5.93866C58.2562 5.79805 57.9847 5.69355 57.7028 5.62822C57.41 5.55535 57.1094 5.51879 56.8077 5.51936C56.5062 5.50282 56.2071 5.58183 55.953 5.74514C55.854 5.81726 55.7746 5.91289 55.7218 6.02339C55.669 6.1339 55.6445 6.25581 55.6506 6.37812C55.6448 6.5258 55.6797 6.67225 55.7514 6.80146C55.8268 6.92528 55.9254 7.03342 56.0417 7.11996C56.1787 7.22006 56.326 7.30521 56.4812 7.37397C56.6604 7.4607 56.8449 7.53611 57.0335 7.59974C57.3843 7.72876 57.6947 7.86181 57.9729 8.00292C58.2282 8.11793 58.4625 8.27462 58.6664 8.46657C58.8552 8.64705 59.0036 8.86554 59.1018 9.10762C59.2089 9.39492 59.2596 9.7002 59.251 10.0067C59.2662 10.305 59.2092 10.6025 59.085 10.8741C58.9608 11.1457 58.7729 11.3834 58.5374 11.567C57.9165 11.9673 57.1814 12.1529 56.4449 12.0951C56.1629 12.097 55.8811 12.0768 55.6023 12.0347C55.3731 12.0037 55.1466 11.9552 54.9249 11.8895C54.7314 11.8331 54.5621 11.7726 54.4169 11.7162C54.2996 11.6662 54.1852 11.6097 54.0742 11.5468L54.4774 10.4421C54.7289 10.5738 54.9921 10.6817 55.2636 10.7647C55.6494 10.8791 56.0506 10.9334 56.453 10.9259L56.4449 10.938Z" fill="white"/>
<path d="M65.2339 7.92611C65.1118 7.58162 64.918 7.26694 64.6654 7.00284C64.413 6.74531 64.1076 6.54582 63.7703 6.41824C63.3838 6.27381 62.9734 6.20403 62.5608 6.21262C62.1557 6.21167 61.7511 6.24403 61.3513 6.30938C60.9642 6.37389 60.6377 6.44243 60.3716 6.515V13.9294H61.6859V11.7522C61.8593 11.8424 62.0418 11.914 62.2302 11.9659C62.4677 12.0324 62.7134 12.0649 62.96 12.0627C63.3234 12.0685 63.6837 11.9956 64.0163 11.849C64.3196 11.7133 64.5863 11.5074 64.7944 11.2483C65.0116 10.9739 65.1745 10.6605 65.2742 10.325C65.3876 9.94161 65.4433 9.54349 65.4395 9.1437C65.4435 8.72887 65.3739 8.31662 65.2339 7.92611ZM63.7744 10.4822C63.6581 10.6454 63.5016 10.7758 63.32 10.8605C63.1384 10.9453 62.938 10.9817 62.7382 10.9661C62.5323 10.9681 62.3276 10.9339 62.1335 10.8653C61.9725 10.8118 61.8193 10.7372 61.6779 10.6435V7.41811C61.8096 7.38079 61.9446 7.35649 62.081 7.34554C62.2101 7.34554 62.3391 7.34554 62.46 7.34554C62.6934 7.32432 62.9285 7.3569 63.1472 7.44078C63.366 7.52465 63.5626 7.65758 63.722 7.82935C64.0088 8.21924 64.1513 8.69666 64.1251 9.17999C64.1426 9.63956 64.0203 10.0936 63.7744 10.4822Z" fill="white"/>
<path d="M71.6522 7.92627C71.5301 7.58421 71.3425 7.26923 71.0998 6.99897C70.8617 6.74032 70.57 6.53669 70.2451 6.40227C69.9 6.25985 69.5298 6.18854 69.1565 6.19262C68.7845 6.18774 68.4154 6.25909 68.072 6.40227C67.7482 6.53879 67.457 6.74212 67.2173 6.99897C66.972 7.268 66.7828 7.58325 66.6609 7.92627C66.5237 8.31452 66.4568 8.72409 66.4633 9.13579C66.4579 9.54743 66.5247 9.95682 66.6609 10.3453C66.7794 10.6939 66.9673 11.0148 67.2132 11.2887C67.4509 11.5453 67.7392 11.7499 68.0599 11.8895C68.407 12.0348 68.7802 12.1075 69.1565 12.1032C69.534 12.1063 69.9083 12.0336 70.2572 11.8895C70.5802 11.7519 70.8702 11.5471 71.1079 11.2887C71.353 11.018 71.5397 10.6995 71.6562 10.3534C71.7888 9.96409 71.8542 9.55509 71.8497 9.14386C71.8552 8.7296 71.7883 8.31757 71.6522 7.92627ZM70.1524 10.4824C70.0343 10.6378 69.8818 10.7638 69.707 10.8505C69.5321 10.9372 69.3396 10.9824 69.1444 10.9824C68.9493 10.9824 68.7567 10.9372 68.5819 10.8505C68.407 10.7638 68.2546 10.6378 68.1365 10.4824C67.8759 10.085 67.75 9.61427 67.7777 9.13983C67.7507 8.67177 67.8766 8.20762 68.1365 7.81741C68.256 7.66412 68.4089 7.5401 68.5836 7.4548C68.7582 7.3695 68.9501 7.32517 69.1444 7.32517C69.3388 7.32517 69.5306 7.3695 69.7053 7.4548C69.88 7.5401 70.0329 7.66412 70.1524 7.81741C70.4104 8.20847 70.5362 8.67198 70.5112 9.13983C70.5371 9.61409 70.4114 10.0843 70.1524 10.4824Z" fill="white"/>
<path d="M75.1442 12.0553C74.82 12.0553 74.4973 12.0119 74.1846 11.9262C73.9586 11.8611 73.7504 11.7453 73.5758 11.5876C73.4243 11.4359 73.3157 11.2467 73.2614 11.0393C73.197 10.7959 73.1658 10.5451 73.1686 10.2934V3.84259L74.4669 3.62891V10.0797C74.4628 10.2153 74.4764 10.3508 74.5072 10.4829C74.5274 10.5841 74.5732 10.6785 74.6402 10.757C74.7109 10.8368 74.8013 10.8965 74.9023 10.9304C75.0397 10.9753 75.1817 11.0051 75.3256 11.0191L75.1442 12.0553Z" fill="white"/>
<path d="M80.9821 11.7718C80.7322 11.8363 80.4056 11.9049 80.0064 11.9734C79.569 12.042 79.1268 12.0757 78.684 12.0742C78.2986 12.0855 77.9148 12.0197 77.5551 11.8807C77.27 11.7675 77.0187 11.5828 76.8254 11.3445C76.6345 11.1078 76.497 10.8328 76.4222 10.5381C76.342 10.1959 76.3027 9.84538 76.3053 9.4939V6.34913H77.6035V9.27215C77.5679 9.71875 77.6602 10.1663 77.8696 10.5623C77.977 10.6988 78.1174 10.8056 78.2775 10.8726C78.4377 10.9396 78.6123 10.9647 78.7848 10.9453C78.9421 10.9453 79.1074 10.9453 79.2848 10.9453C79.4203 10.9386 79.5551 10.9211 79.6879 10.8929V6.33301H80.9862L80.9821 11.7718Z" fill="white"/>
<path d="M83.9332 5.95863C83.9184 5.64361 84.003 5.33191 84.1751 5.06762C84.2825 4.9418 84.4192 4.84436 84.5732 4.78389C84.7272 4.72342 84.8937 4.70178 85.058 4.72089C85.2123 4.72047 85.3663 4.73533 85.5177 4.76524C85.6394 4.7891 85.7593 4.82143 85.8765 4.862L86.0781 3.80971C85.9338 3.75522 85.7856 3.71208 85.6346 3.6807C85.4059 3.63925 85.1735 3.62168 84.9411 3.62828C84.6247 3.60302 84.3065 3.64452 84.0072 3.75009C83.7078 3.85566 83.434 4.02294 83.2034 4.24111C82.8107 4.71476 82.6131 5.32029 82.6511 5.93444V11.9458H83.9493V7.41813H86.0095V6.33359H83.9493L83.9332 5.95863ZM88.1827 4.1C88.0313 3.96033 87.8322 3.88387 87.6263 3.88631C87.4162 3.88073 87.2122 3.95741 87.0578 4.1C86.9777 4.17491 86.915 4.26639 86.8739 4.36806C86.8328 4.46972 86.8144 4.57912 86.8199 4.68863C86.8147 4.79691 86.8334 4.905 86.8745 5.0053C86.9156 5.10561 86.9781 5.19569 87.0578 5.2692C87.2122 5.4118 87.4162 5.48847 87.6263 5.48289C87.8322 5.48533 88.0313 5.40887 88.1827 5.2692C88.2623 5.19569 88.3249 5.10561 88.366 5.0053C88.4071 4.905 88.4257 4.79691 88.4205 4.68863C88.4261 4.57912 88.4077 4.46972 88.3666 4.36806C88.3255 4.26639 88.2627 4.17491 88.1827 4.1ZM86.9731 6.33359V11.9458H88.2714V6.33359H86.9731Z" fill="white"/>
<path d="M89.9326 6.51469C90.2537 6.42868 90.5794 6.36137 90.9083 6.31311C91.3485 6.24554 91.7934 6.21318 92.2388 6.21634C92.6301 6.20408 93.0202 6.26704 93.3878 6.4018C93.6737 6.51201 93.9264 6.69389 94.1216 6.92996C94.316 7.16432 94.4539 7.4402 94.5248 7.73631C94.6034 8.07873 94.6413 8.42923 94.6377 8.78054V11.9374H93.3394V8.99422C93.343 8.73756 93.3228 8.48111 93.279 8.22819C93.251 8.04522 93.1865 7.86973 93.0895 7.71212C92.9986 7.58123 92.8709 7.48022 92.7226 7.42184C92.5419 7.35604 92.3504 7.3246 92.1581 7.32911C91.9857 7.33031 91.8134 7.34108 91.6421 7.36136L91.2389 7.41781V11.9455H89.9407L89.9326 6.51469Z" fill="white"/>
<path d="M100.242 7.50797C100.173 7.24729 100.043 7.00679 99.8628 6.80644C99.6754 6.60328 99.4416 6.44838 99.1815 6.35489C98.8322 6.23787 98.4651 6.18328 98.0969 6.19362C97.7591 6.19188 97.4218 6.22021 97.089 6.27828C96.8421 6.31953 96.5983 6.37745 96.3592 6.45165L96.5205 7.50394C96.7185 7.43578 96.9222 7.38585 97.1293 7.35476C97.4024 7.30935 97.679 7.28777 97.9558 7.29025C98.1435 7.28465 98.3307 7.31334 98.5082 7.37492C98.6453 7.42356 98.7676 7.5069 98.863 7.61683C98.9524 7.72059 99.0172 7.84327 99.0524 7.97565C99.0884 8.11522 99.106 8.25889 99.1049 8.40302V8.62073C98.9388 8.57993 98.7706 8.54896 98.6009 8.528C98.4509 8.51092 98.3002 8.5015 98.1493 8.49978C97.8526 8.49942 97.5566 8.5305 97.2664 8.59251C97.0016 8.64554 96.7488 8.74666 96.5205 8.89086C96.3077 9.0275 96.1319 9.21443 96.0085 9.43515C95.8784 9.68355 95.8146 9.96125 95.823 10.2415C95.8125 10.534 95.8691 10.8249 95.9883 11.0922C96.093 11.3129 96.2509 11.5041 96.4479 11.6486C96.663 11.7981 96.9055 11.9036 97.1616 11.959C97.4647 12.0261 97.7744 12.0585 98.0848 12.0558C98.5433 12.0597 99.0015 12.0301 99.4556 11.9671C99.8588 11.9026 100.161 11.8542 100.363 11.8098V8.41511C100.362 8.10879 100.321 7.80389 100.242 7.50797ZM99.0968 10.9712C98.7956 11.0202 98.4907 11.0418 98.1856 11.0358C97.9136 11.0493 97.643 10.988 97.4035 10.8584C97.2579 10.7343 97.1599 10.5637 97.1261 10.3755C97.0923 10.1873 97.1247 9.99316 97.218 9.82623C97.2896 9.72099 97.3885 9.63733 97.5042 9.58432C97.6316 9.52426 97.7677 9.48479 97.9074 9.4674C98.0517 9.44693 98.1972 9.43616 98.3429 9.43515C98.494 9.43484 98.6449 9.44562 98.7944 9.4674C98.8991 9.48231 99.0028 9.50386 99.1049 9.53191L99.0968 10.9712Z" fill="white"/>
<path d="M101.939 6.51452C102.261 6.42857 102.589 6.36126 102.919 6.31293C103.359 6.24537 103.804 6.21301 104.249 6.21617C104.64 6.2047 105.03 6.26764 105.398 6.40163C105.684 6.51184 105.937 6.69372 106.132 6.92979C106.325 7.16514 106.463 7.44065 106.535 7.73614C106.612 8.07888 106.65 8.42916 106.648 8.78036V11.9372H105.35V8.99405C105.353 8.73738 105.333 8.48094 105.289 8.22801C105.26 8.04472 105.194 7.86919 105.096 7.71195C105.008 7.57977 104.881 7.47829 104.733 7.42166C104.552 7.35624 104.361 7.3248 104.169 7.32893C103.996 7.33001 103.824 7.34078 103.652 7.36119C103.475 7.38538 103.342 7.40151 103.249 7.41763V11.9453H101.947L101.939 6.51452Z" fill="white"/>
<path d="M107.906 9.1439C107.903 8.74726 107.969 8.35309 108.1 7.97872C108.22 7.63265 108.409 7.3145 108.656 7.04335C108.897 6.77414 109.195 6.56087 109.527 6.41843C109.894 6.26405 110.29 6.18719 110.688 6.19266C111.203 6.1903 111.714 6.28892 112.192 6.48294L111.91 7.54732C111.746 7.47688 111.576 7.42285 111.402 7.38605C111.203 7.3414 111 7.31976 110.797 7.32155C110.58 7.30714 110.362 7.34251 110.161 7.42496C109.96 7.50742 109.78 7.63477 109.636 7.79729C109.347 8.18454 109.204 8.66152 109.233 9.1439C109.207 9.61543 109.339 10.0821 109.607 10.4703C109.765 10.6454 109.962 10.7808 110.182 10.8656C110.402 10.9504 110.639 10.9821 110.873 10.9582C111.093 10.9589 111.312 10.9373 111.527 10.8937C111.718 10.8588 111.906 10.8048 112.087 10.7324L112.268 11.8049C112.061 11.897 111.843 11.962 111.619 11.9984C111.325 12.0586 111.025 12.0883 110.724 12.0871C110.296 12.0952 109.87 12.0199 109.47 11.8653C109.135 11.7306 108.834 11.521 108.591 11.2525C108.353 10.9835 108.175 10.6657 108.071 10.3212C107.954 9.9398 107.896 9.54284 107.898 9.1439H107.906Z" fill="white"/>
<path d="M118.046 7.92631C117.924 7.58329 117.735 7.26804 117.489 6.99901C117.253 6.73965 116.963 6.53585 116.639 6.40231C116.294 6.25989 115.923 6.18859 115.55 6.19266C115.178 6.18733 114.809 6.25869 114.466 6.40231C114.142 6.53883 113.851 6.74216 113.611 6.99901C113.366 7.26804 113.176 7.58329 113.054 7.92631C112.917 8.31456 112.85 8.72413 112.857 9.13584C112.851 9.54747 112.918 9.95686 113.054 10.3454C113.173 10.6939 113.361 11.0148 113.607 11.2888C113.844 11.5454 114.133 11.7499 114.453 11.8895C115.157 12.1746 115.943 12.1746 116.647 11.8895C116.972 11.7531 117.263 11.5482 117.501 11.2888C117.747 11.018 117.933 10.6996 118.05 10.3534C118.182 9.96413 118.248 9.55513 118.243 9.1439C118.249 8.72964 118.182 8.31761 118.046 7.92631ZM116.554 10.4824C116.436 10.6378 116.283 10.7638 116.109 10.8506C115.934 10.9373 115.741 10.9824 115.546 10.9824C115.351 10.9824 115.158 10.9373 114.983 10.8506C114.809 10.7638 114.656 10.6378 114.538 10.4824C114.277 10.085 114.152 9.61431 114.179 9.13987C114.152 8.67181 114.278 8.20767 114.538 7.81746C114.658 7.66416 114.811 7.54015 114.985 7.45485C115.16 7.36955 115.352 7.32521 115.546 7.32521C115.74 7.32521 115.932 7.36955 116.107 7.45485C116.282 7.54015 116.434 7.66416 116.554 7.81746C116.812 8.20851 116.938 8.67203 116.913 9.13987C116.939 9.61414 116.813 10.0843 116.554 10.4824Z" fill="white"/>
<path d="M120.9 11.9452C120.543 11.2087 120.175 10.3634 119.796 9.40923C119.421 8.45371 119.078 7.42561 118.768 6.33301H120.146C120.227 6.64748 120.32 6.98615 120.425 7.34498C120.529 7.7038 120.638 8.07069 120.755 8.42952C120.872 8.78834 120.997 9.14314 121.122 9.4818C121.247 9.82047 121.364 10.1269 121.473 10.401C121.582 10.1269 121.695 9.8245 121.82 9.4818C121.945 9.13911 122.062 8.79238 122.178 8.42952C122.295 8.06666 122.412 7.70783 122.521 7.34498C122.63 6.98212 122.719 6.64748 122.799 6.33301H124.142C123.831 7.42561 123.489 8.45371 123.114 9.40923C122.739 10.3648 122.368 11.2074 122.009 11.9452H120.9Z" fill="white"/>
<path d="M129.129 7.50775C129.06 7.24801 128.932 7.00785 128.754 6.80623C128.56 6.60208 128.319 6.44728 128.053 6.35467C127.704 6.23798 127.337 6.1834 126.968 6.1934C126.382 6.19115 125.799 6.27816 125.239 6.45143L125.4 7.50372C125.599 7.43563 125.804 7.3857 126.013 7.35454C126.286 7.30897 126.562 7.28739 126.839 7.29004C127.027 7.28479 127.214 7.31347 127.392 7.3747C127.528 7.42446 127.65 7.50762 127.746 7.61661C127.835 7.7206 127.898 7.84331 127.932 7.97543C127.969 8.11482 127.988 8.25849 127.988 8.4028V8.62051C127.822 8.58042 127.654 8.54946 127.484 8.52778C127.323 8.52778 127.174 8.49956 127.033 8.49956C126.735 8.49901 126.437 8.53009 126.146 8.59229C125.881 8.64602 125.629 8.74709 125.4 8.89064C125.189 9.02854 125.015 9.21526 124.892 9.43493C124.761 9.68296 124.695 9.96067 124.703 10.2413C124.694 10.5336 124.75 10.8241 124.868 11.092C124.975 11.3121 125.134 11.503 125.331 11.6484C125.546 11.7986 125.789 11.9042 126.045 11.9588C126.348 12.026 126.658 12.0585 126.968 12.0556C127.426 12.0596 127.882 12.03 128.335 11.9669C128.738 11.9024 129.041 11.854 129.242 11.8096V8.4149C129.246 8.1088 129.208 7.80364 129.129 7.50775ZM127.988 10.971C127.686 11.02 127.38 11.0416 127.073 11.0355C126.801 11.0481 126.531 10.9868 126.291 10.8581C126.19 10.7872 126.109 10.6902 126.058 10.5774C126.007 10.4646 125.987 10.3402 126.001 10.2171C125.993 10.0745 126.031 9.93325 126.11 9.81391C126.18 9.70896 126.277 9.62528 126.392 9.57201C126.519 9.51232 126.655 9.47287 126.795 9.45509C126.939 9.43432 127.085 9.42355 127.23 9.42283C127.38 9.4225 127.53 9.43328 127.678 9.45509C127.784 9.47008 127.889 9.49163 127.992 9.5196L127.988 10.971ZM127.771 3.27441L126.194 5.15321L126.839 5.73378L128.589 4.03238L127.771 3.27441Z" fill="white"/>
<path d="M130.831 6.51469C131.152 6.42868 131.477 6.36137 131.806 6.31311C132.247 6.24591 132.691 6.21356 133.137 6.21634C133.528 6.20408 133.918 6.26704 134.286 6.4018C134.572 6.51104 134.825 6.69308 135.02 6.92996C135.216 7.16326 135.354 7.43954 135.423 7.73631C135.501 8.07873 135.539 8.42923 135.536 8.78054V11.9374H134.237V8.99422C134.24 8.73775 134.221 8.4815 134.181 8.22819C134.152 8.0449 134.086 7.86937 133.987 7.71212C133.896 7.58123 133.769 7.48022 133.621 7.42184C133.44 7.35604 133.248 7.3246 133.056 7.32911C132.885 7.33019 132.714 7.34096 132.544 7.36136L132.141 7.41781V11.9455H130.831V6.51469Z" fill="white"/>
<path d="M141.986 7.92615C141.864 7.58409 141.676 7.26911 141.434 6.99885C141.196 6.7402 140.904 6.53657 140.579 6.40215C139.882 6.12246 139.103 6.12246 138.406 6.40215C138.084 6.53884 137.794 6.74219 137.555 6.99885C137.307 7.26659 137.117 7.58213 136.995 7.92615C136.858 8.3144 136.791 8.72397 136.797 9.13567C136.792 9.54731 136.859 9.9567 136.995 10.3452C137.115 10.693 137.303 11.0137 137.547 11.2886C137.786 11.5462 138.075 11.7509 138.398 11.8894C138.747 12.033 139.121 12.103 139.499 12.095C139.876 12.0981 140.25 12.0254 140.599 11.8813C140.919 11.7443 141.208 11.5425 141.446 11.2886C141.688 11.0166 141.874 10.6985 141.99 10.3533C142.123 9.96397 142.188 9.55497 142.184 9.14374C142.191 8.72933 142.124 8.31694 141.986 7.92615ZM140.494 10.4823C140.376 10.6377 140.224 10.7637 140.049 10.8504C139.874 10.9371 139.682 10.9823 139.486 10.9823C139.291 10.9823 139.099 10.9371 138.924 10.8504C138.749 10.7637 138.597 10.6377 138.479 10.4823C138.219 10.0842 138.094 9.61397 138.12 9.13971C138.095 8.67186 138.221 8.20835 138.479 7.81729C138.598 7.664 138.751 7.53998 138.926 7.45468C139.1 7.36938 139.292 7.32505 139.486 7.32505C139.681 7.32505 139.873 7.36938 140.047 7.45468C140.222 7.53998 140.375 7.664 140.494 7.81729C140.752 8.20835 140.878 8.67186 140.853 9.13971C140.879 9.61397 140.753 10.0842 140.494 10.4823Z" fill="white"/>
<path d="M54.6465 24.8232V17.3887H59.4201V18.5337H55.9971V20.3722H59.0451V21.497H55.9971V23.6742H59.6781V24.8232H54.6465Z" fill="white"/>
<path d="M62.0888 24.8241C61.73 24.0863 61.3591 23.2437 60.9841 22.2881C60.5878 21.2814 60.2446 20.2546 59.9561 19.2119H61.3389C61.4196 19.5264 61.5123 19.8651 61.6131 20.2279C61.7139 20.5908 61.8308 20.9496 61.9477 21.3084C62.0647 21.6672 62.1896 22.022 62.3146 22.3607C62.4396 22.6994 62.5565 23.0058 62.6654 23.2799C62.7742 23.0058 62.8871 22.7034 63.0121 22.3607C63.1371 22.018 63.254 21.6713 63.3709 21.3084C63.4879 20.9456 63.6008 20.5867 63.7096 20.2279C63.8185 19.8691 63.9112 19.5264 63.9918 19.2119H65.3142C65.0225 20.2541 64.6781 21.2809 64.2821 22.2881C63.9072 23.2437 63.5362 24.0863 63.1774 24.8241H62.0888Z" fill="white"/>
<path d="M69.4795 20.38C69.3324 20.3347 69.183 20.297 69.032 20.2671C68.8139 20.2275 68.5925 20.2086 68.3708 20.2107C68.2181 20.211 68.0656 20.2245 67.9152 20.251C67.8009 20.2696 67.6878 20.2952 67.5765 20.3276V24.823H66.2783V19.4809C66.5855 19.3726 66.8993 19.2837 67.2177 19.2148C67.629 19.131 68.0479 19.0904 68.4676 19.0939C68.5683 19.0885 68.6692 19.0885 68.7699 19.0939C68.8828 19.0939 68.9998 19.1181 69.1126 19.1342L69.4473 19.1987C69.5521 19.2269 69.6408 19.2471 69.7053 19.2713L69.4795 20.38Z" fill="white"/>
<path d="M75.4828 20.8041C75.36 20.4623 75.1725 20.1475 74.9304 19.8768C74.6923 19.6181 74.4006 19.4145 74.0757 19.2801C73.3783 19.0004 72.6 19.0004 71.9026 19.2801C71.5794 19.4176 71.2884 19.6208 71.0479 19.8768C70.8034 20.1464 70.6143 20.4615 70.4915 20.8041C70.2281 21.5889 70.2281 22.4383 70.4915 23.2231C70.6125 23.5681 70.8002 23.8859 71.0438 24.1585C71.2822 24.4161 71.572 24.6207 71.8945 24.7592C72.2402 24.9045 72.6121 24.9773 72.9871 24.9729C73.3646 24.976 73.7389 24.9034 74.0878 24.7592C74.4108 24.6217 74.7008 24.4169 74.9385 24.1585C75.1836 23.8877 75.3703 23.5693 75.4868 23.2231C75.6201 22.834 75.6856 22.4249 75.6803 22.0136C75.6863 21.6019 75.6194 21.1925 75.4828 20.8041ZM73.991 23.3521C73.8729 23.5075 73.7205 23.6335 73.5457 23.7203C73.3708 23.807 73.1783 23.8521 72.9831 23.8521C72.7879 23.8521 72.5954 23.807 72.4205 23.7203C72.2457 23.6335 72.0933 23.5075 71.9752 23.3521C71.7167 22.9553 71.591 22.4865 71.6163 22.0136C71.5916 21.5445 71.7173 21.0798 71.9752 20.6872C72.0947 20.5339 72.2476 20.4098 72.4222 20.3245C72.5969 20.2392 72.7887 20.1949 72.9831 20.1949C73.1775 20.1949 73.3693 20.2392 73.544 20.3245C73.7186 20.4098 73.8715 20.5339 73.991 20.6872C74.2489 21.0798 74.3746 21.5445 74.3499 22.0136C74.3752 22.4865 74.2495 22.9553 73.991 23.3521Z" fill="white"/>
<path d="M81.8772 20.8039C81.7541 20.4598 81.5605 20.1454 81.3087 19.8806C81.0563 19.6231 80.7509 19.4236 80.4136 19.296C80.0334 19.1546 79.6299 19.0862 79.2243 19.0944C78.8191 19.0937 78.4146 19.126 78.0147 19.1912C77.6116 19.2557 77.3052 19.3202 77.0391 19.3928V26.8071H78.3373V24.63C78.7322 24.8346 79.1706 24.9411 79.6154 24.9404C79.9789 24.9478 80.3396 24.8748 80.6717 24.7268C80.9717 24.5893 81.2354 24.3836 81.4417 24.126C81.6577 23.8514 81.8192 23.538 81.9175 23.2028C82.0341 22.82 82.0912 22.4216 82.0868 22.0215C82.0896 21.6064 82.0186 21.1941 81.8772 20.8039ZM80.4177 23.3439C80.3015 23.5069 80.1448 23.6369 79.9631 23.721C79.7815 23.8051 79.581 23.8405 79.3815 23.8237C79.1756 23.8257 78.9709 23.7915 78.7767 23.7229C78.6167 23.6689 78.4637 23.5958 78.3212 23.5051V20.2797C78.4529 20.2428 78.5879 20.2185 78.7243 20.2072C78.8574 20.2072 78.9824 20.2072 79.1275 20.2072C79.3602 20.1863 79.5946 20.219 79.8127 20.3029C80.0307 20.3868 80.2267 20.5195 80.3854 20.691C80.6729 21.0821 80.8154 21.561 80.7886 22.0456C80.798 22.5058 80.6687 22.9581 80.4177 23.3439Z" fill="white"/>
<path d="M84.8238 23.8923C85.08 23.9069 85.3362 23.8642 85.5738 23.7673C85.651 23.7283 85.7148 23.6672 85.7572 23.5918C85.7995 23.5165 85.8185 23.4302 85.8116 23.3439C85.8111 23.2517 85.7876 23.161 85.7432 23.08C85.6989 22.9991 85.6351 22.9304 85.5576 22.8803C85.2994 22.7105 85.0202 22.575 84.7271 22.4771C84.5057 22.3982 84.2889 22.3066 84.078 22.203C83.8934 22.1149 83.7223 22.0008 83.57 21.8643C83.4239 21.7353 83.3082 21.5756 83.2313 21.3966C83.1414 21.1853 83.0987 20.9569 83.1063 20.7273C83.0982 20.4951 83.1456 20.2642 83.2444 20.0539C83.3433 19.8436 83.4908 19.6598 83.6748 19.5178C84.1234 19.197 84.6683 19.0391 85.219 19.0703C85.5371 19.0698 85.8544 19.1009 86.1664 19.163C86.395 19.2052 86.6201 19.2645 86.8397 19.3404L86.6059 20.3927C86.4289 20.3169 86.2454 20.2575 86.0576 20.2153C85.8035 20.1587 85.5437 20.1317 85.2835 20.1347C85.0621 20.1258 84.842 20.1715 84.6424 20.2677C84.5672 20.3047 84.5038 20.3622 84.4596 20.4335C84.4154 20.5047 84.3921 20.587 84.3925 20.6709C84.391 20.7554 84.4075 20.8392 84.4408 20.9168C84.4793 20.9962 84.5376 21.0642 84.6102 21.1144C84.7073 21.1862 84.8113 21.2483 84.9206 21.2998C85.0746 21.3695 85.2321 21.4314 85.3923 21.4853C85.6601 21.5811 85.9214 21.6942 86.1745 21.824C86.3708 21.9197 86.5505 22.0463 86.7067 22.1989C86.8429 22.3328 86.9475 22.4953 87.0131 22.6747C87.0818 22.8826 87.1146 23.1008 87.1098 23.3198C87.1219 23.5555 87.0734 23.7905 86.9689 24.0022C86.8645 24.2139 86.7076 24.3954 86.5132 24.5293C86.0001 24.8332 85.4067 24.9738 84.8118 24.9325C84.4049 24.9433 83.9983 24.9013 83.6022 24.8075C83.3878 24.7532 83.1765 24.6873 82.9692 24.6099L83.195 23.5254C83.4199 23.615 83.6501 23.6904 83.8844 23.7512C84.1848 23.8274 84.4938 23.864 84.8037 23.86L84.8238 23.8923Z" fill="white"/>
<path d="M89.6219 21.4007L90.1461 20.8483L90.7145 20.2597L91.2225 19.6872C91.3838 19.5057 91.5249 19.3485 91.6257 19.2114H93.1618C92.803 19.6146 92.424 20.0178 92.0289 20.4572C91.6338 20.8967 91.2225 21.3039 90.8194 21.7111C91.0656 21.9137 91.2999 22.1304 91.5209 22.3602C91.7547 22.6142 91.9845 22.8843 92.2063 23.1666C92.428 23.4488 92.6337 23.7391 92.8272 24.0253C93.0207 24.3116 93.1779 24.5777 93.307 24.8317H91.8072C91.6781 24.6099 91.529 24.3761 91.3596 24.1342C91.1903 23.8923 91.0129 23.6544 90.8194 23.4246C90.6258 23.1948 90.4162 22.9811 90.2267 22.7795C90.045 22.5892 89.8481 22.4139 89.6381 22.2554V24.8317H88.3398V16.7117L89.6381 16.498L89.6219 21.4007Z" fill="white"/>
<path d="M98.8348 20.8041C98.7121 20.4623 98.5245 20.1475 98.2825 19.8768C98.0443 19.6181 97.7526 19.4145 97.4277 19.2801C96.7304 19.0004 95.952 19.0004 95.2546 19.2801C94.9322 19.4168 94.6423 19.6201 94.4039 19.8768C94.1568 20.1451 93.9662 20.4605 93.8435 20.8041C93.5802 21.5889 93.5802 22.4383 93.8435 23.2231C93.9646 23.5681 94.1523 23.8859 94.3959 24.1585C94.6343 24.4161 94.9241 24.6207 95.2466 24.7592C95.5923 24.9045 95.9642 24.9773 96.3392 24.9729C96.7167 24.976 97.0909 24.9034 97.4398 24.7592C97.7635 24.6208 98.0547 24.4162 98.2946 24.1585C98.5371 23.8865 98.7222 23.5683 98.8389 23.2231C98.9721 22.834 99.0376 22.4249 99.0324 22.0136C99.0384 21.6019 98.9715 21.1925 98.8348 20.8041ZM97.3431 23.3521C97.225 23.5075 97.0726 23.6335 96.8977 23.7203C96.7229 23.807 96.5303 23.8521 96.3351 23.8521C96.14 23.8521 95.9474 23.807 95.7726 23.7203C95.5977 23.6335 95.4453 23.5075 95.3272 23.3521C95.0687 22.9553 94.9431 22.4865 94.9684 22.0136C94.9437 21.5445 95.0694 21.0798 95.3272 20.6872C95.4467 20.5339 95.5996 20.4098 95.7743 20.3245C95.949 20.2392 96.1408 20.1949 96.3351 20.1949C96.5295 20.1949 96.7213 20.2392 96.896 20.3245C97.0707 20.4098 97.2236 20.5339 97.3431 20.6872C97.6009 21.0798 97.7266 21.5445 97.7019 22.0136C97.7272 22.4865 97.6016 22.9553 97.3431 23.3521Z" fill="white"/>
<path d="M104.979 24.6548C104.729 24.7193 104.403 24.7838 104.004 24.8523C103.566 24.9229 103.124 24.9566 102.681 24.9531C102.294 24.9644 101.909 24.8987 101.548 24.7596C101.264 24.6444 101.013 24.46 100.819 24.2234C100.629 23.9862 100.491 23.7113 100.415 23.417C100.335 23.0734 100.296 22.7216 100.298 22.3688V19.224H101.601V22.1632C101.567 22.6092 101.658 23.0558 101.863 23.4533C101.969 23.5929 102.11 23.7031 102.27 23.7736C102.431 23.8442 102.607 23.8727 102.782 23.8565C102.939 23.8565 103.105 23.8565 103.282 23.8323C103.417 23.8252 103.552 23.8077 103.685 23.7799V19.2119H104.983L104.979 24.6548Z" fill="white"/>
<path d="M113.736 24.6548C113.486 24.7193 113.16 24.7838 112.76 24.8523C112.323 24.9229 111.881 24.9566 111.438 24.9531C111.051 24.9644 110.666 24.8987 110.305 24.7596C110.021 24.6444 109.77 24.46 109.575 24.2234C109.385 23.9862 109.248 23.7113 109.172 23.417C109.092 23.0734 109.053 22.7216 109.055 22.3688V19.224H110.354V22.1632C110.32 22.6092 110.411 23.0558 110.616 23.4533C110.722 23.5929 110.862 23.7031 111.023 23.7736C111.184 23.8442 111.36 23.8727 111.535 23.8565C111.692 23.8565 111.857 23.8565 112.035 23.8323C112.17 23.8252 112.305 23.8077 112.438 23.7799V19.2119H113.736V24.6548Z" fill="white"/>
<path d="M115.389 19.3926C115.711 19.3086 116.036 19.2413 116.365 19.191C116.805 19.1235 117.25 19.0911 117.695 19.0943C118.087 19.082 118.477 19.145 118.844 19.2797C119.129 19.3914 119.382 19.573 119.578 19.8079C119.771 20.0432 119.909 20.3188 119.981 20.6142C120.06 20.958 120.098 21.3099 120.094 21.6625V24.8153H118.796V21.8721C118.8 21.6155 118.779 21.359 118.736 21.1061C118.707 20.9225 118.642 20.7468 118.542 20.5901C118.454 20.4579 118.327 20.3564 118.179 20.2998C117.998 20.2355 117.807 20.2055 117.615 20.2111C117.442 20.2103 117.27 20.221 117.099 20.2433C116.921 20.2433 116.788 20.2796 116.695 20.2957V24.8234H115.389V19.3926Z" fill="white"/>
<path d="M122.88 16.9779C122.724 16.8399 122.523 16.7637 122.315 16.7637C122.107 16.7637 121.906 16.8399 121.751 16.9779C121.671 17.0538 121.609 17.1461 121.569 17.2485C121.528 17.3508 121.511 17.4607 121.517 17.5706C121.513 17.6779 121.533 17.7847 121.575 17.8835C121.616 17.9824 121.679 18.071 121.759 18.1431C121.913 18.2836 122.114 18.3615 122.323 18.3615C122.532 18.3615 122.733 18.2836 122.888 18.1431C122.966 18.0698 123.028 17.9802 123.068 17.8807C123.109 17.7811 123.127 17.6739 123.122 17.5665C123.126 17.4568 123.107 17.3472 123.065 17.2456C123.024 17.144 122.96 17.0526 122.88 16.9779ZM121.67 19.2115V24.8237H122.968V19.2115H121.67Z" fill="white"/>
<path d="M126.013 16.1504L124.433 18.0292L125.078 18.6098L126.827 16.9325L126.013 16.1504ZM124.638 19.2105V24.8227H125.936V19.2105H124.638Z" fill="white"/>
</g>
<defs>
<clipPath id="clip0_96_24">
<rect width="224.992" height="32" fill="white"/>
</clipPath>
</defs>
</svg>
