<svg width="149" height="43" fill="none" xmlns="http://www.w3.org/2000/svg"><g clip-path="url(#clip0_446_2541)"><path d="M6.052 26.094l-.06-.133 9.635-10.06v-4.202H.273V15.9h4.88c1.332 0 2.877 0 4.388-.066l.067.126L0 26.028v4.201h15.754v-4.201h-6.24c-.991 0-2.223.033-3.462.066zM22.028 11.3h-4.235v18.936h4.235V11.299zM23.805 12.531l.805 2.104 7.411-2.503-.925-2.41-7.291 2.81zM29.144 15.587h-4.228V30.23h4.228V15.587zM41.088 15.188c-2.344 0-4.102 1.145-4.788 4.508v-4.109h-4.26v14.649h4.234v-8.59a2.444 2.444 0 0 1 2.663-2.663c1.765 0 2.444 1.139 2.444 2.663v8.583h4.201v-9.788c.02-3.136-1.311-5.253-4.494-5.253zM115.031 15.654v-.067h-4.881l-4.574 5.72h-.246V11.299h-4.228v18.93h4.228v-5.866h.186l4.821 5.866h4.974v-.06l-6.399-7.384 6.119-7.131zM120.379 20.808h-.067v-5.22h-4.228v14.648h4.228V23.25c0-2.197.746-2.843 3.123-2.843h2.324v-4.82h-1.439c-2.03 0-3.222.772-3.941 5.22zM136.884 19.576h-.06c-.712-3.123-2.317-4.421-4.854-4.388-3.522 0-5.433 2.87-5.433 7.817 0 4.754 1.825 7.657 5.373 7.657 2.504 0 4.169-1.332 4.881-4.388h.093v3.955h4.188V15.581h-4.201l.013 3.995zm0 3.522c0 2.404-1.172 3.769-3.089 3.769-2.164 0-3.09-1.452-3.09-3.862 0-2.537.959-4.049 3.09-4.049 1.917 0 3.089 1.485 3.089 3.862v.28zM143.836 29.703c0 .84-.279 1.452-1.085 1.452a4.547 4.547 0 0 1-.586 0l-.366 3.522c.366 0 .739.087 1.172.087 3.708 0 5.067-2.251 5.067-5.713V15.62h-4.202v14.082zM148.13 11.3h-4.388v2.75h4.388V11.3zM54.586 15.228c-.307 0-.626-.04-.966-.04-4.101 0-6.112 1.731-6.112 4.508 0 2.41 1.391 3.801 5.5 4.66.665.127 1.158.253 1.578.38v2.776h-.467c-1.79 0-2.663-.958-3.062-2.596l-3.922.772c.433 2.664 1.95 4.94 6.891 4.94h.56V43h43V-.007h-43v15.235zm-2.91 4.281c0-.799.666-1.292 1.917-1.292.337-.005.673.047.992.154v2.963c-2.563-.506-2.91-1.052-2.91-1.825z" fill="#fff"/><path d="M60.505 26.787h-.48v2.357H58.9V23.15h1.126v2.664h.48l2.123-2.664h1.279v.147l-2.57 2.943L64 29.03v.113h-1.332l-2.164-2.357zM64.607 29.144v-4.661h1.013v1.398h.086c.273-1.132.706-1.465 1.385-1.465h.166v1.212h-.26c-.978 0-1.33.346-1.33 1.332v2.217l-1.06-.033zM70.844 28.032h-.113a1.572 1.572 0 0 1-1.598 1.205c-.832 0-1.418-.393-1.418-1.332 0-.939.506-1.438 1.691-1.438h1.385v-.32c0-.605-.246-.952-.899-.952a.919.919 0 0 0-.985.82l-1.012-.227c.18-.886.845-1.452 2.037-1.452 1.332 0 1.924.666 1.924 1.798v2.983h-1.012v-1.085zm-.053-.666v-.193h-1.212c-.532 0-.839.2-.839.586 0 .386.207.626.813.626.745.02 1.238-.426 1.238-.999v-.02zM72.56 30.748c-.15 0-.3-.015-.447-.046l.047-.926c.118.024.239.037.36.04.366 0 .492-.26.492-.665V24.49h1.066v4.547c0 1.039-.44 1.712-1.519 1.712zm.406-7.064v-.866h1.158v.866h-1.158zM78.296 25.688h.066a1.638 1.638 0 0 1 1.612-1.332c1.098 0 1.71.873 1.71 2.464s-.665 2.45-1.69 2.45a1.664 1.664 0 0 1-1.632-1.371h-.066v1.245H77.23v-6.379h1.066v2.923zm2.337 1.132c0-1.012-.353-1.498-1.139-1.498a1.18 1.18 0 0 0-1.198 1.332v.36a1.193 1.193 0 0 0 1.192 1.33c.779-.02 1.145-.525 1.145-1.524zM82.35 26.867c0-1.578.893-2.51 2.35-2.51a1.92 1.92 0 0 1 2.092 2.137v.619h-3.33c.08.846.507 1.272 1.299 1.272a1.013 1.013 0 0 0 1.132-.806l.919.26c-.22.845-.806 1.418-2.058 1.418a2.17 2.17 0 0 1-2.404-2.39zm1.073-.466h2.383c-.04-.806-.4-1.219-1.145-1.219-.746 0-1.145.386-1.239 1.219zM91.52 28.238v.906h-4.108v-.939l2.896-2.836-.06-.12c-.584.08-1.174.124-1.764.133h-.992v-.906h3.995v.933l-2.903 2.836.067.133a11.287 11.287 0 0 1 1.598-.14h1.271zM59.945 37.733h-1.058v-6.372h1.058v2.936h.08a1.691 1.691 0 0 1 1.652-1.331c.958 0 1.418.666 1.418 1.671v3.116h-1.066V34.89c0-.566-.26-.979-.885-.979a1.126 1.126 0 0 0-1.199 1.179v2.643zM64.166 37.733v-4.66h.999v1.398h.093c.266-1.132.706-1.459 1.378-1.459h.167v1.199h-.253c-.986 0-1.332.346-1.332 1.298v2.218l-1.052.006zM70.405 36.615h-.107a1.584 1.584 0 0 1-1.598 1.212 1.237 1.237 0 0 1-1.418-1.332c0-.832.506-1.438 1.685-1.438h1.391v-.32c0-.606-.246-.952-.905-.952a.912.912 0 0 0-.96.832l-1.011-.233c.173-.879.839-1.445 2.03-1.445 1.332 0 1.925.633 1.925 1.791v2.983h-1.012l-.02-1.098zm-.047-.666v-.187H69.16c-.533 0-.846.194-.846.58 0 .386.213.626.819.626.726.026 1.225-.407 1.225-1.02zM73.567 37.733h-1.079v-4.66h1.046v1.231h.086a1.685 1.685 0 0 1 1.638-1.332c.972 0 1.438.666 1.438 1.672v3.116h-1.058v-2.87c0-.566-.253-.979-.892-.979a1.119 1.119 0 0 0-1.192 1.179l.013 2.643zM77.772 32.273v-.865h1.165v.865h-1.165zm.04 5.46v-4.66h1.071v4.66h-1.072zM82.093 33.891c-.76 0-1.239.486-1.239 1.505s.44 1.518 1.272 1.518c.832 0 1.012-.466 1.152-1.032l.979.24a1.918 1.918 0 0 1-2.124 1.738 2.184 2.184 0 0 1-2.37-2.424c0-1.565.925-2.49 2.35-2.49a1.891 1.891 0 0 1 2.137 1.751l-1.005.186a1.07 1.07 0 0 0-1.152-.992z" fill="#000"/></g><defs><clipPath id="clip0_446_2541"><path fill="#fff" d="M0 0h148.13v43H0z"/></clipPath></defs></svg>